<?xml version="1.0" encoding="utf-8" standalone="no"?>
<!DOCTYPE svg PUBLIC "-//W3C//DTD SVG 1.1//EN"
  "http://www.w3.org/Graphics/SVG/1.1/DTD/svg11.dtd">
<svg xmlns:xlink="http://www.w3.org/1999/xlink" width="711.84875pt" height="1061.19625pt" viewBox="0 0 711.84875 1061.19625" xmlns="http://www.w3.org/2000/svg" version="1.1">
 <metadata>
  <rdf:RDF xmlns:dc="http://purl.org/dc/elements/1.1/" xmlns:cc="http://creativecommons.org/ns#" xmlns:rdf="http://www.w3.org/1999/02/22-rdf-syntax-ns#">
   <cc:Work>
    <dc:type rdf:resource="http://purl.org/dc/dcmitype/StillImage"/>
    <dc:date>2024-10-20T16:48:02.711343</dc:date>
    <dc:format>image/svg+xml</dc:format>
    <dc:creator>
     <cc:Agent>
      <dc:title>Matplotlib v3.9.2, https://matplotlib.org/</dc:title>
     </cc:Agent>
    </dc:creator>
   </cc:Work>
  </rdf:RDF>
 </metadata>
 <defs>
  <style type="text/css">*{stroke-linejoin: round; stroke-linecap: butt}</style>
 </defs>
 <g id="figure_1">
  <g id="patch_1">
   <path d="M 0 1061.19625 
L 711.84875 1061.19625 
L 711.84875 0 
L 0 0 
z
" style="fill: #ffffff"/>
  </g>
  <g id="axes_1">
   <g id="patch_2">
    <path d="M 53.328125 328.36 
L 664.883125 328.36 
L 664.883125 38.04 
L 53.328125 38.04 
z
" style="fill: #ffffff"/>
   </g>
   <g id="matplotlib.axis_1">
    <g id="xtick_1">
     <g id="line2d_1">
      <path d="M 81.12608 328.36 
L 81.12608 38.04 
" clip-path="url(#p4b204ef8cc)" style="fill: none; stroke: #b0b0b0; stroke-width: 0.8; stroke-linecap: square"/>
     </g>
     <g id="line2d_2">
      <defs>
       <path id="mf829b74c11" d="M 0 0 
L 0 3.5 
" style="stroke: #000000; stroke-width: 0.8"/>
      </defs>
      <g>
       <use xlink:href="#mf829b74c11" x="81.12608" y="328.36" style="stroke: #000000; stroke-width: 0.8"/>
      </g>
     </g>
     <g id="text_1">
      <!-- 0 -->
      <g transform="translate(77.94483 342.958438) scale(0.1 -0.1)">
       <defs>
        <path id="DejaVuSans-30" d="M 2034 4250 
Q 1547 4250 1301 3770 
Q 1056 3291 1056 2328 
Q 1056 1369 1301 889 
Q 1547 409 2034 409 
Q 2525 409 2770 889 
Q 3016 1369 3016 2328 
Q 3016 3291 2770 3770 
Q 2525 4250 2034 4250 
z
M 2034 4750 
Q 2819 4750 3233 4129 
Q 3647 3509 3647 2328 
Q 3647 1150 3233 529 
Q 2819 -91 2034 -91 
Q 1250 -91 836 529 
Q 422 1150 422 2328 
Q 422 3509 836 4129 
Q 1250 4750 2034 4750 
z
" transform="scale(0.015625)"/>
       </defs>
       <use xlink:href="#DejaVuSans-30"/>
      </g>
     </g>
    </g>
    <g id="xtick_2">
     <g id="line2d_3">
      <path d="M 160.548807 328.36 
L 160.548807 38.04 
" clip-path="url(#p4b204ef8cc)" style="fill: none; stroke: #b0b0b0; stroke-width: 0.8; stroke-linecap: square"/>
     </g>
     <g id="line2d_4">
      <g>
       <use xlink:href="#mf829b74c11" x="160.548807" y="328.36" style="stroke: #000000; stroke-width: 0.8"/>
      </g>
     </g>
     <g id="text_2">
      <!-- 1 -->
      <g transform="translate(157.367557 342.958438) scale(0.1 -0.1)">
       <defs>
        <path id="DejaVuSans-31" d="M 794 531 
L 1825 531 
L 1825 4091 
L 703 3866 
L 703 4441 
L 1819 4666 
L 2450 4666 
L 2450 531 
L 3481 531 
L 3481 0 
L 794 0 
L 794 531 
z
" transform="scale(0.015625)"/>
       </defs>
       <use xlink:href="#DejaVuSans-31"/>
      </g>
     </g>
    </g>
    <g id="xtick_3">
     <g id="line2d_5">
      <path d="M 239.971534 328.36 
L 239.971534 38.04 
" clip-path="url(#p4b204ef8cc)" style="fill: none; stroke: #b0b0b0; stroke-width: 0.8; stroke-linecap: square"/>
     </g>
     <g id="line2d_6">
      <g>
       <use xlink:href="#mf829b74c11" x="239.971534" y="328.36" style="stroke: #000000; stroke-width: 0.8"/>
      </g>
     </g>
     <g id="text_3">
      <!-- 2 -->
      <g transform="translate(236.790284 342.958438) scale(0.1 -0.1)">
       <defs>
        <path id="DejaVuSans-32" d="M 1228 531 
L 3431 531 
L 3431 0 
L 469 0 
L 469 531 
Q 828 903 1448 1529 
Q 2069 2156 2228 2338 
Q 2531 2678 2651 2914 
Q 2772 3150 2772 3378 
Q 2772 3750 2511 3984 
Q 2250 4219 1831 4219 
Q 1534 4219 1204 4116 
Q 875 4013 500 3803 
L 500 4441 
Q 881 4594 1212 4672 
Q 1544 4750 1819 4750 
Q 2544 4750 2975 4387 
Q 3406 4025 3406 3419 
Q 3406 3131 3298 2873 
Q 3191 2616 2906 2266 
Q 2828 2175 2409 1742 
Q 1991 1309 1228 531 
z
" transform="scale(0.015625)"/>
       </defs>
       <use xlink:href="#DejaVuSans-32"/>
      </g>
     </g>
    </g>
    <g id="xtick_4">
     <g id="line2d_7">
      <path d="M 319.394261 328.36 
L 319.394261 38.04 
" clip-path="url(#p4b204ef8cc)" style="fill: none; stroke: #b0b0b0; stroke-width: 0.8; stroke-linecap: square"/>
     </g>
     <g id="line2d_8">
      <g>
       <use xlink:href="#mf829b74c11" x="319.394261" y="328.36" style="stroke: #000000; stroke-width: 0.8"/>
      </g>
     </g>
     <g id="text_4">
      <!-- 3 -->
      <g transform="translate(316.213011 342.958438) scale(0.1 -0.1)">
       <defs>
        <path id="DejaVuSans-33" d="M 2597 2516 
Q 3050 2419 3304 2112 
Q 3559 1806 3559 1356 
Q 3559 666 3084 287 
Q 2609 -91 1734 -91 
Q 1441 -91 1130 -33 
Q 819 25 488 141 
L 488 750 
Q 750 597 1062 519 
Q 1375 441 1716 441 
Q 2309 441 2620 675 
Q 2931 909 2931 1356 
Q 2931 1769 2642 2001 
Q 2353 2234 1838 2234 
L 1294 2234 
L 1294 2753 
L 1863 2753 
Q 2328 2753 2575 2939 
Q 2822 3125 2822 3475 
Q 2822 3834 2567 4026 
Q 2313 4219 1838 4219 
Q 1578 4219 1281 4162 
Q 984 4106 628 3988 
L 628 4550 
Q 988 4650 1302 4700 
Q 1616 4750 1894 4750 
Q 2613 4750 3031 4423 
Q 3450 4097 3450 3541 
Q 3450 3153 3228 2886 
Q 3006 2619 2597 2516 
z
" transform="scale(0.015625)"/>
       </defs>
       <use xlink:href="#DejaVuSans-33"/>
      </g>
     </g>
    </g>
    <g id="xtick_5">
     <g id="line2d_9">
      <path d="M 398.816989 328.36 
L 398.816989 38.04 
" clip-path="url(#p4b204ef8cc)" style="fill: none; stroke: #b0b0b0; stroke-width: 0.8; stroke-linecap: square"/>
     </g>
     <g id="line2d_10">
      <g>
       <use xlink:href="#mf829b74c11" x="398.816989" y="328.36" style="stroke: #000000; stroke-width: 0.8"/>
      </g>
     </g>
     <g id="text_5">
      <!-- 4 -->
      <g transform="translate(395.635739 342.958438) scale(0.1 -0.1)">
       <defs>
        <path id="DejaVuSans-34" d="M 2419 4116 
L 825 1625 
L 2419 1625 
L 2419 4116 
z
M 2253 4666 
L 3047 4666 
L 3047 1625 
L 3713 1625 
L 3713 1100 
L 3047 1100 
L 3047 0 
L 2419 0 
L 2419 1100 
L 313 1100 
L 313 1709 
L 2253 4666 
z
" transform="scale(0.015625)"/>
       </defs>
       <use xlink:href="#DejaVuSans-34"/>
      </g>
     </g>
    </g>
    <g id="xtick_6">
     <g id="line2d_11">
      <path d="M 478.239716 328.36 
L 478.239716 38.04 
" clip-path="url(#p4b204ef8cc)" style="fill: none; stroke: #b0b0b0; stroke-width: 0.8; stroke-linecap: square"/>
     </g>
     <g id="line2d_12">
      <g>
       <use xlink:href="#mf829b74c11" x="478.239716" y="328.36" style="stroke: #000000; stroke-width: 0.8"/>
      </g>
     </g>
     <g id="text_6">
      <!-- 5 -->
      <g transform="translate(475.058466 342.958438) scale(0.1 -0.1)">
       <defs>
        <path id="DejaVuSans-35" d="M 691 4666 
L 3169 4666 
L 3169 4134 
L 1269 4134 
L 1269 2991 
Q 1406 3038 1543 3061 
Q 1681 3084 1819 3084 
Q 2600 3084 3056 2656 
Q 3513 2228 3513 1497 
Q 3513 744 3044 326 
Q 2575 -91 1722 -91 
Q 1428 -91 1123 -41 
Q 819 9 494 109 
L 494 744 
Q 775 591 1075 516 
Q 1375 441 1709 441 
Q 2250 441 2565 725 
Q 2881 1009 2881 1497 
Q 2881 1984 2565 2268 
Q 2250 2553 1709 2553 
Q 1456 2553 1204 2497 
Q 953 2441 691 2322 
L 691 4666 
z
" transform="scale(0.015625)"/>
       </defs>
       <use xlink:href="#DejaVuSans-35"/>
      </g>
     </g>
    </g>
    <g id="xtick_7">
     <g id="line2d_13">
      <path d="M 557.662443 328.36 
L 557.662443 38.04 
" clip-path="url(#p4b204ef8cc)" style="fill: none; stroke: #b0b0b0; stroke-width: 0.8; stroke-linecap: square"/>
     </g>
     <g id="line2d_14">
      <g>
       <use xlink:href="#mf829b74c11" x="557.662443" y="328.36" style="stroke: #000000; stroke-width: 0.8"/>
      </g>
     </g>
     <g id="text_7">
      <!-- 6 -->
      <g transform="translate(554.481193 342.958438) scale(0.1 -0.1)">
       <defs>
        <path id="DejaVuSans-36" d="M 2113 2584 
Q 1688 2584 1439 2293 
Q 1191 2003 1191 1497 
Q 1191 994 1439 701 
Q 1688 409 2113 409 
Q 2538 409 2786 701 
Q 3034 994 3034 1497 
Q 3034 2003 2786 2293 
Q 2538 2584 2113 2584 
z
M 3366 4563 
L 3366 3988 
Q 3128 4100 2886 4159 
Q 2644 4219 2406 4219 
Q 1781 4219 1451 3797 
Q 1122 3375 1075 2522 
Q 1259 2794 1537 2939 
Q 1816 3084 2150 3084 
Q 2853 3084 3261 2657 
Q 3669 2231 3669 1497 
Q 3669 778 3244 343 
Q 2819 -91 2113 -91 
Q 1303 -91 875 529 
Q 447 1150 447 2328 
Q 447 3434 972 4092 
Q 1497 4750 2381 4750 
Q 2619 4750 2861 4703 
Q 3103 4656 3366 4563 
z
" transform="scale(0.015625)"/>
       </defs>
       <use xlink:href="#DejaVuSans-36"/>
      </g>
     </g>
    </g>
    <g id="xtick_8">
     <g id="line2d_15">
      <path d="M 637.08517 328.36 
L 637.08517 38.04 
" clip-path="url(#p4b204ef8cc)" style="fill: none; stroke: #b0b0b0; stroke-width: 0.8; stroke-linecap: square"/>
     </g>
     <g id="line2d_16">
      <g>
       <use xlink:href="#mf829b74c11" x="637.08517" y="328.36" style="stroke: #000000; stroke-width: 0.8"/>
      </g>
     </g>
     <g id="text_8">
      <!-- 7 -->
      <g transform="translate(633.90392 342.958438) scale(0.1 -0.1)">
       <defs>
        <path id="DejaVuSans-37" d="M 525 4666 
L 3525 4666 
L 3525 4397 
L 1831 0 
L 1172 0 
L 2766 4134 
L 525 4134 
L 525 4666 
z
" transform="scale(0.015625)"/>
       </defs>
       <use xlink:href="#DejaVuSans-37"/>
      </g>
     </g>
    </g>
   </g>
   <g id="matplotlib.axis_2">
    <g id="ytick_1">
     <g id="line2d_17">
      <path d="M 53.328125 315.163636 
L 664.883125 315.163636 
" clip-path="url(#p4b204ef8cc)" style="fill: none; stroke: #b0b0b0; stroke-width: 0.8; stroke-linecap: square"/>
     </g>
     <g id="line2d_18">
      <defs>
       <path id="m6e09cf5e02" d="M 0 0 
L -3.5 0 
" style="stroke: #000000; stroke-width: 0.8"/>
      </defs>
      <g>
       <use xlink:href="#m6e09cf5e02" x="53.328125" y="315.163636" style="stroke: #000000; stroke-width: 0.8"/>
      </g>
     </g>
     <g id="text_9">
      <!-- 0 -->
      <g transform="translate(39.965625 318.962855) scale(0.1 -0.1)">
       <use xlink:href="#DejaVuSans-30"/>
      </g>
     </g>
    </g>
    <g id="ytick_2">
     <g id="line2d_19">
      <path d="M 53.328125 262.382404 
L 664.883125 262.382404 
" clip-path="url(#p4b204ef8cc)" style="fill: none; stroke: #b0b0b0; stroke-width: 0.8; stroke-linecap: square"/>
     </g>
     <g id="line2d_20">
      <g>
       <use xlink:href="#m6e09cf5e02" x="53.328125" y="262.382404" style="stroke: #000000; stroke-width: 0.8"/>
      </g>
     </g>
     <g id="text_10">
      <!-- 20 -->
      <g transform="translate(33.603125 266.181623) scale(0.1 -0.1)">
       <use xlink:href="#DejaVuSans-32"/>
       <use xlink:href="#DejaVuSans-30" x="63.623047"/>
      </g>
     </g>
    </g>
    <g id="ytick_3">
     <g id="line2d_21">
      <path d="M 53.328125 209.601172 
L 664.883125 209.601172 
" clip-path="url(#p4b204ef8cc)" style="fill: none; stroke: #b0b0b0; stroke-width: 0.8; stroke-linecap: square"/>
     </g>
     <g id="line2d_22">
      <g>
       <use xlink:href="#m6e09cf5e02" x="53.328125" y="209.601172" style="stroke: #000000; stroke-width: 0.8"/>
      </g>
     </g>
     <g id="text_11">
      <!-- 40 -->
      <g transform="translate(33.603125 213.400391) scale(0.1 -0.1)">
       <use xlink:href="#DejaVuSans-34"/>
       <use xlink:href="#DejaVuSans-30" x="63.623047"/>
      </g>
     </g>
    </g>
    <g id="ytick_4">
     <g id="line2d_23">
      <path d="M 53.328125 156.81994 
L 664.883125 156.81994 
" clip-path="url(#p4b204ef8cc)" style="fill: none; stroke: #b0b0b0; stroke-width: 0.8; stroke-linecap: square"/>
     </g>
     <g id="line2d_24">
      <g>
       <use xlink:href="#m6e09cf5e02" x="53.328125" y="156.81994" style="stroke: #000000; stroke-width: 0.8"/>
      </g>
     </g>
     <g id="text_12">
      <!-- 60 -->
      <g transform="translate(33.603125 160.619159) scale(0.1 -0.1)">
       <use xlink:href="#DejaVuSans-36"/>
       <use xlink:href="#DejaVuSans-30" x="63.623047"/>
      </g>
     </g>
    </g>
    <g id="ytick_5">
     <g id="line2d_25">
      <path d="M 53.328125 104.038708 
L 664.883125 104.038708 
" clip-path="url(#p4b204ef8cc)" style="fill: none; stroke: #b0b0b0; stroke-width: 0.8; stroke-linecap: square"/>
     </g>
     <g id="line2d_26">
      <g>
       <use xlink:href="#m6e09cf5e02" x="53.328125" y="104.038708" style="stroke: #000000; stroke-width: 0.8"/>
      </g>
     </g>
     <g id="text_13">
      <!-- 80 -->
      <g transform="translate(33.603125 107.837927) scale(0.1 -0.1)">
       <defs>
        <path id="DejaVuSans-38" d="M 2034 2216 
Q 1584 2216 1326 1975 
Q 1069 1734 1069 1313 
Q 1069 891 1326 650 
Q 1584 409 2034 409 
Q 2484 409 2743 651 
Q 3003 894 3003 1313 
Q 3003 1734 2745 1975 
Q 2488 2216 2034 2216 
z
M 1403 2484 
Q 997 2584 770 2862 
Q 544 3141 544 3541 
Q 544 4100 942 4425 
Q 1341 4750 2034 4750 
Q 2731 4750 3128 4425 
Q 3525 4100 3525 3541 
Q 3525 3141 3298 2862 
Q 3072 2584 2669 2484 
Q 3125 2378 3379 2068 
Q 3634 1759 3634 1313 
Q 3634 634 3220 271 
Q 2806 -91 2034 -91 
Q 1263 -91 848 271 
Q 434 634 434 1313 
Q 434 1759 690 2068 
Q 947 2378 1403 2484 
z
M 1172 3481 
Q 1172 3119 1398 2916 
Q 1625 2713 2034 2713 
Q 2441 2713 2670 2916 
Q 2900 3119 2900 3481 
Q 2900 3844 2670 4047 
Q 2441 4250 2034 4250 
Q 1625 4250 1398 4047 
Q 1172 3844 1172 3481 
z
" transform="scale(0.015625)"/>
       </defs>
       <use xlink:href="#DejaVuSans-38"/>
       <use xlink:href="#DejaVuSans-30" x="63.623047"/>
      </g>
     </g>
    </g>
    <g id="ytick_6">
     <g id="line2d_27">
      <path d="M 53.328125 51.257476 
L 664.883125 51.257476 
" clip-path="url(#p4b204ef8cc)" style="fill: none; stroke: #b0b0b0; stroke-width: 0.8; stroke-linecap: square"/>
     </g>
     <g id="line2d_28">
      <g>
       <use xlink:href="#m6e09cf5e02" x="53.328125" y="51.257476" style="stroke: #000000; stroke-width: 0.8"/>
      </g>
     </g>
     <g id="text_14">
      <!-- 100 -->
      <g transform="translate(27.240625 55.056695) scale(0.1 -0.1)">
       <use xlink:href="#DejaVuSans-31"/>
       <use xlink:href="#DejaVuSans-30" x="63.623047"/>
       <use xlink:href="#DejaVuSans-30" x="127.246094"/>
      </g>
     </g>
    </g>
    <g id="text_15">
     <!-- Geschwindigkeit (km/h) -->
     <g transform="translate(21.160938 242.307031) rotate(-90) scale(0.1 -0.1)">
      <defs>
       <path id="DejaVuSans-47" d="M 3809 666 
L 3809 1919 
L 2778 1919 
L 2778 2438 
L 4434 2438 
L 4434 434 
Q 4069 175 3628 42 
Q 3188 -91 2688 -91 
Q 1594 -91 976 548 
Q 359 1188 359 2328 
Q 359 3472 976 4111 
Q 1594 4750 2688 4750 
Q 3144 4750 3555 4637 
Q 3966 4525 4313 4306 
L 4313 3634 
Q 3963 3931 3569 4081 
Q 3175 4231 2741 4231 
Q 1884 4231 1454 3753 
Q 1025 3275 1025 2328 
Q 1025 1384 1454 906 
Q 1884 428 2741 428 
Q 3075 428 3337 486 
Q 3600 544 3809 666 
z
" transform="scale(0.015625)"/>
       <path id="DejaVuSans-65" d="M 3597 1894 
L 3597 1613 
L 953 1613 
Q 991 1019 1311 708 
Q 1631 397 2203 397 
Q 2534 397 2845 478 
Q 3156 559 3463 722 
L 3463 178 
Q 3153 47 2828 -22 
Q 2503 -91 2169 -91 
Q 1331 -91 842 396 
Q 353 884 353 1716 
Q 353 2575 817 3079 
Q 1281 3584 2069 3584 
Q 2775 3584 3186 3129 
Q 3597 2675 3597 1894 
z
M 3022 2063 
Q 3016 2534 2758 2815 
Q 2500 3097 2075 3097 
Q 1594 3097 1305 2825 
Q 1016 2553 972 2059 
L 3022 2063 
z
" transform="scale(0.015625)"/>
       <path id="DejaVuSans-73" d="M 2834 3397 
L 2834 2853 
Q 2591 2978 2328 3040 
Q 2066 3103 1784 3103 
Q 1356 3103 1142 2972 
Q 928 2841 928 2578 
Q 928 2378 1081 2264 
Q 1234 2150 1697 2047 
L 1894 2003 
Q 2506 1872 2764 1633 
Q 3022 1394 3022 966 
Q 3022 478 2636 193 
Q 2250 -91 1575 -91 
Q 1294 -91 989 -36 
Q 684 19 347 128 
L 347 722 
Q 666 556 975 473 
Q 1284 391 1588 391 
Q 1994 391 2212 530 
Q 2431 669 2431 922 
Q 2431 1156 2273 1281 
Q 2116 1406 1581 1522 
L 1381 1569 
Q 847 1681 609 1914 
Q 372 2147 372 2553 
Q 372 3047 722 3315 
Q 1072 3584 1716 3584 
Q 2034 3584 2315 3537 
Q 2597 3491 2834 3397 
z
" transform="scale(0.015625)"/>
       <path id="DejaVuSans-63" d="M 3122 3366 
L 3122 2828 
Q 2878 2963 2633 3030 
Q 2388 3097 2138 3097 
Q 1578 3097 1268 2742 
Q 959 2388 959 1747 
Q 959 1106 1268 751 
Q 1578 397 2138 397 
Q 2388 397 2633 464 
Q 2878 531 3122 666 
L 3122 134 
Q 2881 22 2623 -34 
Q 2366 -91 2075 -91 
Q 1284 -91 818 406 
Q 353 903 353 1747 
Q 353 2603 823 3093 
Q 1294 3584 2113 3584 
Q 2378 3584 2631 3529 
Q 2884 3475 3122 3366 
z
" transform="scale(0.015625)"/>
       <path id="DejaVuSans-68" d="M 3513 2113 
L 3513 0 
L 2938 0 
L 2938 2094 
Q 2938 2591 2744 2837 
Q 2550 3084 2163 3084 
Q 1697 3084 1428 2787 
Q 1159 2491 1159 1978 
L 1159 0 
L 581 0 
L 581 4863 
L 1159 4863 
L 1159 2956 
Q 1366 3272 1645 3428 
Q 1925 3584 2291 3584 
Q 2894 3584 3203 3211 
Q 3513 2838 3513 2113 
z
" transform="scale(0.015625)"/>
       <path id="DejaVuSans-77" d="M 269 3500 
L 844 3500 
L 1563 769 
L 2278 3500 
L 2956 3500 
L 3675 769 
L 4391 3500 
L 4966 3500 
L 4050 0 
L 3372 0 
L 2619 2869 
L 1863 0 
L 1184 0 
L 269 3500 
z
" transform="scale(0.015625)"/>
       <path id="DejaVuSans-69" d="M 603 3500 
L 1178 3500 
L 1178 0 
L 603 0 
L 603 3500 
z
M 603 4863 
L 1178 4863 
L 1178 4134 
L 603 4134 
L 603 4863 
z
" transform="scale(0.015625)"/>
       <path id="DejaVuSans-6e" d="M 3513 2113 
L 3513 0 
L 2938 0 
L 2938 2094 
Q 2938 2591 2744 2837 
Q 2550 3084 2163 3084 
Q 1697 3084 1428 2787 
Q 1159 2491 1159 1978 
L 1159 0 
L 581 0 
L 581 3500 
L 1159 3500 
L 1159 2956 
Q 1366 3272 1645 3428 
Q 1925 3584 2291 3584 
Q 2894 3584 3203 3211 
Q 3513 2838 3513 2113 
z
" transform="scale(0.015625)"/>
       <path id="DejaVuSans-64" d="M 2906 2969 
L 2906 4863 
L 3481 4863 
L 3481 0 
L 2906 0 
L 2906 525 
Q 2725 213 2448 61 
Q 2172 -91 1784 -91 
Q 1150 -91 751 415 
Q 353 922 353 1747 
Q 353 2572 751 3078 
Q 1150 3584 1784 3584 
Q 2172 3584 2448 3432 
Q 2725 3281 2906 2969 
z
M 947 1747 
Q 947 1113 1208 752 
Q 1469 391 1925 391 
Q 2381 391 2643 752 
Q 2906 1113 2906 1747 
Q 2906 2381 2643 2742 
Q 2381 3103 1925 3103 
Q 1469 3103 1208 2742 
Q 947 2381 947 1747 
z
" transform="scale(0.015625)"/>
       <path id="DejaVuSans-67" d="M 2906 1791 
Q 2906 2416 2648 2759 
Q 2391 3103 1925 3103 
Q 1463 3103 1205 2759 
Q 947 2416 947 1791 
Q 947 1169 1205 825 
Q 1463 481 1925 481 
Q 2391 481 2648 825 
Q 2906 1169 2906 1791 
z
M 3481 434 
Q 3481 -459 3084 -895 
Q 2688 -1331 1869 -1331 
Q 1566 -1331 1297 -1286 
Q 1028 -1241 775 -1147 
L 775 -588 
Q 1028 -725 1275 -790 
Q 1522 -856 1778 -856 
Q 2344 -856 2625 -561 
Q 2906 -266 2906 331 
L 2906 616 
Q 2728 306 2450 153 
Q 2172 0 1784 0 
Q 1141 0 747 490 
Q 353 981 353 1791 
Q 353 2603 747 3093 
Q 1141 3584 1784 3584 
Q 2172 3584 2450 3431 
Q 2728 3278 2906 2969 
L 2906 3500 
L 3481 3500 
L 3481 434 
z
" transform="scale(0.015625)"/>
       <path id="DejaVuSans-6b" d="M 581 4863 
L 1159 4863 
L 1159 1991 
L 2875 3500 
L 3609 3500 
L 1753 1863 
L 3688 0 
L 2938 0 
L 1159 1709 
L 1159 0 
L 581 0 
L 581 4863 
z
" transform="scale(0.015625)"/>
       <path id="DejaVuSans-74" d="M 1172 4494 
L 1172 3500 
L 2356 3500 
L 2356 3053 
L 1172 3053 
L 1172 1153 
Q 1172 725 1289 603 
Q 1406 481 1766 481 
L 2356 481 
L 2356 0 
L 1766 0 
Q 1100 0 847 248 
Q 594 497 594 1153 
L 594 3053 
L 172 3053 
L 172 3500 
L 594 3500 
L 594 4494 
L 1172 4494 
z
" transform="scale(0.015625)"/>
       <path id="DejaVuSans-20" transform="scale(0.015625)"/>
       <path id="DejaVuSans-28" d="M 1984 4856 
Q 1566 4138 1362 3434 
Q 1159 2731 1159 2009 
Q 1159 1288 1364 580 
Q 1569 -128 1984 -844 
L 1484 -844 
Q 1016 -109 783 600 
Q 550 1309 550 2009 
Q 550 2706 781 3412 
Q 1013 4119 1484 4856 
L 1984 4856 
z
" transform="scale(0.015625)"/>
       <path id="DejaVuSans-6d" d="M 3328 2828 
Q 3544 3216 3844 3400 
Q 4144 3584 4550 3584 
Q 5097 3584 5394 3201 
Q 5691 2819 5691 2113 
L 5691 0 
L 5113 0 
L 5113 2094 
Q 5113 2597 4934 2840 
Q 4756 3084 4391 3084 
Q 3944 3084 3684 2787 
Q 3425 2491 3425 1978 
L 3425 0 
L 2847 0 
L 2847 2094 
Q 2847 2600 2669 2842 
Q 2491 3084 2119 3084 
Q 1678 3084 1418 2786 
Q 1159 2488 1159 1978 
L 1159 0 
L 581 0 
L 581 3500 
L 1159 3500 
L 1159 2956 
Q 1356 3278 1631 3431 
Q 1906 3584 2284 3584 
Q 2666 3584 2933 3390 
Q 3200 3197 3328 2828 
z
" transform="scale(0.015625)"/>
       <path id="DejaVuSans-2f" d="M 1625 4666 
L 2156 4666 
L 531 -594 
L 0 -594 
L 1625 4666 
z
" transform="scale(0.015625)"/>
       <path id="DejaVuSans-29" d="M 513 4856 
L 1013 4856 
Q 1481 4119 1714 3412 
Q 1947 2706 1947 2009 
Q 1947 1309 1714 600 
Q 1481 -109 1013 -844 
L 513 -844 
Q 928 -128 1133 580 
Q 1338 1288 1338 2009 
Q 1338 2731 1133 3434 
Q 928 4138 513 4856 
z
" transform="scale(0.015625)"/>
      </defs>
      <use xlink:href="#DejaVuSans-47"/>
      <use xlink:href="#DejaVuSans-65" x="77.490234"/>
      <use xlink:href="#DejaVuSans-73" x="139.013672"/>
      <use xlink:href="#DejaVuSans-63" x="191.113281"/>
      <use xlink:href="#DejaVuSans-68" x="246.09375"/>
      <use xlink:href="#DejaVuSans-77" x="309.472656"/>
      <use xlink:href="#DejaVuSans-69" x="391.259766"/>
      <use xlink:href="#DejaVuSans-6e" x="419.042969"/>
      <use xlink:href="#DejaVuSans-64" x="482.421875"/>
      <use xlink:href="#DejaVuSans-69" x="545.898438"/>
      <use xlink:href="#DejaVuSans-67" x="573.681641"/>
      <use xlink:href="#DejaVuSans-6b" x="637.158203"/>
      <use xlink:href="#DejaVuSans-65" x="691.443359"/>
      <use xlink:href="#DejaVuSans-69" x="752.966797"/>
      <use xlink:href="#DejaVuSans-74" x="780.75"/>
      <use xlink:href="#DejaVuSans-20" x="819.958984"/>
      <use xlink:href="#DejaVuSans-28" x="851.746094"/>
      <use xlink:href="#DejaVuSans-6b" x="890.759766"/>
      <use xlink:href="#DejaVuSans-6d" x="948.669922"/>
      <use xlink:href="#DejaVuSans-2f" x="1046.082031"/>
      <use xlink:href="#DejaVuSans-68" x="1079.773438"/>
      <use xlink:href="#DejaVuSans-29" x="1143.152344"/>
     </g>
    </g>
   </g>
   <g id="line2d_29">
    <path d="M 81.12608 315.163636 
L 86.741828 312.497704 
L 92.357576 309.831772 
L 97.973325 307.16584 
L 103.589073 304.499908 
L 109.204822 301.833976 
L 114.82057 299.168044 
L 120.436318 296.502112 
L 126.052067 293.83618 
L 131.667815 291.170248 
L 137.283563 288.504316 
L 142.899312 285.838384 
L 148.51506 283.172452 
L 154.130809 280.50652 
L 159.746557 277.840588 
L 165.362305 275.174656 
L 170.978054 272.508724 
L 176.593802 269.842792 
L 182.209551 267.17686 
L 187.825299 264.510927 
L 193.441047 261.844995 
L 199.056796 259.179063 
L 204.672544 256.513131 
L 210.288293 253.847199 
L 215.904041 251.181267 
L 221.519789 248.515335 
L 227.135538 245.849403 
L 232.751286 243.183471 
L 238.367035 240.517539 
L 243.982783 237.851607 
L 249.598531 235.185675 
L 255.21428 232.519743 
L 260.830028 229.853811 
L 266.445777 227.187879 
L 272.061525 224.521947 
L 277.677273 221.856015 
L 283.293022 219.190083 
L 288.90877 216.524151 
L 294.524518 213.858219 
L 300.140267 211.192287 
L 305.756015 208.526354 
L 311.371764 205.860422 
L 316.987512 203.19449 
L 322.60326 200.528558 
L 328.219009 197.862626 
L 333.834757 195.196694 
L 339.450506 192.530762 
L 345.066254 189.86483 
L 350.682002 187.198898 
L 356.297751 184.532966 
L 361.913499 181.867034 
L 367.529248 179.201102 
L 373.144996 176.53517 
L 378.760744 173.869238 
L 384.376493 171.203306 
L 389.992241 168.537374 
L 395.60799 165.871442 
L 401.223738 163.20551 
L 406.839486 160.539578 
L 412.455235 157.873646 
L 418.070983 155.207713 
L 423.686732 152.541781 
L 429.30248 149.875849 
L 434.918228 147.209917 
L 440.533977 144.543985 
L 446.149725 141.878053 
L 451.765473 139.212121 
L 457.381222 136.546189 
L 462.99697 133.880257 
L 468.612719 131.214325 
L 474.228467 128.548393 
L 479.844215 125.882461 
L 485.459964 123.216529 
L 491.075712 120.550597 
L 496.691461 117.884665 
L 502.307209 115.218733 
L 507.922957 112.552801 
L 513.538706 109.886869 
L 519.154454 107.220937 
L 524.770203 104.555005 
L 530.385951 101.889073 
L 536.001699 99.22314 
L 541.617448 96.557208 
L 547.233196 93.891276 
L 552.848945 91.225344 
L 558.464693 88.559412 
L 564.080441 85.89348 
L 569.69619 83.227548 
L 575.311938 80.561616 
L 580.927687 77.895684 
L 586.543435 75.229752 
L 592.159183 72.56382 
L 597.774932 69.897888 
L 603.39068 67.231956 
L 609.006428 64.566024 
L 614.622177 61.900092 
L 620.237925 59.23416 
L 625.853674 56.568228 
L 631.469422 53.902296 
L 637.08517 51.236364 
" clip-path="url(#p4b204ef8cc)" style="fill: none; stroke: #0000ff; stroke-width: 1.5; stroke-linecap: square"/>
   </g>
   <g id="patch_3">
    <path d="M 53.328125 328.36 
L 53.328125 38.04 
" style="fill: none; stroke: #000000; stroke-width: 0.8; stroke-linejoin: miter; stroke-linecap: square"/>
   </g>
   <g id="patch_4">
    <path d="M 664.883125 328.36 
L 664.883125 38.04 
" style="fill: none; stroke: #000000; stroke-width: 0.8; stroke-linejoin: miter; stroke-linecap: square"/>
   </g>
   <g id="patch_5">
    <path d="M 53.328125 328.36 
L 664.883125 328.36 
" style="fill: none; stroke: #000000; stroke-width: 0.8; stroke-linejoin: miter; stroke-linecap: square"/>
   </g>
   <g id="patch_6">
    <path d="M 53.328125 38.04 
L 664.883125 38.04 
" style="fill: none; stroke: #000000; stroke-width: 0.8; stroke-linejoin: miter; stroke-linecap: square"/>
   </g>
   <g id="text_16">
    <!-- Geschwindigkeit und zurückgelegte Strecke -->
    <g transform="translate(227.634375 32.04) scale(0.12 -0.12)">
     <defs>
      <path id="DejaVuSans-75" d="M 544 1381 
L 544 3500 
L 1119 3500 
L 1119 1403 
Q 1119 906 1312 657 
Q 1506 409 1894 409 
Q 2359 409 2629 706 
Q 2900 1003 2900 1516 
L 2900 3500 
L 3475 3500 
L 3475 0 
L 2900 0 
L 2900 538 
Q 2691 219 2414 64 
Q 2138 -91 1772 -91 
Q 1169 -91 856 284 
Q 544 659 544 1381 
z
M 1991 3584 
L 1991 3584 
z
" transform="scale(0.015625)"/>
      <path id="DejaVuSans-7a" d="M 353 3500 
L 3084 3500 
L 3084 2975 
L 922 459 
L 3084 459 
L 3084 0 
L 275 0 
L 275 525 
L 2438 3041 
L 353 3041 
L 353 3500 
z
" transform="scale(0.015625)"/>
      <path id="DejaVuSans-72" d="M 2631 2963 
Q 2534 3019 2420 3045 
Q 2306 3072 2169 3072 
Q 1681 3072 1420 2755 
Q 1159 2438 1159 1844 
L 1159 0 
L 581 0 
L 581 3500 
L 1159 3500 
L 1159 2956 
Q 1341 3275 1631 3429 
Q 1922 3584 2338 3584 
Q 2397 3584 2469 3576 
Q 2541 3569 2628 3553 
L 2631 2963 
z
" transform="scale(0.015625)"/>
      <path id="DejaVuSans-fc" d="M 544 1381 
L 544 3500 
L 1119 3500 
L 1119 1403 
Q 1119 906 1312 657 
Q 1506 409 1894 409 
Q 2359 409 2629 706 
Q 2900 1003 2900 1516 
L 2900 3500 
L 3475 3500 
L 3475 0 
L 2900 0 
L 2900 538 
Q 2691 219 2414 64 
Q 2138 -91 1772 -91 
Q 1169 -91 856 284 
Q 544 659 544 1381 
z
M 1991 3584 
L 1991 3584 
z
M 2278 4850 
L 2912 4850 
L 2912 4219 
L 2278 4219 
L 2278 4850 
z
M 1056 4850 
L 1690 4850 
L 1690 4219 
L 1056 4219 
L 1056 4850 
z
" transform="scale(0.015625)"/>
      <path id="DejaVuSans-6c" d="M 603 4863 
L 1178 4863 
L 1178 0 
L 603 0 
L 603 4863 
z
" transform="scale(0.015625)"/>
      <path id="DejaVuSans-53" d="M 3425 4513 
L 3425 3897 
Q 3066 4069 2747 4153 
Q 2428 4238 2131 4238 
Q 1616 4238 1336 4038 
Q 1056 3838 1056 3469 
Q 1056 3159 1242 3001 
Q 1428 2844 1947 2747 
L 2328 2669 
Q 3034 2534 3370 2195 
Q 3706 1856 3706 1288 
Q 3706 609 3251 259 
Q 2797 -91 1919 -91 
Q 1588 -91 1214 -16 
Q 841 59 441 206 
L 441 856 
Q 825 641 1194 531 
Q 1563 422 1919 422 
Q 2459 422 2753 634 
Q 3047 847 3047 1241 
Q 3047 1584 2836 1778 
Q 2625 1972 2144 2069 
L 1759 2144 
Q 1053 2284 737 2584 
Q 422 2884 422 3419 
Q 422 4038 858 4394 
Q 1294 4750 2059 4750 
Q 2388 4750 2728 4690 
Q 3069 4631 3425 4513 
z
" transform="scale(0.015625)"/>
     </defs>
     <use xlink:href="#DejaVuSans-47"/>
     <use xlink:href="#DejaVuSans-65" x="77.490234"/>
     <use xlink:href="#DejaVuSans-73" x="139.013672"/>
     <use xlink:href="#DejaVuSans-63" x="191.113281"/>
     <use xlink:href="#DejaVuSans-68" x="246.09375"/>
     <use xlink:href="#DejaVuSans-77" x="309.472656"/>
     <use xlink:href="#DejaVuSans-69" x="391.259766"/>
     <use xlink:href="#DejaVuSans-6e" x="419.042969"/>
     <use xlink:href="#DejaVuSans-64" x="482.421875"/>
     <use xlink:href="#DejaVuSans-69" x="545.898438"/>
     <use xlink:href="#DejaVuSans-67" x="573.681641"/>
     <use xlink:href="#DejaVuSans-6b" x="637.158203"/>
     <use xlink:href="#DejaVuSans-65" x="691.443359"/>
     <use xlink:href="#DejaVuSans-69" x="752.966797"/>
     <use xlink:href="#DejaVuSans-74" x="780.75"/>
     <use xlink:href="#DejaVuSans-20" x="819.958984"/>
     <use xlink:href="#DejaVuSans-75" x="851.746094"/>
     <use xlink:href="#DejaVuSans-6e" x="915.125"/>
     <use xlink:href="#DejaVuSans-64" x="978.503906"/>
     <use xlink:href="#DejaVuSans-20" x="1041.980469"/>
     <use xlink:href="#DejaVuSans-7a" x="1073.767578"/>
     <use xlink:href="#DejaVuSans-75" x="1126.257812"/>
     <use xlink:href="#DejaVuSans-72" x="1189.636719"/>
     <use xlink:href="#DejaVuSans-fc" x="1230.75"/>
     <use xlink:href="#DejaVuSans-63" x="1294.128906"/>
     <use xlink:href="#DejaVuSans-6b" x="1349.109375"/>
     <use xlink:href="#DejaVuSans-67" x="1407.019531"/>
     <use xlink:href="#DejaVuSans-65" x="1470.496094"/>
     <use xlink:href="#DejaVuSans-6c" x="1532.019531"/>
     <use xlink:href="#DejaVuSans-65" x="1559.802734"/>
     <use xlink:href="#DejaVuSans-67" x="1621.326172"/>
     <use xlink:href="#DejaVuSans-74" x="1684.802734"/>
     <use xlink:href="#DejaVuSans-65" x="1724.011719"/>
     <use xlink:href="#DejaVuSans-20" x="1785.535156"/>
     <use xlink:href="#DejaVuSans-53" x="1817.322266"/>
     <use xlink:href="#DejaVuSans-74" x="1880.798828"/>
     <use xlink:href="#DejaVuSans-72" x="1920.007812"/>
     <use xlink:href="#DejaVuSans-65" x="1958.871094"/>
     <use xlink:href="#DejaVuSans-63" x="2020.394531"/>
     <use xlink:href="#DejaVuSans-6b" x="2075.375"/>
     <use xlink:href="#DejaVuSans-65" x="2129.660156"/>
    </g>
   </g>
   <g id="legend_1">
    <g id="patch_7">
     <path d="M 543.887813 323.36 
L 657.883125 323.36 
Q 659.883125 323.36 659.883125 321.36 
L 659.883125 307.681875 
Q 659.883125 305.681875 657.883125 305.681875 
L 543.887813 305.681875 
Q 541.887813 305.681875 541.887813 307.681875 
L 541.887813 321.36 
Q 541.887813 323.36 543.887813 323.36 
z
" style="fill: #ffffff; opacity: 0.8; stroke: #cccccc; stroke-linejoin: miter"/>
    </g>
    <g id="line2d_30">
     <path d="M 545.887813 313.780313 
L 555.887813 313.780313 
L 565.887813 313.780313 
" style="fill: none; stroke: #0000ff; stroke-width: 1.5; stroke-linecap: square"/>
    </g>
    <g id="text_17">
     <!-- Geschwindigkeit -->
     <g transform="translate(573.887813 317.280313) scale(0.1 -0.1)">
      <use xlink:href="#DejaVuSans-47"/>
      <use xlink:href="#DejaVuSans-65" x="77.490234"/>
      <use xlink:href="#DejaVuSans-73" x="139.013672"/>
      <use xlink:href="#DejaVuSans-63" x="191.113281"/>
      <use xlink:href="#DejaVuSans-68" x="246.09375"/>
      <use xlink:href="#DejaVuSans-77" x="309.472656"/>
      <use xlink:href="#DejaVuSans-69" x="391.259766"/>
      <use xlink:href="#DejaVuSans-6e" x="419.042969"/>
      <use xlink:href="#DejaVuSans-64" x="482.421875"/>
      <use xlink:href="#DejaVuSans-69" x="545.898438"/>
      <use xlink:href="#DejaVuSans-67" x="573.681641"/>
      <use xlink:href="#DejaVuSans-6b" x="637.158203"/>
      <use xlink:href="#DejaVuSans-65" x="691.443359"/>
      <use xlink:href="#DejaVuSans-69" x="752.966797"/>
      <use xlink:href="#DejaVuSans-74" x="780.75"/>
     </g>
    </g>
   </g>
  </g>
  <g id="axes_2">
   <g id="patch_8">
    <path d="M 53.328125 676 
L 664.883125 676 
L 664.883125 385.68 
L 53.328125 385.68 
z
" style="fill: #ffffff"/>
   </g>
   <g id="matplotlib.axis_3">
    <g id="xtick_9">
     <g id="line2d_31">
      <path d="M 81.12608 676 
L 81.12608 385.68 
" clip-path="url(#p4408eb5386)" style="fill: none; stroke: #b0b0b0; stroke-width: 0.8; stroke-linecap: square"/>
     </g>
     <g id="line2d_32">
      <g>
       <use xlink:href="#mf829b74c11" x="81.12608" y="676" style="stroke: #000000; stroke-width: 0.8"/>
      </g>
     </g>
     <g id="text_18">
      <!-- 0 -->
      <g transform="translate(77.94483 690.598438) scale(0.1 -0.1)">
       <use xlink:href="#DejaVuSans-30"/>
      </g>
     </g>
    </g>
    <g id="xtick_10">
     <g id="line2d_33">
      <path d="M 160.548807 676 
L 160.548807 385.68 
" clip-path="url(#p4408eb5386)" style="fill: none; stroke: #b0b0b0; stroke-width: 0.8; stroke-linecap: square"/>
     </g>
     <g id="line2d_34">
      <g>
       <use xlink:href="#mf829b74c11" x="160.548807" y="676" style="stroke: #000000; stroke-width: 0.8"/>
      </g>
     </g>
     <g id="text_19">
      <!-- 1 -->
      <g transform="translate(157.367557 690.598438) scale(0.1 -0.1)">
       <use xlink:href="#DejaVuSans-31"/>
      </g>
     </g>
    </g>
    <g id="xtick_11">
     <g id="line2d_35">
      <path d="M 239.971534 676 
L 239.971534 385.68 
" clip-path="url(#p4408eb5386)" style="fill: none; stroke: #b0b0b0; stroke-width: 0.8; stroke-linecap: square"/>
     </g>
     <g id="line2d_36">
      <g>
       <use xlink:href="#mf829b74c11" x="239.971534" y="676" style="stroke: #000000; stroke-width: 0.8"/>
      </g>
     </g>
     <g id="text_20">
      <!-- 2 -->
      <g transform="translate(236.790284 690.598438) scale(0.1 -0.1)">
       <use xlink:href="#DejaVuSans-32"/>
      </g>
     </g>
    </g>
    <g id="xtick_12">
     <g id="line2d_37">
      <path d="M 319.394261 676 
L 319.394261 385.68 
" clip-path="url(#p4408eb5386)" style="fill: none; stroke: #b0b0b0; stroke-width: 0.8; stroke-linecap: square"/>
     </g>
     <g id="line2d_38">
      <g>
       <use xlink:href="#mf829b74c11" x="319.394261" y="676" style="stroke: #000000; stroke-width: 0.8"/>
      </g>
     </g>
     <g id="text_21">
      <!-- 3 -->
      <g transform="translate(316.213011 690.598438) scale(0.1 -0.1)">
       <use xlink:href="#DejaVuSans-33"/>
      </g>
     </g>
    </g>
    <g id="xtick_13">
     <g id="line2d_39">
      <path d="M 398.816989 676 
L 398.816989 385.68 
" clip-path="url(#p4408eb5386)" style="fill: none; stroke: #b0b0b0; stroke-width: 0.8; stroke-linecap: square"/>
     </g>
     <g id="line2d_40">
      <g>
       <use xlink:href="#mf829b74c11" x="398.816989" y="676" style="stroke: #000000; stroke-width: 0.8"/>
      </g>
     </g>
     <g id="text_22">
      <!-- 4 -->
      <g transform="translate(395.635739 690.598438) scale(0.1 -0.1)">
       <use xlink:href="#DejaVuSans-34"/>
      </g>
     </g>
    </g>
    <g id="xtick_14">
     <g id="line2d_41">
      <path d="M 478.239716 676 
L 478.239716 385.68 
" clip-path="url(#p4408eb5386)" style="fill: none; stroke: #b0b0b0; stroke-width: 0.8; stroke-linecap: square"/>
     </g>
     <g id="line2d_42">
      <g>
       <use xlink:href="#mf829b74c11" x="478.239716" y="676" style="stroke: #000000; stroke-width: 0.8"/>
      </g>
     </g>
     <g id="text_23">
      <!-- 5 -->
      <g transform="translate(475.058466 690.598438) scale(0.1 -0.1)">
       <use xlink:href="#DejaVuSans-35"/>
      </g>
     </g>
    </g>
    <g id="xtick_15">
     <g id="line2d_43">
      <path d="M 557.662443 676 
L 557.662443 385.68 
" clip-path="url(#p4408eb5386)" style="fill: none; stroke: #b0b0b0; stroke-width: 0.8; stroke-linecap: square"/>
     </g>
     <g id="line2d_44">
      <g>
       <use xlink:href="#mf829b74c11" x="557.662443" y="676" style="stroke: #000000; stroke-width: 0.8"/>
      </g>
     </g>
     <g id="text_24">
      <!-- 6 -->
      <g transform="translate(554.481193 690.598438) scale(0.1 -0.1)">
       <use xlink:href="#DejaVuSans-36"/>
      </g>
     </g>
    </g>
    <g id="xtick_16">
     <g id="line2d_45">
      <path d="M 637.08517 676 
L 637.08517 385.68 
" clip-path="url(#p4408eb5386)" style="fill: none; stroke: #b0b0b0; stroke-width: 0.8; stroke-linecap: square"/>
     </g>
     <g id="line2d_46">
      <g>
       <use xlink:href="#mf829b74c11" x="637.08517" y="676" style="stroke: #000000; stroke-width: 0.8"/>
      </g>
     </g>
     <g id="text_25">
      <!-- 7 -->
      <g transform="translate(633.90392 690.598438) scale(0.1 -0.1)">
       <use xlink:href="#DejaVuSans-37"/>
      </g>
     </g>
    </g>
    <g id="text_26">
     <!-- Zeit (s) -->
     <g transform="translate(341.159531 704.276563) scale(0.1 -0.1)">
      <defs>
       <path id="DejaVuSans-5a" d="M 359 4666 
L 4025 4666 
L 4025 4184 
L 1075 531 
L 4097 531 
L 4097 0 
L 288 0 
L 288 481 
L 3238 4134 
L 359 4134 
L 359 4666 
z
" transform="scale(0.015625)"/>
      </defs>
      <use xlink:href="#DejaVuSans-5a"/>
      <use xlink:href="#DejaVuSans-65" x="68.505859"/>
      <use xlink:href="#DejaVuSans-69" x="130.029297"/>
      <use xlink:href="#DejaVuSans-74" x="157.8125"/>
      <use xlink:href="#DejaVuSans-20" x="197.021484"/>
      <use xlink:href="#DejaVuSans-28" x="228.808594"/>
      <use xlink:href="#DejaVuSans-73" x="267.822266"/>
      <use xlink:href="#DejaVuSans-29" x="319.921875"/>
     </g>
    </g>
   </g>
   <g id="matplotlib.axis_4">
    <g id="ytick_7">
     <g id="line2d_47">
      <path d="M 53.328125 662.803636 
L 664.883125 662.803636 
" clip-path="url(#p4408eb5386)" style="fill: none; stroke: #b0b0b0; stroke-width: 0.8; stroke-linecap: square"/>
     </g>
     <g id="line2d_48">
      <g>
       <use xlink:href="#m6e09cf5e02" x="53.328125" y="662.803636" style="stroke: #000000; stroke-width: 0.8"/>
      </g>
     </g>
     <g id="text_27">
      <!-- 0 -->
      <g transform="translate(39.965625 666.602855) scale(0.1 -0.1)">
       <use xlink:href="#DejaVuSans-30"/>
      </g>
     </g>
    </g>
    <g id="ytick_8">
     <g id="line2d_49">
      <path d="M 53.328125 607.383343 
L 664.883125 607.383343 
" clip-path="url(#p4408eb5386)" style="fill: none; stroke: #b0b0b0; stroke-width: 0.8; stroke-linecap: square"/>
     </g>
     <g id="line2d_50">
      <g>
       <use xlink:href="#m6e09cf5e02" x="53.328125" y="607.383343" style="stroke: #000000; stroke-width: 0.8"/>
      </g>
     </g>
     <g id="text_28">
      <!-- 1000 -->
      <g transform="translate(20.878125 611.182561) scale(0.1 -0.1)">
       <use xlink:href="#DejaVuSans-31"/>
       <use xlink:href="#DejaVuSans-30" x="63.623047"/>
       <use xlink:href="#DejaVuSans-30" x="127.246094"/>
       <use xlink:href="#DejaVuSans-30" x="190.869141"/>
      </g>
     </g>
    </g>
    <g id="ytick_9">
     <g id="line2d_51">
      <path d="M 53.328125 551.963049 
L 664.883125 551.963049 
" clip-path="url(#p4408eb5386)" style="fill: none; stroke: #b0b0b0; stroke-width: 0.8; stroke-linecap: square"/>
     </g>
     <g id="line2d_52">
      <g>
       <use xlink:href="#m6e09cf5e02" x="53.328125" y="551.963049" style="stroke: #000000; stroke-width: 0.8"/>
      </g>
     </g>
     <g id="text_29">
      <!-- 2000 -->
      <g transform="translate(20.878125 555.762268) scale(0.1 -0.1)">
       <use xlink:href="#DejaVuSans-32"/>
       <use xlink:href="#DejaVuSans-30" x="63.623047"/>
       <use xlink:href="#DejaVuSans-30" x="127.246094"/>
       <use xlink:href="#DejaVuSans-30" x="190.869141"/>
      </g>
     </g>
    </g>
    <g id="ytick_10">
     <g id="line2d_53">
      <path d="M 53.328125 496.542755 
L 664.883125 496.542755 
" clip-path="url(#p4408eb5386)" style="fill: none; stroke: #b0b0b0; stroke-width: 0.8; stroke-linecap: square"/>
     </g>
     <g id="line2d_54">
      <g>
       <use xlink:href="#m6e09cf5e02" x="53.328125" y="496.542755" style="stroke: #000000; stroke-width: 0.8"/>
      </g>
     </g>
     <g id="text_30">
      <!-- 3000 -->
      <g transform="translate(20.878125 500.341974) scale(0.1 -0.1)">
       <use xlink:href="#DejaVuSans-33"/>
       <use xlink:href="#DejaVuSans-30" x="63.623047"/>
       <use xlink:href="#DejaVuSans-30" x="127.246094"/>
       <use xlink:href="#DejaVuSans-30" x="190.869141"/>
      </g>
     </g>
    </g>
    <g id="ytick_11">
     <g id="line2d_55">
      <path d="M 53.328125 441.122462 
L 664.883125 441.122462 
" clip-path="url(#p4408eb5386)" style="fill: none; stroke: #b0b0b0; stroke-width: 0.8; stroke-linecap: square"/>
     </g>
     <g id="line2d_56">
      <g>
       <use xlink:href="#m6e09cf5e02" x="53.328125" y="441.122462" style="stroke: #000000; stroke-width: 0.8"/>
      </g>
     </g>
     <g id="text_31">
      <!-- 4000 -->
      <g transform="translate(20.878125 444.921681) scale(0.1 -0.1)">
       <use xlink:href="#DejaVuSans-34"/>
       <use xlink:href="#DejaVuSans-30" x="63.623047"/>
       <use xlink:href="#DejaVuSans-30" x="127.246094"/>
       <use xlink:href="#DejaVuSans-30" x="190.869141"/>
      </g>
     </g>
    </g>
    <g id="ytick_12">
     <g id="line2d_57">
      <path d="M 53.328125 385.702168 
L 664.883125 385.702168 
" clip-path="url(#p4408eb5386)" style="fill: none; stroke: #b0b0b0; stroke-width: 0.8; stroke-linecap: square"/>
     </g>
     <g id="line2d_58">
      <g>
       <use xlink:href="#m6e09cf5e02" x="53.328125" y="385.702168" style="stroke: #000000; stroke-width: 0.8"/>
      </g>
     </g>
     <g id="text_32">
      <!-- 5000 -->
      <g transform="translate(20.878125 389.501387) scale(0.1 -0.1)">
       <use xlink:href="#DejaVuSans-35"/>
       <use xlink:href="#DejaVuSans-30" x="63.623047"/>
       <use xlink:href="#DejaVuSans-30" x="127.246094"/>
       <use xlink:href="#DejaVuSans-30" x="190.869141"/>
      </g>
     </g>
    </g>
    <g id="text_33">
     <!-- Kraft (N) -->
     <g transform="translate(14.798438 552.1025) rotate(-90) scale(0.1 -0.1)">
      <defs>
       <path id="DejaVuSans-4b" d="M 628 4666 
L 1259 4666 
L 1259 2694 
L 3353 4666 
L 4166 4666 
L 1850 2491 
L 4331 0 
L 3500 0 
L 1259 2247 
L 1259 0 
L 628 0 
L 628 4666 
z
" transform="scale(0.015625)"/>
       <path id="DejaVuSans-61" d="M 2194 1759 
Q 1497 1759 1228 1600 
Q 959 1441 959 1056 
Q 959 750 1161 570 
Q 1363 391 1709 391 
Q 2188 391 2477 730 
Q 2766 1069 2766 1631 
L 2766 1759 
L 2194 1759 
z
M 3341 1997 
L 3341 0 
L 2766 0 
L 2766 531 
Q 2569 213 2275 61 
Q 1981 -91 1556 -91 
Q 1019 -91 701 211 
Q 384 513 384 1019 
Q 384 1609 779 1909 
Q 1175 2209 1959 2209 
L 2766 2209 
L 2766 2266 
Q 2766 2663 2505 2880 
Q 2244 3097 1772 3097 
Q 1472 3097 1187 3025 
Q 903 2953 641 2809 
L 641 3341 
Q 956 3463 1253 3523 
Q 1550 3584 1831 3584 
Q 2591 3584 2966 3190 
Q 3341 2797 3341 1997 
z
" transform="scale(0.015625)"/>
       <path id="DejaVuSans-66" d="M 2375 4863 
L 2375 4384 
L 1825 4384 
Q 1516 4384 1395 4259 
Q 1275 4134 1275 3809 
L 1275 3500 
L 2222 3500 
L 2222 3053 
L 1275 3053 
L 1275 0 
L 697 0 
L 697 3053 
L 147 3053 
L 147 3500 
L 697 3500 
L 697 3744 
Q 697 4328 969 4595 
Q 1241 4863 1831 4863 
L 2375 4863 
z
" transform="scale(0.015625)"/>
       <path id="DejaVuSans-4e" d="M 628 4666 
L 1478 4666 
L 3547 763 
L 3547 4666 
L 4159 4666 
L 4159 0 
L 3309 0 
L 1241 3903 
L 1241 0 
L 628 0 
L 628 4666 
z
" transform="scale(0.015625)"/>
      </defs>
      <use xlink:href="#DejaVuSans-4b"/>
      <use xlink:href="#DejaVuSans-72" x="65.576172"/>
      <use xlink:href="#DejaVuSans-61" x="106.689453"/>
      <use xlink:href="#DejaVuSans-66" x="167.96875"/>
      <use xlink:href="#DejaVuSans-74" x="201.423828"/>
      <use xlink:href="#DejaVuSans-20" x="240.632812"/>
      <use xlink:href="#DejaVuSans-28" x="272.419922"/>
      <use xlink:href="#DejaVuSans-4e" x="311.433594"/>
      <use xlink:href="#DejaVuSans-29" x="386.238281"/>
     </g>
    </g>
   </g>
   <g id="line2d_59">
    <path d="M 81.12608 398.876364 
L 86.741828 398.876364 
L 92.357576 398.876364 
L 97.973325 398.876364 
L 103.589073 398.876364 
L 109.204822 398.876364 
L 114.82057 398.876364 
L 120.436318 398.876364 
L 126.052067 398.876364 
L 131.667815 398.876364 
L 137.283563 398.876364 
L 142.899312 398.876364 
L 148.51506 398.876364 
L 154.130809 398.876364 
L 159.746557 398.876364 
L 165.362305 398.876364 
L 170.978054 398.876364 
L 176.593802 398.876364 
L 182.209551 398.876364 
L 187.825299 398.876364 
L 193.441047 398.876364 
L 199.056796 398.876364 
L 204.672544 398.876364 
L 210.288293 398.876364 
L 215.904041 398.876364 
L 221.519789 398.876364 
L 227.135538 398.876364 
L 232.751286 398.876364 
L 238.367035 398.876364 
L 243.982783 398.876364 
L 249.598531 398.876364 
L 255.21428 398.876364 
L 260.830028 398.876364 
L 266.445777 398.876364 
L 272.061525 398.876364 
L 277.677273 398.876364 
L 283.293022 398.876364 
L 288.90877 398.876364 
L 294.524518 398.876364 
L 300.140267 398.876364 
L 305.756015 398.876364 
L 311.371764 398.876364 
L 316.987512 398.876364 
L 322.60326 398.876364 
L 328.219009 398.876364 
L 333.834757 398.876364 
L 339.450506 398.876364 
L 345.066254 398.876364 
L 350.682002 398.876364 
L 356.297751 398.876364 
L 361.913499 398.876364 
L 367.529248 398.876364 
L 373.144996 398.876364 
L 378.760744 398.876364 
L 384.376493 398.876364 
L 389.992241 398.876364 
L 395.60799 398.876364 
L 401.223738 398.876364 
L 406.839486 398.876364 
L 412.455235 398.876364 
L 418.070983 398.876364 
L 423.686732 398.876364 
L 429.30248 398.876364 
L 434.918228 398.876364 
L 440.533977 398.876364 
L 446.149725 398.876364 
L 451.765473 398.876364 
L 457.381222 398.876364 
L 462.99697 398.876364 
L 468.612719 398.876364 
L 474.228467 398.876364 
L 479.844215 398.876364 
L 485.459964 398.876364 
L 491.075712 398.876364 
L 496.691461 398.876364 
L 502.307209 398.876364 
L 507.922957 398.876364 
L 513.538706 398.876364 
L 519.154454 398.876364 
L 524.770203 398.876364 
L 530.385951 398.876364 
L 536.001699 398.876364 
L 541.617448 398.876364 
L 547.233196 398.876364 
L 552.848945 398.876364 
L 558.464693 398.876364 
L 564.080441 398.876364 
L 569.69619 398.876364 
L 575.311938 398.876364 
L 580.927687 398.876364 
L 586.543435 398.876364 
L 592.159183 398.876364 
L 597.774932 398.876364 
L 603.39068 398.876364 
L 609.006428 398.876364 
L 614.622177 398.876364 
L 620.237925 398.876364 
L 625.853674 398.876364 
L 631.469422 398.876364 
L 637.08517 398.876364 
" clip-path="url(#p4408eb5386)" style="fill: none; stroke: #008000; stroke-width: 1.5; stroke-linecap: square"/>
   </g>
   <g id="line2d_60">
    <path d="M 81.12608 662.803636 
L 86.741828 662.802033 
L 92.357576 662.797222 
L 97.973325 662.789203 
L 103.589073 662.777977 
L 109.204822 662.763544 
L 114.82057 662.745904 
L 120.436318 662.725056 
L 126.052067 662.701 
L 131.667815 662.673738 
L 137.283563 662.643267 
L 142.899312 662.60959 
L 148.51506 662.572705 
L 154.130809 662.532613 
L 159.746557 662.489313 
L 165.362305 662.442806 
L 170.978054 662.393092 
L 176.593802 662.34017 
L 182.209551 662.284041 
L 187.825299 662.224704 
L 193.441047 662.162161 
L 199.056796 662.096409 
L 204.672544 662.027451 
L 210.288293 661.955285 
L 215.904041 661.879911 
L 221.519789 661.80133 
L 227.135538 661.719542 
L 232.751286 661.634547 
L 238.367035 661.546344 
L 243.982783 661.454934 
L 249.598531 661.360316 
L 255.21428 661.262491 
L 260.830028 661.161458 
L 266.445777 661.057219 
L 272.061525 660.949771 
L 277.677273 660.839117 
L 283.293022 660.725255 
L 288.90877 660.608186 
L 294.524518 660.487909 
L 300.140267 660.364425 
L 305.756015 660.237733 
L 311.371764 660.107834 
L 316.987512 659.974728 
L 322.60326 659.838415 
L 328.219009 659.698894 
L 333.834757 659.556165 
L 339.450506 659.41023 
L 345.066254 659.261086 
L 350.682002 659.108736 
L 356.297751 658.953178 
L 361.913499 658.794413 
L 367.529248 658.63244 
L 373.144996 658.46726 
L 378.760744 658.298873 
L 384.376493 658.127278 
L 389.992241 657.952476 
L 395.60799 657.774466 
L 401.223738 657.593249 
L 406.839486 657.408825 
L 412.455235 657.221194 
L 418.070983 657.030355 
L 423.686732 656.836308 
L 429.30248 656.639054 
L 434.918228 656.438593 
L 440.533977 656.234925 
L 446.149725 656.028049 
L 451.765473 655.817965 
L 457.381222 655.604675 
L 462.99697 655.388177 
L 468.612719 655.168471 
L 474.228467 654.945558 
L 479.844215 654.719438 
L 485.459964 654.49011 
L 491.075712 654.257576 
L 496.691461 654.021833 
L 502.307209 653.782883 
L 507.922957 653.540726 
L 513.538706 653.295362 
L 519.154454 653.04679 
L 524.770203 652.795011 
L 530.385951 652.540024 
L 536.001699 652.28183 
L 541.617448 652.020429 
L 547.233196 651.75582 
L 552.848945 651.488004 
L 558.464693 651.21698 
L 564.080441 650.94275 
L 569.69619 650.665311 
L 575.311938 650.384666 
L 580.927687 650.100813 
L 586.543435 649.813752 
L 592.159183 649.523484 
L 597.774932 649.230009 
L 603.39068 648.933327 
L 609.006428 648.633437 
L 614.622177 648.330339 
L 620.237925 648.024035 
L 625.853674 647.714523 
L 631.469422 647.401803 
L 637.08517 647.085877 
" clip-path="url(#p4408eb5386)" style="fill: none; stroke: #ff0000; stroke-width: 1.5; stroke-linecap: square"/>
   </g>
   <g id="line2d_61">
    <path d="M 81.12608 653.017521 
L 86.741828 653.017521 
L 92.357576 653.017521 
L 97.973325 653.017521 
L 103.589073 653.017521 
L 109.204822 653.017521 
L 114.82057 653.017521 
L 120.436318 653.017521 
L 126.052067 653.017521 
L 131.667815 653.017521 
L 137.283563 653.017521 
L 142.899312 653.017521 
L 148.51506 653.017521 
L 154.130809 653.017521 
L 159.746557 653.017521 
L 165.362305 653.017521 
L 170.978054 653.017521 
L 176.593802 653.017521 
L 182.209551 653.017521 
L 187.825299 653.017521 
L 193.441047 653.017521 
L 199.056796 653.017521 
L 204.672544 653.017521 
L 210.288293 653.017521 
L 215.904041 653.017521 
L 221.519789 653.017521 
L 227.135538 653.017521 
L 232.751286 653.017521 
L 238.367035 653.017521 
L 243.982783 653.017521 
L 249.598531 653.017521 
L 255.21428 653.017521 
L 260.830028 653.017521 
L 266.445777 653.017521 
L 272.061525 653.017521 
L 277.677273 653.017521 
L 283.293022 653.017521 
L 288.90877 653.017521 
L 294.524518 653.017521 
L 300.140267 653.017521 
L 305.756015 653.017521 
L 311.371764 653.017521 
L 316.987512 653.017521 
L 322.60326 653.017521 
L 328.219009 653.017521 
L 333.834757 653.017521 
L 339.450506 653.017521 
L 345.066254 653.017521 
L 350.682002 653.017521 
L 356.297751 653.017521 
L 361.913499 653.017521 
L 367.529248 653.017521 
L 373.144996 653.017521 
L 378.760744 653.017521 
L 384.376493 653.017521 
L 389.992241 653.017521 
L 395.60799 653.017521 
L 401.223738 653.017521 
L 406.839486 653.017521 
L 412.455235 653.017521 
L 418.070983 653.017521 
L 423.686732 653.017521 
L 429.30248 653.017521 
L 434.918228 653.017521 
L 440.533977 653.017521 
L 446.149725 653.017521 
L 451.765473 653.017521 
L 457.381222 653.017521 
L 462.99697 653.017521 
L 468.612719 653.017521 
L 474.228467 653.017521 
L 479.844215 653.017521 
L 485.459964 653.017521 
L 491.075712 653.017521 
L 496.691461 653.017521 
L 502.307209 653.017521 
L 507.922957 653.017521 
L 513.538706 653.017521 
L 519.154454 653.017521 
L 524.770203 653.017521 
L 530.385951 653.017521 
L 536.001699 653.017521 
L 541.617448 653.017521 
L 547.233196 653.017521 
L 552.848945 653.017521 
L 558.464693 653.017521 
L 564.080441 653.017521 
L 569.69619 653.017521 
L 575.311938 653.017521 
L 580.927687 653.017521 
L 586.543435 653.017521 
L 592.159183 653.017521 
L 597.774932 653.017521 
L 603.39068 653.017521 
L 609.006428 653.017521 
L 614.622177 653.017521 
L 620.237925 653.017521 
L 625.853674 653.017521 
L 631.469422 653.017521 
L 637.08517 653.017521 
" clip-path="url(#p4408eb5386)" style="fill: none; stroke: #0000ff; stroke-width: 1.5; stroke-linecap: square"/>
   </g>
   <g id="patch_9">
    <path d="M 53.328125 676 
L 53.328125 385.68 
" style="fill: none; stroke: #000000; stroke-width: 0.8; stroke-linejoin: miter; stroke-linecap: square"/>
   </g>
   <g id="patch_10">
    <path d="M 664.883125 676 
L 664.883125 385.68 
" style="fill: none; stroke: #000000; stroke-width: 0.8; stroke-linejoin: miter; stroke-linecap: square"/>
   </g>
   <g id="patch_11">
    <path d="M 53.328125 676 
L 664.883125 676 
" style="fill: none; stroke: #000000; stroke-width: 0.8; stroke-linejoin: miter; stroke-linecap: square"/>
   </g>
   <g id="patch_12">
    <path d="M 53.328125 385.68 
L 664.883125 385.68 
" style="fill: none; stroke: #000000; stroke-width: 0.8; stroke-linejoin: miter; stroke-linecap: square"/>
   </g>
   <g id="text_34">
    <!-- Wirkende Kräfte -->
    <g transform="translate(310.88625 379.68) scale(0.12 -0.12)">
     <defs>
      <path id="DejaVuSans-57" d="M 213 4666 
L 850 4666 
L 1831 722 
L 2809 4666 
L 3519 4666 
L 4500 722 
L 5478 4666 
L 6119 4666 
L 4947 0 
L 4153 0 
L 3169 4050 
L 2175 0 
L 1381 0 
L 213 4666 
z
" transform="scale(0.015625)"/>
      <path id="DejaVuSans-e4" d="M 2194 1759 
Q 1497 1759 1228 1600 
Q 959 1441 959 1056 
Q 959 750 1161 570 
Q 1363 391 1709 391 
Q 2188 391 2477 730 
Q 2766 1069 2766 1631 
L 2766 1759 
L 2194 1759 
z
M 3341 1997 
L 3341 0 
L 2766 0 
L 2766 531 
Q 2569 213 2275 61 
Q 1981 -91 1556 -91 
Q 1019 -91 701 211 
Q 384 513 384 1019 
Q 384 1609 779 1909 
Q 1175 2209 1959 2209 
L 2766 2209 
L 2766 2266 
Q 2766 2663 2505 2880 
Q 2244 3097 1772 3097 
Q 1472 3097 1187 3025 
Q 903 2953 641 2809 
L 641 3341 
Q 956 3463 1253 3523 
Q 1550 3584 1831 3584 
Q 2591 3584 2966 3190 
Q 3341 2797 3341 1997 
z
M 2150 4850 
L 2784 4850 
L 2784 4219 
L 2150 4219 
L 2150 4850 
z
M 928 4850 
L 1562 4850 
L 1562 4219 
L 928 4219 
L 928 4850 
z
" transform="scale(0.015625)"/>
     </defs>
     <use xlink:href="#DejaVuSans-57"/>
     <use xlink:href="#DejaVuSans-69" x="96.626953"/>
     <use xlink:href="#DejaVuSans-72" x="124.410156"/>
     <use xlink:href="#DejaVuSans-6b" x="165.523438"/>
     <use xlink:href="#DejaVuSans-65" x="219.808594"/>
     <use xlink:href="#DejaVuSans-6e" x="281.332031"/>
     <use xlink:href="#DejaVuSans-64" x="344.710938"/>
     <use xlink:href="#DejaVuSans-65" x="408.1875"/>
     <use xlink:href="#DejaVuSans-20" x="469.710938"/>
     <use xlink:href="#DejaVuSans-4b" x="501.498047"/>
     <use xlink:href="#DejaVuSans-72" x="567.074219"/>
     <use xlink:href="#DejaVuSans-e4" x="608.1875"/>
     <use xlink:href="#DejaVuSans-66" x="669.466797"/>
     <use xlink:href="#DejaVuSans-74" x="702.921875"/>
     <use xlink:href="#DejaVuSans-65" x="742.130859"/>
    </g>
   </g>
   <g id="legend_2">
    <g id="patch_13">
     <path d="M 551.370625 554.357188 
L 657.883125 554.357188 
Q 659.883125 554.357188 659.883125 552.357188 
L 659.883125 509.322813 
Q 659.883125 507.322813 657.883125 507.322813 
L 551.370625 507.322813 
Q 549.370625 507.322813 549.370625 509.322813 
L 549.370625 552.357188 
Q 549.370625 554.357188 551.370625 554.357188 
z
" style="fill: #ffffff; opacity: 0.8; stroke: #cccccc; stroke-linejoin: miter"/>
    </g>
    <g id="line2d_62">
     <path d="M 553.370625 515.42125 
L 563.370625 515.42125 
L 573.370625 515.42125 
" style="fill: none; stroke: #008000; stroke-width: 1.5; stroke-linecap: square"/>
    </g>
    <g id="text_35">
     <!-- Antriebskraft -->
     <g transform="translate(581.370625 518.92125) scale(0.1 -0.1)">
      <defs>
       <path id="DejaVuSans-41" d="M 2188 4044 
L 1331 1722 
L 3047 1722 
L 2188 4044 
z
M 1831 4666 
L 2547 4666 
L 4325 0 
L 3669 0 
L 3244 1197 
L 1141 1197 
L 716 0 
L 50 0 
L 1831 4666 
z
" transform="scale(0.015625)"/>
       <path id="DejaVuSans-62" d="M 3116 1747 
Q 3116 2381 2855 2742 
Q 2594 3103 2138 3103 
Q 1681 3103 1420 2742 
Q 1159 2381 1159 1747 
Q 1159 1113 1420 752 
Q 1681 391 2138 391 
Q 2594 391 2855 752 
Q 3116 1113 3116 1747 
z
M 1159 2969 
Q 1341 3281 1617 3432 
Q 1894 3584 2278 3584 
Q 2916 3584 3314 3078 
Q 3713 2572 3713 1747 
Q 3713 922 3314 415 
Q 2916 -91 2278 -91 
Q 1894 -91 1617 61 
Q 1341 213 1159 525 
L 1159 0 
L 581 0 
L 581 4863 
L 1159 4863 
L 1159 2969 
z
" transform="scale(0.015625)"/>
      </defs>
      <use xlink:href="#DejaVuSans-41"/>
      <use xlink:href="#DejaVuSans-6e" x="68.408203"/>
      <use xlink:href="#DejaVuSans-74" x="131.787109"/>
      <use xlink:href="#DejaVuSans-72" x="170.996094"/>
      <use xlink:href="#DejaVuSans-69" x="212.109375"/>
      <use xlink:href="#DejaVuSans-65" x="239.892578"/>
      <use xlink:href="#DejaVuSans-62" x="301.416016"/>
      <use xlink:href="#DejaVuSans-73" x="364.892578"/>
      <use xlink:href="#DejaVuSans-6b" x="416.992188"/>
      <use xlink:href="#DejaVuSans-72" x="474.902344"/>
      <use xlink:href="#DejaVuSans-61" x="516.015625"/>
      <use xlink:href="#DejaVuSans-66" x="577.294922"/>
      <use xlink:href="#DejaVuSans-74" x="610.75"/>
     </g>
    </g>
    <g id="line2d_63">
     <path d="M 553.370625 530.099375 
L 563.370625 530.099375 
L 573.370625 530.099375 
" style="fill: none; stroke: #ff0000; stroke-width: 1.5; stroke-linecap: square"/>
    </g>
    <g id="text_36">
     <!-- Luftwiderstand -->
     <g transform="translate(581.370625 533.599375) scale(0.1 -0.1)">
      <defs>
       <path id="DejaVuSans-4c" d="M 628 4666 
L 1259 4666 
L 1259 531 
L 3531 531 
L 3531 0 
L 628 0 
L 628 4666 
z
" transform="scale(0.015625)"/>
      </defs>
      <use xlink:href="#DejaVuSans-4c"/>
      <use xlink:href="#DejaVuSans-75" x="53.962891"/>
      <use xlink:href="#DejaVuSans-66" x="117.341797"/>
      <use xlink:href="#DejaVuSans-74" x="150.796875"/>
      <use xlink:href="#DejaVuSans-77" x="190.005859"/>
      <use xlink:href="#DejaVuSans-69" x="271.792969"/>
      <use xlink:href="#DejaVuSans-64" x="299.576172"/>
      <use xlink:href="#DejaVuSans-65" x="363.052734"/>
      <use xlink:href="#DejaVuSans-72" x="424.576172"/>
      <use xlink:href="#DejaVuSans-73" x="465.689453"/>
      <use xlink:href="#DejaVuSans-74" x="517.789062"/>
      <use xlink:href="#DejaVuSans-61" x="556.998047"/>
      <use xlink:href="#DejaVuSans-6e" x="618.277344"/>
      <use xlink:href="#DejaVuSans-64" x="681.65625"/>
     </g>
    </g>
    <g id="line2d_64">
     <path d="M 553.370625 544.7775 
L 563.370625 544.7775 
L 573.370625 544.7775 
" style="fill: none; stroke: #0000ff; stroke-width: 1.5; stroke-linecap: square"/>
    </g>
    <g id="text_37">
     <!-- Rollwiderstand -->
     <g transform="translate(581.370625 548.2775) scale(0.1 -0.1)">
      <defs>
       <path id="DejaVuSans-52" d="M 2841 2188 
Q 3044 2119 3236 1894 
Q 3428 1669 3622 1275 
L 4263 0 
L 3584 0 
L 2988 1197 
Q 2756 1666 2539 1819 
Q 2322 1972 1947 1972 
L 1259 1972 
L 1259 0 
L 628 0 
L 628 4666 
L 2053 4666 
Q 2853 4666 3247 4331 
Q 3641 3997 3641 3322 
Q 3641 2881 3436 2590 
Q 3231 2300 2841 2188 
z
M 1259 4147 
L 1259 2491 
L 2053 2491 
Q 2509 2491 2742 2702 
Q 2975 2913 2975 3322 
Q 2975 3731 2742 3939 
Q 2509 4147 2053 4147 
L 1259 4147 
z
" transform="scale(0.015625)"/>
       <path id="DejaVuSans-6f" d="M 1959 3097 
Q 1497 3097 1228 2736 
Q 959 2375 959 1747 
Q 959 1119 1226 758 
Q 1494 397 1959 397 
Q 2419 397 2687 759 
Q 2956 1122 2956 1747 
Q 2956 2369 2687 2733 
Q 2419 3097 1959 3097 
z
M 1959 3584 
Q 2709 3584 3137 3096 
Q 3566 2609 3566 1747 
Q 3566 888 3137 398 
Q 2709 -91 1959 -91 
Q 1206 -91 779 398 
Q 353 888 353 1747 
Q 353 2609 779 3096 
Q 1206 3584 1959 3584 
z
" transform="scale(0.015625)"/>
      </defs>
      <use xlink:href="#DejaVuSans-52"/>
      <use xlink:href="#DejaVuSans-6f" x="64.982422"/>
      <use xlink:href="#DejaVuSans-6c" x="126.164062"/>
      <use xlink:href="#DejaVuSans-6c" x="153.947266"/>
      <use xlink:href="#DejaVuSans-77" x="181.730469"/>
      <use xlink:href="#DejaVuSans-69" x="263.517578"/>
      <use xlink:href="#DejaVuSans-64" x="291.300781"/>
      <use xlink:href="#DejaVuSans-65" x="354.777344"/>
      <use xlink:href="#DejaVuSans-72" x="416.300781"/>
      <use xlink:href="#DejaVuSans-73" x="457.414062"/>
      <use xlink:href="#DejaVuSans-74" x="509.513672"/>
      <use xlink:href="#DejaVuSans-61" x="548.722656"/>
      <use xlink:href="#DejaVuSans-6e" x="610.001953"/>
      <use xlink:href="#DejaVuSans-64" x="673.380859"/>
     </g>
    </g>
   </g>
  </g>
  <g id="axes_3">
   <g id="patch_14">
    <path d="M 53.328125 1023.64 
L 664.883125 1023.64 
L 664.883125 733.32 
L 53.328125 733.32 
z
" style="fill: #ffffff"/>
   </g>
   <g id="matplotlib.axis_5">
    <g id="xtick_17">
     <g id="line2d_65">
      <path d="M 81.12608 1023.64 
L 81.12608 733.32 
" clip-path="url(#p37e36eefa5)" style="fill: none; stroke: #b0b0b0; stroke-width: 0.8; stroke-linecap: square"/>
     </g>
     <g id="line2d_66">
      <g>
       <use xlink:href="#mf829b74c11" x="81.12608" y="1023.64" style="stroke: #000000; stroke-width: 0.8"/>
      </g>
     </g>
     <g id="text_38">
      <!-- 0 -->
      <g transform="translate(77.94483 1038.238438) scale(0.1 -0.1)">
       <use xlink:href="#DejaVuSans-30"/>
      </g>
     </g>
    </g>
    <g id="xtick_18">
     <g id="line2d_67">
      <path d="M 160.548807 1023.64 
L 160.548807 733.32 
" clip-path="url(#p37e36eefa5)" style="fill: none; stroke: #b0b0b0; stroke-width: 0.8; stroke-linecap: square"/>
     </g>
     <g id="line2d_68">
      <g>
       <use xlink:href="#mf829b74c11" x="160.548807" y="1023.64" style="stroke: #000000; stroke-width: 0.8"/>
      </g>
     </g>
     <g id="text_39">
      <!-- 1 -->
      <g transform="translate(157.367557 1038.238438) scale(0.1 -0.1)">
       <use xlink:href="#DejaVuSans-31"/>
      </g>
     </g>
    </g>
    <g id="xtick_19">
     <g id="line2d_69">
      <path d="M 239.971534 1023.64 
L 239.971534 733.32 
" clip-path="url(#p37e36eefa5)" style="fill: none; stroke: #b0b0b0; stroke-width: 0.8; stroke-linecap: square"/>
     </g>
     <g id="line2d_70">
      <g>
       <use xlink:href="#mf829b74c11" x="239.971534" y="1023.64" style="stroke: #000000; stroke-width: 0.8"/>
      </g>
     </g>
     <g id="text_40">
      <!-- 2 -->
      <g transform="translate(236.790284 1038.238438) scale(0.1 -0.1)">
       <use xlink:href="#DejaVuSans-32"/>
      </g>
     </g>
    </g>
    <g id="xtick_20">
     <g id="line2d_71">
      <path d="M 319.394261 1023.64 
L 319.394261 733.32 
" clip-path="url(#p37e36eefa5)" style="fill: none; stroke: #b0b0b0; stroke-width: 0.8; stroke-linecap: square"/>
     </g>
     <g id="line2d_72">
      <g>
       <use xlink:href="#mf829b74c11" x="319.394261" y="1023.64" style="stroke: #000000; stroke-width: 0.8"/>
      </g>
     </g>
     <g id="text_41">
      <!-- 3 -->
      <g transform="translate(316.213011 1038.238438) scale(0.1 -0.1)">
       <use xlink:href="#DejaVuSans-33"/>
      </g>
     </g>
    </g>
    <g id="xtick_21">
     <g id="line2d_73">
      <path d="M 398.816989 1023.64 
L 398.816989 733.32 
" clip-path="url(#p37e36eefa5)" style="fill: none; stroke: #b0b0b0; stroke-width: 0.8; stroke-linecap: square"/>
     </g>
     <g id="line2d_74">
      <g>
       <use xlink:href="#mf829b74c11" x="398.816989" y="1023.64" style="stroke: #000000; stroke-width: 0.8"/>
      </g>
     </g>
     <g id="text_42">
      <!-- 4 -->
      <g transform="translate(395.635739 1038.238438) scale(0.1 -0.1)">
       <use xlink:href="#DejaVuSans-34"/>
      </g>
     </g>
    </g>
    <g id="xtick_22">
     <g id="line2d_75">
      <path d="M 478.239716 1023.64 
L 478.239716 733.32 
" clip-path="url(#p37e36eefa5)" style="fill: none; stroke: #b0b0b0; stroke-width: 0.8; stroke-linecap: square"/>
     </g>
     <g id="line2d_76">
      <g>
       <use xlink:href="#mf829b74c11" x="478.239716" y="1023.64" style="stroke: #000000; stroke-width: 0.8"/>
      </g>
     </g>
     <g id="text_43">
      <!-- 5 -->
      <g transform="translate(475.058466 1038.238438) scale(0.1 -0.1)">
       <use xlink:href="#DejaVuSans-35"/>
      </g>
     </g>
    </g>
    <g id="xtick_23">
     <g id="line2d_77">
      <path d="M 557.662443 1023.64 
L 557.662443 733.32 
" clip-path="url(#p37e36eefa5)" style="fill: none; stroke: #b0b0b0; stroke-width: 0.8; stroke-linecap: square"/>
     </g>
     <g id="line2d_78">
      <g>
       <use xlink:href="#mf829b74c11" x="557.662443" y="1023.64" style="stroke: #000000; stroke-width: 0.8"/>
      </g>
     </g>
     <g id="text_44">
      <!-- 6 -->
      <g transform="translate(554.481193 1038.238438) scale(0.1 -0.1)">
       <use xlink:href="#DejaVuSans-36"/>
      </g>
     </g>
    </g>
    <g id="xtick_24">
     <g id="line2d_79">
      <path d="M 637.08517 1023.64 
L 637.08517 733.32 
" clip-path="url(#p37e36eefa5)" style="fill: none; stroke: #b0b0b0; stroke-width: 0.8; stroke-linecap: square"/>
     </g>
     <g id="line2d_80">
      <g>
       <use xlink:href="#mf829b74c11" x="637.08517" y="1023.64" style="stroke: #000000; stroke-width: 0.8"/>
      </g>
     </g>
     <g id="text_45">
      <!-- 7 -->
      <g transform="translate(633.90392 1038.238438) scale(0.1 -0.1)">
       <use xlink:href="#DejaVuSans-37"/>
      </g>
     </g>
    </g>
    <g id="text_46">
     <!-- Zeit (s) -->
     <g transform="translate(341.159531 1051.916563) scale(0.1 -0.1)">
      <use xlink:href="#DejaVuSans-5a"/>
      <use xlink:href="#DejaVuSans-65" x="68.505859"/>
      <use xlink:href="#DejaVuSans-69" x="130.029297"/>
      <use xlink:href="#DejaVuSans-74" x="157.8125"/>
      <use xlink:href="#DejaVuSans-20" x="197.021484"/>
      <use xlink:href="#DejaVuSans-28" x="228.808594"/>
      <use xlink:href="#DejaVuSans-73" x="267.822266"/>
      <use xlink:href="#DejaVuSans-29" x="319.921875"/>
     </g>
    </g>
   </g>
   <g id="matplotlib.axis_6">
    <g id="ytick_13">
     <g id="line2d_81">
      <path d="M 53.328125 990.587337 
L 664.883125 990.587337 
" clip-path="url(#p37e36eefa5)" style="fill: none; stroke: #b0b0b0; stroke-width: 0.8; stroke-linecap: square"/>
     </g>
     <g id="line2d_82">
      <g>
       <use xlink:href="#m6e09cf5e02" x="53.328125" y="990.587337" style="stroke: #000000; stroke-width: 0.8"/>
      </g>
     </g>
     <g id="text_47">
      <!-- 3.80 -->
      <g transform="translate(24.0625 994.386556) scale(0.1 -0.1)">
       <defs>
        <path id="DejaVuSans-2e" d="M 684 794 
L 1344 794 
L 1344 0 
L 684 0 
L 684 794 
z
" transform="scale(0.015625)"/>
       </defs>
       <use xlink:href="#DejaVuSans-33"/>
       <use xlink:href="#DejaVuSans-2e" x="63.623047"/>
       <use xlink:href="#DejaVuSans-38" x="95.410156"/>
       <use xlink:href="#DejaVuSans-30" x="159.033203"/>
      </g>
     </g>
    </g>
    <g id="ytick_14">
     <g id="line2d_83">
      <path d="M 53.328125 957.335161 
L 664.883125 957.335161 
" clip-path="url(#p37e36eefa5)" style="fill: none; stroke: #b0b0b0; stroke-width: 0.8; stroke-linecap: square"/>
     </g>
     <g id="line2d_84">
      <g>
       <use xlink:href="#m6e09cf5e02" x="53.328125" y="957.335161" style="stroke: #000000; stroke-width: 0.8"/>
      </g>
     </g>
     <g id="text_48">
      <!-- 3.85 -->
      <g transform="translate(24.0625 961.134379) scale(0.1 -0.1)">
       <use xlink:href="#DejaVuSans-33"/>
       <use xlink:href="#DejaVuSans-2e" x="63.623047"/>
       <use xlink:href="#DejaVuSans-38" x="95.410156"/>
       <use xlink:href="#DejaVuSans-35" x="159.033203"/>
      </g>
     </g>
    </g>
    <g id="ytick_15">
     <g id="line2d_85">
      <path d="M 53.328125 924.082984 
L 664.883125 924.082984 
" clip-path="url(#p37e36eefa5)" style="fill: none; stroke: #b0b0b0; stroke-width: 0.8; stroke-linecap: square"/>
     </g>
     <g id="line2d_86">
      <g>
       <use xlink:href="#m6e09cf5e02" x="53.328125" y="924.082984" style="stroke: #000000; stroke-width: 0.8"/>
      </g>
     </g>
     <g id="text_49">
      <!-- 3.90 -->
      <g transform="translate(24.0625 927.882203) scale(0.1 -0.1)">
       <defs>
        <path id="DejaVuSans-39" d="M 703 97 
L 703 672 
Q 941 559 1184 500 
Q 1428 441 1663 441 
Q 2288 441 2617 861 
Q 2947 1281 2994 2138 
Q 2813 1869 2534 1725 
Q 2256 1581 1919 1581 
Q 1219 1581 811 2004 
Q 403 2428 403 3163 
Q 403 3881 828 4315 
Q 1253 4750 1959 4750 
Q 2769 4750 3195 4129 
Q 3622 3509 3622 2328 
Q 3622 1225 3098 567 
Q 2575 -91 1691 -91 
Q 1453 -91 1209 -44 
Q 966 3 703 97 
z
M 1959 2075 
Q 2384 2075 2632 2365 
Q 2881 2656 2881 3163 
Q 2881 3666 2632 3958 
Q 2384 4250 1959 4250 
Q 1534 4250 1286 3958 
Q 1038 3666 1038 3163 
Q 1038 2656 1286 2365 
Q 1534 2075 1959 2075 
z
" transform="scale(0.015625)"/>
       </defs>
       <use xlink:href="#DejaVuSans-33"/>
       <use xlink:href="#DejaVuSans-2e" x="63.623047"/>
       <use xlink:href="#DejaVuSans-39" x="95.410156"/>
       <use xlink:href="#DejaVuSans-30" x="159.033203"/>
      </g>
     </g>
    </g>
    <g id="ytick_16">
     <g id="line2d_87">
      <path d="M 53.328125 890.830808 
L 664.883125 890.830808 
" clip-path="url(#p37e36eefa5)" style="fill: none; stroke: #b0b0b0; stroke-width: 0.8; stroke-linecap: square"/>
     </g>
     <g id="line2d_88">
      <g>
       <use xlink:href="#m6e09cf5e02" x="53.328125" y="890.830808" style="stroke: #000000; stroke-width: 0.8"/>
      </g>
     </g>
     <g id="text_50">
      <!-- 3.95 -->
      <g transform="translate(24.0625 894.630027) scale(0.1 -0.1)">
       <use xlink:href="#DejaVuSans-33"/>
       <use xlink:href="#DejaVuSans-2e" x="63.623047"/>
       <use xlink:href="#DejaVuSans-39" x="95.410156"/>
       <use xlink:href="#DejaVuSans-35" x="159.033203"/>
      </g>
     </g>
    </g>
    <g id="ytick_17">
     <g id="line2d_89">
      <path d="M 53.328125 857.578632 
L 664.883125 857.578632 
" clip-path="url(#p37e36eefa5)" style="fill: none; stroke: #b0b0b0; stroke-width: 0.8; stroke-linecap: square"/>
     </g>
     <g id="line2d_90">
      <g>
       <use xlink:href="#m6e09cf5e02" x="53.328125" y="857.578632" style="stroke: #000000; stroke-width: 0.8"/>
      </g>
     </g>
     <g id="text_51">
      <!-- 4.00 -->
      <g transform="translate(24.0625 861.377851) scale(0.1 -0.1)">
       <use xlink:href="#DejaVuSans-34"/>
       <use xlink:href="#DejaVuSans-2e" x="63.623047"/>
       <use xlink:href="#DejaVuSans-30" x="95.410156"/>
       <use xlink:href="#DejaVuSans-30" x="159.033203"/>
      </g>
     </g>
    </g>
    <g id="ytick_18">
     <g id="line2d_91">
      <path d="M 53.328125 824.326456 
L 664.883125 824.326456 
" clip-path="url(#p37e36eefa5)" style="fill: none; stroke: #b0b0b0; stroke-width: 0.8; stroke-linecap: square"/>
     </g>
     <g id="line2d_92">
      <g>
       <use xlink:href="#m6e09cf5e02" x="53.328125" y="824.326456" style="stroke: #000000; stroke-width: 0.8"/>
      </g>
     </g>
     <g id="text_52">
      <!-- 4.05 -->
      <g transform="translate(24.0625 828.125675) scale(0.1 -0.1)">
       <use xlink:href="#DejaVuSans-34"/>
       <use xlink:href="#DejaVuSans-2e" x="63.623047"/>
       <use xlink:href="#DejaVuSans-30" x="95.410156"/>
       <use xlink:href="#DejaVuSans-35" x="159.033203"/>
      </g>
     </g>
    </g>
    <g id="ytick_19">
     <g id="line2d_93">
      <path d="M 53.328125 791.07428 
L 664.883125 791.07428 
" clip-path="url(#p37e36eefa5)" style="fill: none; stroke: #b0b0b0; stroke-width: 0.8; stroke-linecap: square"/>
     </g>
     <g id="line2d_94">
      <g>
       <use xlink:href="#m6e09cf5e02" x="53.328125" y="791.07428" style="stroke: #000000; stroke-width: 0.8"/>
      </g>
     </g>
     <g id="text_53">
      <!-- 4.10 -->
      <g transform="translate(24.0625 794.873498) scale(0.1 -0.1)">
       <use xlink:href="#DejaVuSans-34"/>
       <use xlink:href="#DejaVuSans-2e" x="63.623047"/>
       <use xlink:href="#DejaVuSans-31" x="95.410156"/>
       <use xlink:href="#DejaVuSans-30" x="159.033203"/>
      </g>
     </g>
    </g>
    <g id="ytick_20">
     <g id="line2d_95">
      <path d="M 53.328125 757.822104 
L 664.883125 757.822104 
" clip-path="url(#p37e36eefa5)" style="fill: none; stroke: #b0b0b0; stroke-width: 0.8; stroke-linecap: square"/>
     </g>
     <g id="line2d_96">
      <g>
       <use xlink:href="#m6e09cf5e02" x="53.328125" y="757.822104" style="stroke: #000000; stroke-width: 0.8"/>
      </g>
     </g>
     <g id="text_54">
      <!-- 4.15 -->
      <g transform="translate(24.0625 761.621322) scale(0.1 -0.1)">
       <use xlink:href="#DejaVuSans-34"/>
       <use xlink:href="#DejaVuSans-2e" x="63.623047"/>
       <use xlink:href="#DejaVuSans-31" x="95.410156"/>
       <use xlink:href="#DejaVuSans-35" x="159.033203"/>
      </g>
     </g>
    </g>
    <g id="text_55">
     <!-- Beschleunigung (m/s²) -->
     <g transform="translate(17.982813 935.0425) rotate(-90) scale(0.1 -0.1)">
      <defs>
       <path id="DejaVuSans-42" d="M 1259 2228 
L 1259 519 
L 2272 519 
Q 2781 519 3026 730 
Q 3272 941 3272 1375 
Q 3272 1813 3026 2020 
Q 2781 2228 2272 2228 
L 1259 2228 
z
M 1259 4147 
L 1259 2741 
L 2194 2741 
Q 2656 2741 2882 2914 
Q 3109 3088 3109 3444 
Q 3109 3797 2882 3972 
Q 2656 4147 2194 4147 
L 1259 4147 
z
M 628 4666 
L 2241 4666 
Q 2963 4666 3353 4366 
Q 3744 4066 3744 3513 
Q 3744 3084 3544 2831 
Q 3344 2578 2956 2516 
Q 3422 2416 3680 2098 
Q 3938 1781 3938 1306 
Q 3938 681 3513 340 
Q 3088 0 2303 0 
L 628 0 
L 628 4666 
z
" transform="scale(0.015625)"/>
       <path id="DejaVuSans-b2" d="M 838 2444 
L 2163 2444 
L 2163 2088 
L 294 2088 
L 294 2431 
Q 400 2528 597 2703 
Q 1672 3656 1672 3950 
Q 1672 4156 1509 4282 
Q 1347 4409 1081 4409 
Q 919 4409 728 4354 
Q 538 4300 313 4191 
L 313 4575 
Q 553 4663 761 4706 
Q 969 4750 1147 4750 
Q 1600 4750 1872 4544 
Q 2144 4338 2144 4000 
Q 2144 3566 1109 2678 
Q 934 2528 838 2444 
z
" transform="scale(0.015625)"/>
      </defs>
      <use xlink:href="#DejaVuSans-42"/>
      <use xlink:href="#DejaVuSans-65" x="68.603516"/>
      <use xlink:href="#DejaVuSans-73" x="130.126953"/>
      <use xlink:href="#DejaVuSans-63" x="182.226562"/>
      <use xlink:href="#DejaVuSans-68" x="237.207031"/>
      <use xlink:href="#DejaVuSans-6c" x="300.585938"/>
      <use xlink:href="#DejaVuSans-65" x="328.369141"/>
      <use xlink:href="#DejaVuSans-75" x="389.892578"/>
      <use xlink:href="#DejaVuSans-6e" x="453.271484"/>
      <use xlink:href="#DejaVuSans-69" x="516.650391"/>
      <use xlink:href="#DejaVuSans-67" x="544.433594"/>
      <use xlink:href="#DejaVuSans-75" x="607.910156"/>
      <use xlink:href="#DejaVuSans-6e" x="671.289062"/>
      <use xlink:href="#DejaVuSans-67" x="734.667969"/>
      <use xlink:href="#DejaVuSans-20" x="798.144531"/>
      <use xlink:href="#DejaVuSans-28" x="829.931641"/>
      <use xlink:href="#DejaVuSans-6d" x="868.945312"/>
      <use xlink:href="#DejaVuSans-2f" x="966.357422"/>
      <use xlink:href="#DejaVuSans-73" x="1000.048828"/>
      <use xlink:href="#DejaVuSans-b2" x="1052.148438"/>
      <use xlink:href="#DejaVuSans-29" x="1092.236328"/>
     </g>
    </g>
   </g>
   <g id="line2d_97">
    <path d="M 81.12608 878.48 
L 86.741828 878.48 
L 92.357576 878.48 
L 97.973325 878.48 
L 103.589073 878.48 
L 109.204822 878.48 
L 114.82057 878.48 
L 120.436318 878.48 
L 126.052067 878.48 
L 131.667815 878.48 
L 137.283563 878.48 
L 142.899312 878.48 
L 148.51506 878.48 
L 154.130809 878.48 
L 159.746557 878.48 
L 165.362305 878.48 
L 170.978054 878.48 
L 176.593802 878.48 
L 182.209551 878.48 
L 187.825299 878.48 
L 193.441047 878.48 
L 199.056796 878.48 
L 204.672544 878.48 
L 210.288293 878.48 
L 215.904041 878.48 
L 221.519789 878.48 
L 227.135538 878.48 
L 232.751286 878.48 
L 238.367035 878.48 
L 243.982783 878.48 
L 249.598531 878.48 
L 255.21428 878.48 
L 260.830028 878.48 
L 266.445777 878.48 
L 272.061525 878.48 
L 277.677273 878.48 
L 283.293022 878.48 
L 288.90877 878.48 
L 294.524518 878.48 
L 300.140267 878.48 
L 305.756015 878.48 
L 311.371764 878.48 
L 316.987512 878.48 
L 322.60326 878.48 
L 328.219009 878.48 
L 333.834757 878.48 
L 339.450506 878.48 
L 345.066254 878.48 
L 350.682002 878.48 
L 356.297751 878.48 
L 361.913499 878.48 
L 367.529248 878.48 
L 373.144996 878.48 
L 378.760744 878.48 
L 384.376493 878.48 
L 389.992241 878.48 
L 395.60799 878.48 
L 401.223738 878.48 
L 406.839486 878.48 
L 412.455235 878.48 
L 418.070983 878.48 
L 423.686732 878.48 
L 429.30248 878.48 
L 434.918228 878.48 
L 440.533977 878.48 
L 446.149725 878.48 
L 451.765473 878.48 
L 457.381222 878.48 
L 462.99697 878.48 
L 468.612719 878.48 
L 474.228467 878.48 
L 479.844215 878.48 
L 485.459964 878.48 
L 491.075712 878.48 
L 496.691461 878.48 
L 502.307209 878.48 
L 507.922957 878.48 
L 513.538706 878.48 
L 519.154454 878.48 
L 524.770203 878.48 
L 530.385951 878.48 
L 536.001699 878.48 
L 541.617448 878.48 
L 547.233196 878.48 
L 552.848945 878.48 
L 558.464693 878.48 
L 564.080441 878.48 
L 569.69619 878.48 
L 575.311938 878.48 
L 580.927687 878.48 
L 586.543435 878.48 
L 592.159183 878.48 
L 597.774932 878.48 
L 603.39068 878.48 
L 609.006428 878.48 
L 614.622177 878.48 
L 620.237925 878.48 
L 625.853674 878.48 
L 631.469422 878.48 
L 637.08517 878.48 
" clip-path="url(#p37e36eefa5)" style="fill: none; stroke: #000000; stroke-width: 1.5; stroke-linecap: square"/>
   </g>
   <g id="patch_15">
    <path d="M 53.328125 1023.64 
L 53.328125 733.32 
" style="fill: none; stroke: #000000; stroke-width: 0.8; stroke-linejoin: miter; stroke-linecap: square"/>
   </g>
   <g id="patch_16">
    <path d="M 664.883125 1023.64 
L 664.883125 733.32 
" style="fill: none; stroke: #000000; stroke-width: 0.8; stroke-linejoin: miter; stroke-linecap: square"/>
   </g>
   <g id="patch_17">
    <path d="M 53.328125 1023.64 
L 664.883125 1023.64 
" style="fill: none; stroke: #000000; stroke-width: 0.8; stroke-linejoin: miter; stroke-linecap: square"/>
   </g>
   <g id="patch_18">
    <path d="M 53.328125 733.32 
L 664.883125 733.32 
" style="fill: none; stroke: #000000; stroke-width: 0.8; stroke-linejoin: miter; stroke-linecap: square"/>
   </g>
   <g id="text_56">
    <!-- Beschleunigung -->
    <g transform="translate(311.21625 727.32) scale(0.12 -0.12)">
     <use xlink:href="#DejaVuSans-42"/>
     <use xlink:href="#DejaVuSans-65" x="68.603516"/>
     <use xlink:href="#DejaVuSans-73" x="130.126953"/>
     <use xlink:href="#DejaVuSans-63" x="182.226562"/>
     <use xlink:href="#DejaVuSans-68" x="237.207031"/>
     <use xlink:href="#DejaVuSans-6c" x="300.585938"/>
     <use xlink:href="#DejaVuSans-65" x="328.369141"/>
     <use xlink:href="#DejaVuSans-75" x="389.892578"/>
     <use xlink:href="#DejaVuSans-6e" x="453.271484"/>
     <use xlink:href="#DejaVuSans-69" x="516.650391"/>
     <use xlink:href="#DejaVuSans-67" x="544.433594"/>
     <use xlink:href="#DejaVuSans-75" x="607.910156"/>
     <use xlink:href="#DejaVuSans-6e" x="671.289062"/>
     <use xlink:href="#DejaVuSans-67" x="734.667969"/>
    </g>
   </g>
   <g id="legend_3">
    <g id="patch_19">
     <path d="M 455.583125 755.998125 
L 657.883125 755.998125 
Q 659.883125 755.998125 659.883125 753.998125 
L 659.883125 740.32 
Q 659.883125 738.32 657.883125 738.32 
L 455.583125 738.32 
Q 453.583125 738.32 453.583125 740.32 
L 453.583125 753.998125 
Q 453.583125 755.998125 455.583125 755.998125 
z
" style="fill: #ffffff; opacity: 0.8; stroke: #cccccc; stroke-linejoin: miter"/>
    </g>
    <g id="line2d_98">
     <path d="M 457.583125 746.418438 
L 467.583125 746.418438 
L 477.583125 746.418438 
" style="fill: none; stroke: #000000; stroke-width: 1.5; stroke-linecap: square"/>
    </g>
    <g id="text_57">
     <!-- Durchschnittliche Beschleunigung -->
     <g transform="translate(485.583125 749.918438) scale(0.1 -0.1)">
      <defs>
       <path id="DejaVuSans-44" d="M 1259 4147 
L 1259 519 
L 2022 519 
Q 2988 519 3436 956 
Q 3884 1394 3884 2338 
Q 3884 3275 3436 3711 
Q 2988 4147 2022 4147 
L 1259 4147 
z
M 628 4666 
L 1925 4666 
Q 3281 4666 3915 4102 
Q 4550 3538 4550 2338 
Q 4550 1131 3912 565 
Q 3275 0 1925 0 
L 628 0 
L 628 4666 
z
" transform="scale(0.015625)"/>
      </defs>
      <use xlink:href="#DejaVuSans-44"/>
      <use xlink:href="#DejaVuSans-75" x="77.001953"/>
      <use xlink:href="#DejaVuSans-72" x="140.380859"/>
      <use xlink:href="#DejaVuSans-63" x="179.244141"/>
      <use xlink:href="#DejaVuSans-68" x="234.224609"/>
      <use xlink:href="#DejaVuSans-73" x="297.603516"/>
      <use xlink:href="#DejaVuSans-63" x="349.703125"/>
      <use xlink:href="#DejaVuSans-68" x="404.683594"/>
      <use xlink:href="#DejaVuSans-6e" x="468.0625"/>
      <use xlink:href="#DejaVuSans-69" x="531.441406"/>
      <use xlink:href="#DejaVuSans-74" x="559.224609"/>
      <use xlink:href="#DejaVuSans-74" x="598.433594"/>
      <use xlink:href="#DejaVuSans-6c" x="637.642578"/>
      <use xlink:href="#DejaVuSans-69" x="665.425781"/>
      <use xlink:href="#DejaVuSans-63" x="693.208984"/>
      <use xlink:href="#DejaVuSans-68" x="748.189453"/>
      <use xlink:href="#DejaVuSans-65" x="811.568359"/>
      <use xlink:href="#DejaVuSans-20" x="873.091797"/>
      <use xlink:href="#DejaVuSans-42" x="904.878906"/>
      <use xlink:href="#DejaVuSans-65" x="973.482422"/>
      <use xlink:href="#DejaVuSans-73" x="1035.005859"/>
      <use xlink:href="#DejaVuSans-63" x="1087.105469"/>
      <use xlink:href="#DejaVuSans-68" x="1142.085938"/>
      <use xlink:href="#DejaVuSans-6c" x="1205.464844"/>
      <use xlink:href="#DejaVuSans-65" x="1233.248047"/>
      <use xlink:href="#DejaVuSans-75" x="1294.771484"/>
      <use xlink:href="#DejaVuSans-6e" x="1358.150391"/>
      <use xlink:href="#DejaVuSans-69" x="1421.529297"/>
      <use xlink:href="#DejaVuSans-67" x="1449.3125"/>
      <use xlink:href="#DejaVuSans-75" x="1512.789062"/>
      <use xlink:href="#DejaVuSans-6e" x="1576.167969"/>
      <use xlink:href="#DejaVuSans-67" x="1639.546875"/>
     </g>
    </g>
   </g>
  </g>
  <g id="axes_4">
   <g id="matplotlib.axis_7">
    <g id="ytick_21">
     <g id="line2d_99">
      <defs>
       <path id="m16ca0cba4d" d="M 0 0 
L 3.5 0 
" style="stroke: #000000; stroke-width: 0.8"/>
      </defs>
      <g>
       <use xlink:href="#m16ca0cba4d" x="664.883125" y="315.163636" style="stroke: #000000; stroke-width: 0.8"/>
      </g>
     </g>
     <g id="text_58">
      <!-- 0 -->
      <g transform="translate(671.883125 318.962855) scale(0.1 -0.1)">
       <use xlink:href="#DejaVuSans-30"/>
      </g>
     </g>
    </g>
    <g id="ytick_22">
     <g id="line2d_100">
      <g>
       <use xlink:href="#m16ca0cba4d" x="664.883125" y="260.874369" style="stroke: #000000; stroke-width: 0.8"/>
      </g>
     </g>
     <g id="text_59">
      <!-- 20 -->
      <g transform="translate(671.883125 264.673588) scale(0.1 -0.1)">
       <use xlink:href="#DejaVuSans-32"/>
       <use xlink:href="#DejaVuSans-30" x="63.623047"/>
      </g>
     </g>
    </g>
    <g id="ytick_23">
     <g id="line2d_101">
      <g>
       <use xlink:href="#m16ca0cba4d" x="664.883125" y="206.585102" style="stroke: #000000; stroke-width: 0.8"/>
      </g>
     </g>
     <g id="text_60">
      <!-- 40 -->
      <g transform="translate(671.883125 210.384321) scale(0.1 -0.1)">
       <use xlink:href="#DejaVuSans-34"/>
       <use xlink:href="#DejaVuSans-30" x="63.623047"/>
      </g>
     </g>
    </g>
    <g id="ytick_24">
     <g id="line2d_102">
      <g>
       <use xlink:href="#m16ca0cba4d" x="664.883125" y="152.295835" style="stroke: #000000; stroke-width: 0.8"/>
      </g>
     </g>
     <g id="text_61">
      <!-- 60 -->
      <g transform="translate(671.883125 156.095053) scale(0.1 -0.1)">
       <use xlink:href="#DejaVuSans-36"/>
       <use xlink:href="#DejaVuSans-30" x="63.623047"/>
      </g>
     </g>
    </g>
    <g id="ytick_25">
     <g id="line2d_103">
      <g>
       <use xlink:href="#m16ca0cba4d" x="664.883125" y="98.006567" style="stroke: #000000; stroke-width: 0.8"/>
      </g>
     </g>
     <g id="text_62">
      <!-- 80 -->
      <g transform="translate(671.883125 101.805786) scale(0.1 -0.1)">
       <use xlink:href="#DejaVuSans-38"/>
       <use xlink:href="#DejaVuSans-30" x="63.623047"/>
      </g>
     </g>
    </g>
    <g id="ytick_26">
     <g id="line2d_104">
      <g>
       <use xlink:href="#m16ca0cba4d" x="664.883125" y="43.7173" style="stroke: #000000; stroke-width: 0.8"/>
      </g>
     </g>
     <g id="text_63">
      <!-- 100 -->
      <g transform="translate(671.883125 47.516519) scale(0.1 -0.1)">
       <use xlink:href="#DejaVuSans-31"/>
       <use xlink:href="#DejaVuSans-30" x="63.623047"/>
       <use xlink:href="#DejaVuSans-30" x="127.246094"/>
      </g>
     </g>
    </g>
    <g id="text_64">
     <!-- Zurückgelegte Strecke (m) -->
     <g transform="translate(702.569063 250.233594) rotate(-90) scale(0.1 -0.1)">
      <use xlink:href="#DejaVuSans-5a"/>
      <use xlink:href="#DejaVuSans-75" x="68.505859"/>
      <use xlink:href="#DejaVuSans-72" x="131.884766"/>
      <use xlink:href="#DejaVuSans-fc" x="172.998047"/>
      <use xlink:href="#DejaVuSans-63" x="236.376953"/>
      <use xlink:href="#DejaVuSans-6b" x="291.357422"/>
      <use xlink:href="#DejaVuSans-67" x="349.267578"/>
      <use xlink:href="#DejaVuSans-65" x="412.744141"/>
      <use xlink:href="#DejaVuSans-6c" x="474.267578"/>
      <use xlink:href="#DejaVuSans-65" x="502.050781"/>
      <use xlink:href="#DejaVuSans-67" x="563.574219"/>
      <use xlink:href="#DejaVuSans-74" x="627.050781"/>
      <use xlink:href="#DejaVuSans-65" x="666.259766"/>
      <use xlink:href="#DejaVuSans-20" x="727.783203"/>
      <use xlink:href="#DejaVuSans-53" x="759.570312"/>
      <use xlink:href="#DejaVuSans-74" x="823.046875"/>
      <use xlink:href="#DejaVuSans-72" x="862.255859"/>
      <use xlink:href="#DejaVuSans-65" x="901.119141"/>
      <use xlink:href="#DejaVuSans-63" x="962.642578"/>
      <use xlink:href="#DejaVuSans-6b" x="1017.623047"/>
      <use xlink:href="#DejaVuSans-65" x="1071.908203"/>
      <use xlink:href="#DejaVuSans-20" x="1133.431641"/>
      <use xlink:href="#DejaVuSans-28" x="1165.21875"/>
      <use xlink:href="#DejaVuSans-6d" x="1204.232422"/>
      <use xlink:href="#DejaVuSans-29" x="1301.644531"/>
     </g>
    </g>
   </g>
   <g id="line2d_105">
    <path d="M 81.12608 315.163636 
L 86.741828 315.136708 
L 92.357576 315.055922 
L 97.973325 314.921279 
L 103.589073 314.732779 
L 109.204822 314.490421 
L 114.82057 314.194207 
L 120.436318 313.844135 
L 126.052067 313.440206 
L 131.667815 312.982419 
L 137.283563 312.470776 
L 142.899312 311.905275 
L 148.51506 311.285917 
L 154.130809 310.612702 
L 159.746557 309.885629 
L 165.362305 309.1047 
L 170.978054 308.269913 
L 176.593802 307.381269 
L 182.209551 306.438768 
L 187.825299 305.442409 
L 193.441047 304.392194 
L 199.056796 303.288121 
L 204.672544 302.130191 
L 210.288293 300.918404 
L 215.904041 299.652759 
L 221.519789 298.333257 
L 227.135538 296.959898 
L 232.751286 295.532682 
L 238.367035 294.051609 
L 243.982783 292.516678 
L 249.598531 290.92789 
L 255.21428 289.285245 
L 260.830028 287.588743 
L 266.445777 285.838384 
L 272.061525 284.034167 
L 277.677273 282.176093 
L 283.293022 280.264162 
L 288.90877 278.298374 
L 294.524518 276.278729 
L 300.140267 274.205226 
L 305.756015 272.077866 
L 311.371764 269.896649 
L 316.987512 267.661574 
L 322.60326 265.372643 
L 328.219009 263.029854 
L 333.834757 260.633208 
L 339.450506 258.182705 
L 345.066254 255.678345 
L 350.682002 253.120127 
L 356.297751 250.508052 
L 361.913499 247.84212 
L 367.529248 245.122331 
L 373.144996 242.348684 
L 378.760744 239.521181 
L 384.376493 236.63982 
L 389.992241 233.704602 
L 395.60799 230.715526 
L 401.223738 227.672594 
L 406.839486 224.575804 
L 412.455235 221.425157 
L 418.070983 218.220653 
L 423.686732 214.962291 
L 429.30248 211.650073 
L 434.918228 208.283997 
L 440.533977 204.864064 
L 446.149725 201.390274 
L 451.765473 197.862626 
L 457.381222 194.281122 
L 462.99697 190.64576 
L 468.612719 186.956541 
L 474.228467 183.213464 
L 479.844215 179.416531 
L 485.459964 175.56574 
L 491.075712 171.661092 
L 496.691461 167.702587 
L 502.307209 163.690225 
L 507.922957 159.624005 
L 513.538706 155.503928 
L 519.154454 151.329994 
L 524.770203 147.102203 
L 530.385951 142.820554 
L 536.001699 138.485049 
L 541.617448 134.095686 
L 547.233196 129.652466 
L 552.848945 125.155389 
L 558.464693 120.604454 
L 564.080441 115.999662 
L 569.69619 111.341013 
L 575.311938 106.628507 
L 580.927687 101.862144 
L 586.543435 97.041923 
L 592.159183 92.167846 
L 597.774932 87.239911 
L 603.39068 82.258118 
L 609.006428 77.222469 
L 614.622177 72.132962 
L 620.237925 66.989598 
L 625.853674 61.792377 
L 631.469422 56.541299 
L 637.08517 51.236364 
" clip-path="url(#p4b204ef8cc)" style="fill: none; stroke: #ff0000; stroke-width: 1.5; stroke-linecap: square"/>
   </g>
   <g id="patch_20">
    <path d="M 53.328125 328.36 
L 53.328125 38.04 
" style="fill: none; stroke: #000000; stroke-width: 0.8; stroke-linejoin: miter; stroke-linecap: square"/>
   </g>
   <g id="patch_21">
    <path d="M 664.883125 328.36 
L 664.883125 38.04 
" style="fill: none; stroke: #000000; stroke-width: 0.8; stroke-linejoin: miter; stroke-linecap: square"/>
   </g>
   <g id="patch_22">
    <path d="M 53.328125 328.36 
L 664.883125 328.36 
" style="fill: none; stroke: #000000; stroke-width: 0.8; stroke-linejoin: miter; stroke-linecap: square"/>
   </g>
   <g id="patch_23">
    <path d="M 53.328125 38.04 
L 664.883125 38.04 
" style="fill: none; stroke: #000000; stroke-width: 0.8; stroke-linejoin: miter; stroke-linecap: square"/>
   </g>
   <g id="legend_4">
    <g id="patch_24">
     <path d="M 60.328125 60.718125 
L 129.715625 60.718125 
Q 131.715625 60.718125 131.715625 58.718125 
L 131.715625 45.04 
Q 131.715625 43.04 129.715625 43.04 
L 60.328125 43.04 
Q 58.328125 43.04 58.328125 45.04 
L 58.328125 58.718125 
Q 58.328125 60.718125 60.328125 60.718125 
z
" style="fill: #ffffff; opacity: 0.8; stroke: #cccccc; stroke-linejoin: miter"/>
    </g>
    <g id="line2d_106">
     <path d="M 62.328125 51.138438 
L 72.328125 51.138438 
L 82.328125 51.138438 
" style="fill: none; stroke: #ff0000; stroke-width: 1.5; stroke-linecap: square"/>
    </g>
    <g id="text_65">
     <!-- Strecke -->
     <g transform="translate(90.328125 54.638438) scale(0.1 -0.1)">
      <use xlink:href="#DejaVuSans-53"/>
      <use xlink:href="#DejaVuSans-74" x="63.476562"/>
      <use xlink:href="#DejaVuSans-72" x="102.685547"/>
      <use xlink:href="#DejaVuSans-65" x="141.548828"/>
      <use xlink:href="#DejaVuSans-63" x="203.072266"/>
      <use xlink:href="#DejaVuSans-6b" x="258.052734"/>
      <use xlink:href="#DejaVuSans-65" x="312.337891"/>
     </g>
    </g>
   </g>
  </g>
  <g id="text_66">
   <!-- Analyse der Autobeschleunigung: 0-100 km/h in 7s -->
   <g transform="translate(151.153125 19.3575) scale(0.16 -0.16)">
    <defs>
     <path id="DejaVuSans-79" d="M 2059 -325 
Q 1816 -950 1584 -1140 
Q 1353 -1331 966 -1331 
L 506 -1331 
L 506 -850 
L 844 -850 
Q 1081 -850 1212 -737 
Q 1344 -625 1503 -206 
L 1606 56 
L 191 3500 
L 800 3500 
L 1894 763 
L 2988 3500 
L 3597 3500 
L 2059 -325 
z
" transform="scale(0.015625)"/>
     <path id="DejaVuSans-3a" d="M 750 794 
L 1409 794 
L 1409 0 
L 750 0 
L 750 794 
z
M 750 3309 
L 1409 3309 
L 1409 2516 
L 750 2516 
L 750 3309 
z
" transform="scale(0.015625)"/>
     <path id="DejaVuSans-2d" d="M 313 2009 
L 1997 2009 
L 1997 1497 
L 313 1497 
L 313 2009 
z
" transform="scale(0.015625)"/>
    </defs>
    <use xlink:href="#DejaVuSans-41"/>
    <use xlink:href="#DejaVuSans-6e" x="68.408203"/>
    <use xlink:href="#DejaVuSans-61" x="131.787109"/>
    <use xlink:href="#DejaVuSans-6c" x="193.066406"/>
    <use xlink:href="#DejaVuSans-79" x="220.849609"/>
    <use xlink:href="#DejaVuSans-73" x="280.029297"/>
    <use xlink:href="#DejaVuSans-65" x="332.128906"/>
    <use xlink:href="#DejaVuSans-20" x="393.652344"/>
    <use xlink:href="#DejaVuSans-64" x="425.439453"/>
    <use xlink:href="#DejaVuSans-65" x="488.916016"/>
    <use xlink:href="#DejaVuSans-72" x="550.439453"/>
    <use xlink:href="#DejaVuSans-20" x="591.552734"/>
    <use xlink:href="#DejaVuSans-41" x="623.339844"/>
    <use xlink:href="#DejaVuSans-75" x="691.748047"/>
    <use xlink:href="#DejaVuSans-74" x="755.126953"/>
    <use xlink:href="#DejaVuSans-6f" x="794.335938"/>
    <use xlink:href="#DejaVuSans-62" x="855.517578"/>
    <use xlink:href="#DejaVuSans-65" x="918.994141"/>
    <use xlink:href="#DejaVuSans-73" x="980.517578"/>
    <use xlink:href="#DejaVuSans-63" x="1032.617188"/>
    <use xlink:href="#DejaVuSans-68" x="1087.597656"/>
    <use xlink:href="#DejaVuSans-6c" x="1150.976562"/>
    <use xlink:href="#DejaVuSans-65" x="1178.759766"/>
    <use xlink:href="#DejaVuSans-75" x="1240.283203"/>
    <use xlink:href="#DejaVuSans-6e" x="1303.662109"/>
    <use xlink:href="#DejaVuSans-69" x="1367.041016"/>
    <use xlink:href="#DejaVuSans-67" x="1394.824219"/>
    <use xlink:href="#DejaVuSans-75" x="1458.300781"/>
    <use xlink:href="#DejaVuSans-6e" x="1521.679688"/>
    <use xlink:href="#DejaVuSans-67" x="1585.058594"/>
    <use xlink:href="#DejaVuSans-3a" x="1648.535156"/>
    <use xlink:href="#DejaVuSans-20" x="1682.226562"/>
    <use xlink:href="#DejaVuSans-30" x="1714.013672"/>
    <use xlink:href="#DejaVuSans-2d" x="1777.636719"/>
    <use xlink:href="#DejaVuSans-31" x="1813.720703"/>
    <use xlink:href="#DejaVuSans-30" x="1877.34375"/>
    <use xlink:href="#DejaVuSans-30" x="1940.966797"/>
    <use xlink:href="#DejaVuSans-20" x="2004.589844"/>
    <use xlink:href="#DejaVuSans-6b" x="2036.376953"/>
    <use xlink:href="#DejaVuSans-6d" x="2094.287109"/>
    <use xlink:href="#DejaVuSans-2f" x="2191.699219"/>
    <use xlink:href="#DejaVuSans-68" x="2225.390625"/>
    <use xlink:href="#DejaVuSans-20" x="2288.769531"/>
    <use xlink:href="#DejaVuSans-69" x="2320.556641"/>
    <use xlink:href="#DejaVuSans-6e" x="2348.339844"/>
    <use xlink:href="#DejaVuSans-20" x="2411.71875"/>
    <use xlink:href="#DejaVuSans-37" x="2443.505859"/>
    <use xlink:href="#DejaVuSans-73" x="2507.128906"/>
   </g>
  </g>
 </g>
 <defs>
  <clipPath id="p4b204ef8cc">
   <rect x="53.328125" y="38.04" width="611.555" height="290.32"/>
  </clipPath>
  <clipPath id="p4408eb5386">
   <rect x="53.328125" y="385.68" width="611.555" height="290.32"/>
  </clipPath>
  <clipPath id="p37e36eefa5">
   <rect x="53.328125" y="733.32" width="611.555" height="290.32"/>
  </clipPath>
 </defs>
</svg>
