<?xml version="1.0" encoding="utf-8" standalone="no"?>
<!DOCTYPE svg PUBLIC "-//W3C//DTD SVG 1.1//EN"
  "http://www.w3.org/Graphics/SVG/1.1/DTD/svg11.dtd">
<svg xmlns:xlink="http://www.w3.org/1999/xlink" width="1008.88pt" height="694.56475pt" viewBox="0 0 1008.88 694.56475" xmlns="http://www.w3.org/2000/svg" version="1.1">
 <metadata>
  <rdf:RDF xmlns:dc="http://purl.org/dc/elements/1.1/" xmlns:cc="http://creativecommons.org/ns#" xmlns:rdf="http://www.w3.org/1999/02/22-rdf-syntax-ns#">
   <cc:Work>
    <dc:type rdf:resource="http://purl.org/dc/dcmitype/StillImage"/>
    <dc:date>2024-10-20T15:38:49.586612</dc:date>
    <dc:format>image/svg+xml</dc:format>
    <dc:creator>
     <cc:Agent>
      <dc:title>Matplotlib v3.9.2, https://matplotlib.org/</dc:title>
     </cc:Agent>
    </dc:creator>
   </cc:Work>
  </rdf:RDF>
 </metadata>
 <defs>
  <style type="text/css">*{stroke-linejoin: round; stroke-linecap: butt}</style>
 </defs>
 <g id="figure_1">
  <g id="patch_1">
   <path d="M 0 694.56475 
L 1008.88 694.56475 
L 1008.88 0 
L 0 0 
z
" style="fill: #ffffff"/>
  </g>
  <g id="patch_2">
   <path d="M 313.2 507.51475 
L 781.2 507.51475 
L 781.2 39.51475 
L 313.2 39.51475 
z
" style="fill: #ffffff"/>
  </g>
  <g id="pane3d_1">
   <g id="patch_3">
    <path d="M 348.537227 392.120948 
L 503.086112 262.575009 
L 500.937734 75.746606 
L 338.992889 193.926578 
" style="fill: #f2f2f2; opacity: 0.5; stroke: #f2f2f2; stroke-linejoin: miter"/>
   </g>
  </g>
  <g id="pane3d_2">
   <g id="patch_4">
    <path d="M 503.086112 262.575009 
L 751.081927 334.657602 
L 759.932024 141.394109 
L 500.937734 75.746606 
" style="fill: #e6e6e6; opacity: 0.5; stroke: #e6e6e6; stroke-linejoin: miter"/>
   </g>
  </g>
  <g id="pane3d_3">
   <g id="patch_5">
    <path d="M 348.537227 392.120948 
L 611.424905 477.980063 
L 751.081927 334.657602 
L 503.086112 262.575009 
" style="fill: #ececec; opacity: 0.5; stroke: #ececec; stroke-linejoin: miter"/>
   </g>
  </g>
  <g id="grid3d_1">
   <g id="Line3DCollection_1">
    <path d="M 365.219874 397.569501 
L 518.888931 267.168265 
L 517.408809 79.921544 
" style="fill: none; stroke: #b0b0b0; stroke-width: 0.8"/>
    <path d="M 398.931532 408.579728 
L 550.795604 276.442275 
L 550.678221 88.35437 
" style="fill: none; stroke: #b0b0b0; stroke-width: 0.8"/>
    <path d="M 433.113057 419.743414 
L 583.110068 285.834814 
L 584.391255 96.899641 
" style="fill: none; stroke: #b0b0b0; stroke-width: 0.8"/>
    <path d="M 467.77434 431.063789 
L 615.840193 295.348169 
L 618.556844 105.559622 
" style="fill: none; stroke: #b0b0b0; stroke-width: 0.8"/>
    <path d="M 502.925554 442.544175 
L 648.99405 304.984686 
L 653.184162 114.336638 
" style="fill: none; stroke: #b0b0b0; stroke-width: 0.8"/>
    <path d="M 538.57716 454.18799 
L 682.579921 314.746773 
L 688.282632 123.233077 
" style="fill: none; stroke: #b0b0b0; stroke-width: 0.8"/>
    <path d="M 574.739919 465.998747 
L 716.606305 324.6369 
L 723.861936 132.251393 
" style="fill: none; stroke: #b0b0b0; stroke-width: 0.8"/>
    <path d="M 611.424905 477.980063 
L 751.081927 334.657602 
L 759.932024 141.394109 
" style="fill: none; stroke: #b0b0b0; stroke-width: 0.8"/>
   </g>
  </g>
  <g id="grid3d_2">
   <g id="Line3DCollection_2">
    <path d="M 350.721766 185.367378 
L 359.691091 382.771559 
L 621.545382 467.593964 
" style="fill: none; stroke: #b0b0b0; stroke-width: 0.8"/>
    <path d="M 373.750625 168.561965 
L 381.608777 364.399719 
L 641.41362 447.204264 
" style="fill: none; stroke: #b0b0b0; stroke-width: 0.8"/>
    <path d="M 396.22484 152.161307 
L 403.02139 346.451242 
L 660.79997 427.309099 
" style="fill: none; stroke: #b0b0b0; stroke-width: 0.8"/>
    <path d="M 418.164209 136.150955 
L 423.946189 328.911661 
L 679.721754 407.890695 
" style="fill: none; stroke: #b0b0b0; stroke-width: 0.8"/>
    <path d="M 439.587601 120.517139 
L 444.399656 311.76716 
L 698.195472 388.932115 
" style="fill: none; stroke: #b0b0b0; stroke-width: 0.8"/>
    <path d="M 460.513006 105.246732 
L 464.397539 295.004538 
L 716.236854 370.417219 
" style="fill: none; stroke: #b0b0b0; stroke-width: 0.8"/>
    <path d="M 480.957589 90.327206 
L 483.954891 278.611177 
L 733.860901 352.330612 
" style="fill: none; stroke: #b0b0b0; stroke-width: 0.8"/>
    <path d="M 500.937734 75.746606 
L 503.086112 262.575009 
L 751.081927 334.657602 
" style="fill: none; stroke: #b0b0b0; stroke-width: 0.8"/>
   </g>
  </g>
  <g id="grid3d_3">
   <g id="Line3DCollection_3">
    <path d="M 751.932638 316.08025 
L 502.879206 244.58193 
L 347.62118 373.098634 
" style="fill: none; stroke: #b0b0b0; stroke-width: 0.8"/>
    <path d="M 753.656231 278.441398 
L 502.460259 208.149245 
L 345.764302 334.539364 
" style="fill: none; stroke: #b0b0b0; stroke-width: 0.8"/>
    <path d="M 755.410031 240.14287 
L 502.034323 171.108775 
L 343.873628 295.278293 
" style="fill: none; stroke: #b0b0b0; stroke-width: 0.8"/>
    <path d="M 757.194842 201.16717 
L 501.601222 133.445183 
L 341.948227 255.296087 
" style="fill: none; stroke: #b0b0b0; stroke-width: 0.8"/>
    <path d="M 759.011492 161.496179 
L 501.160773 95.142612 
L 339.987133 214.572692 
" style="fill: none; stroke: #b0b0b0; stroke-width: 0.8"/>
   </g>
  </g>
  <g id="axis3d_1">
   <g id="line2d_1">
    <path d="M 348.537227 392.120948 
L 611.424905 477.980063 
" style="fill: none; stroke: #000000; stroke-width: 0.8; stroke-linecap: square"/>
   </g>
   <g id="xtick_1">
    <g id="line2d_2">
     <path d="M 366.558032 396.43396 
L 362.537814 399.845456 
" style="fill: none; stroke: #000000; stroke-width: 0.8; stroke-linecap: square"/>
    </g>
    <g id="text_1">
     <!-- −4 -->
     <g transform="translate(350.332214 420.856476) scale(0.1 -0.1)">
      <defs>
       <path id="DejaVuSans-2212" d="M 678 2272 
L 4684 2272 
L 4684 1741 
L 678 1741 
L 678 2272 
z
" transform="scale(0.015625)"/>
       <path id="DejaVuSans-34" d="M 2419 4116 
L 825 1625 
L 2419 1625 
L 2419 4116 
z
M 2253 4666 
L 3047 4666 
L 3047 1625 
L 3713 1625 
L 3713 1100 
L 3047 1100 
L 3047 0 
L 2419 0 
L 2419 1100 
L 313 1100 
L 313 1709 
L 2253 4666 
z
" transform="scale(0.015625)"/>
      </defs>
      <use xlink:href="#DejaVuSans-2212"/>
      <use xlink:href="#DejaVuSans-34" x="83.789062"/>
     </g>
    </g>
   </g>
   <g id="xtick_2">
    <g id="line2d_3">
     <path d="M 400.254716 407.428421 
L 396.279446 410.887318 
" style="fill: none; stroke: #000000; stroke-width: 0.8; stroke-linecap: square"/>
    </g>
    <g id="text_2">
     <!-- −2 -->
     <g transform="translate(384.063388 431.99891) scale(0.1 -0.1)">
      <defs>
       <path id="DejaVuSans-32" d="M 1228 531 
L 3431 531 
L 3431 0 
L 469 0 
L 469 531 
Q 828 903 1448 1529 
Q 2069 2156 2228 2338 
Q 2531 2678 2651 2914 
Q 2772 3150 2772 3378 
Q 2772 3750 2511 3984 
Q 2250 4219 1831 4219 
Q 1534 4219 1204 4116 
Q 875 4013 500 3803 
L 500 4441 
Q 881 4594 1212 4672 
Q 1544 4750 1819 4750 
Q 2544 4750 2975 4387 
Q 3406 4025 3406 3419 
Q 3406 3131 3298 2873 
Q 3191 2616 2906 2266 
Q 2828 2175 2409 1742 
Q 1991 1309 1228 531 
z
" transform="scale(0.015625)"/>
      </defs>
      <use xlink:href="#DejaVuSans-2212"/>
      <use xlink:href="#DejaVuSans-32" x="83.789062"/>
     </g>
    </g>
   </g>
   <g id="xtick_3">
    <g id="line2d_4">
     <path d="M 434.420718 418.57601 
L 430.492044 422.083302 
" style="fill: none; stroke: #000000; stroke-width: 0.8; stroke-linecap: square"/>
    </g>
    <g id="text_3">
     <!-- 0 -->
     <g transform="translate(422.455551 443.296976) scale(0.1 -0.1)">
      <defs>
       <path id="DejaVuSans-30" d="M 2034 4250 
Q 1547 4250 1301 3770 
Q 1056 3291 1056 2328 
Q 1056 1369 1301 889 
Q 1547 409 2034 409 
Q 2525 409 2770 889 
Q 3016 1369 3016 2328 
Q 3016 3291 2770 3770 
Q 2525 4250 2034 4250 
z
M 2034 4750 
Q 2819 4750 3233 4129 
Q 3647 3509 3647 2328 
Q 3647 1150 3233 529 
Q 2819 -91 2034 -91 
Q 1250 -91 836 529 
Q 422 1150 422 2328 
Q 422 3509 836 4129 
Q 1250 4750 2034 4750 
z
" transform="scale(0.015625)"/>
      </defs>
      <use xlink:href="#DejaVuSans-30"/>
     </g>
    </g>
   </g>
   <g id="xtick_4">
    <g id="line2d_5">
     <path d="M 469.065911 429.879948 
L 465.185538 433.436658 
" style="fill: none; stroke: #000000; stroke-width: 0.8; stroke-linecap: square"/>
    </g>
    <g id="text_4">
     <!-- 2 -->
     <g transform="translate(457.138955 454.75396) scale(0.1 -0.1)">
      <use xlink:href="#DejaVuSans-32"/>
     </g>
    </g>
   </g>
   <g id="xtick_5">
    <g id="line2d_6">
     <path d="M 504.200448 441.343548 
L 500.370139 444.950728 
" style="fill: none; stroke: #000000; stroke-width: 0.8; stroke-linecap: square"/>
    </g>
    <g id="text_5">
     <!-- 4 -->
     <g transform="translate(492.313667 466.373237) scale(0.1 -0.1)">
      <use xlink:href="#DejaVuSans-34"/>
     </g>
    </g>
   </g>
   <g id="xtick_6">
    <g id="line2d_7">
     <path d="M 539.834769 452.970217 
L 536.05635 456.628948 
" style="fill: none; stroke: #000000; stroke-width: 0.8; stroke-linecap: square"/>
    </g>
    <g id="text_6">
     <!-- 6 -->
     <g transform="translate(527.990199 478.158282) scale(0.1 -0.1)">
      <defs>
       <path id="DejaVuSans-36" d="M 2113 2584 
Q 1688 2584 1439 2293 
Q 1191 2003 1191 1497 
Q 1191 994 1439 701 
Q 1688 409 2113 409 
Q 2538 409 2786 701 
Q 3034 994 3034 1497 
Q 3034 2003 2786 2293 
Q 2538 2584 2113 2584 
z
M 3366 4563 
L 3366 3988 
Q 3128 4100 2886 4159 
Q 2644 4219 2406 4219 
Q 1781 4219 1451 3797 
Q 1122 3375 1075 2522 
Q 1259 2794 1537 2939 
Q 1816 3084 2150 3084 
Q 2853 3084 3261 2657 
Q 3669 2231 3669 1497 
Q 3669 778 3244 343 
Q 2819 -91 2113 -91 
Q 1303 -91 875 529 
Q 447 1150 447 2328 
Q 447 3434 972 4092 
Q 1497 4750 2381 4750 
Q 2619 4750 2861 4703 
Q 3103 4656 3366 4563 
z
" transform="scale(0.015625)"/>
      </defs>
      <use xlink:href="#DejaVuSans-36"/>
     </g>
    </g>
   </g>
   <g id="xtick_7">
    <g id="line2d_8">
     <path d="M 575.979617 464.763458 
L 572.254975 468.474854 
" style="fill: none; stroke: #000000; stroke-width: 0.8; stroke-linecap: square"/>
    </g>
    <g id="text_7">
     <!-- 8 -->
     <g transform="translate(564.179369 490.112665) scale(0.1 -0.1)">
      <defs>
       <path id="DejaVuSans-38" d="M 2034 2216 
Q 1584 2216 1326 1975 
Q 1069 1734 1069 1313 
Q 1069 891 1326 650 
Q 1584 409 2034 409 
Q 2484 409 2743 651 
Q 3003 894 3003 1313 
Q 3003 1734 2745 1975 
Q 2488 2216 2034 2216 
z
M 1403 2484 
Q 997 2584 770 2862 
Q 544 3141 544 3541 
Q 544 4100 942 4425 
Q 1341 4750 2034 4750 
Q 2731 4750 3128 4425 
Q 3525 4100 3525 3541 
Q 3525 3141 3298 2862 
Q 3072 2584 2669 2484 
Q 3125 2378 3379 2068 
Q 3634 1759 3634 1313 
Q 3634 634 3220 271 
Q 2806 -91 2034 -91 
Q 1263 -91 848 271 
Q 434 634 434 1313 
Q 434 1759 690 2068 
Q 947 2378 1403 2484 
z
M 1172 3481 
Q 1172 3119 1398 2916 
Q 1625 2713 2034 2713 
Q 2441 2713 2670 2916 
Q 2900 3119 2900 3481 
Q 2900 3844 2670 4047 
Q 2441 4250 2034 4250 
Q 1625 4250 1398 4047 
Q 1172 3844 1172 3481 
z
" transform="scale(0.015625)"/>
      </defs>
      <use xlink:href="#DejaVuSans-38"/>
     </g>
    </g>
   </g>
   <g id="xtick_8">
    <g id="line2d_9">
     <path d="M 612.64604 476.726878 
L 608.977128 480.492084 
" style="fill: none; stroke: #000000; stroke-width: 0.8; stroke-linecap: square"/>
    </g>
    <g id="text_8">
     <!-- 10 -->
     <g transform="translate(597.711055 502.240065) scale(0.1 -0.1)">
      <defs>
       <path id="DejaVuSans-31" d="M 794 531 
L 1825 531 
L 1825 4091 
L 703 3866 
L 703 4441 
L 1819 4666 
L 2450 4666 
L 2450 531 
L 3481 531 
L 3481 0 
L 794 0 
L 794 531 
z
" transform="scale(0.015625)"/>
      </defs>
      <use xlink:href="#DejaVuSans-31"/>
      <use xlink:href="#DejaVuSans-30" x="63.623047"/>
     </g>
    </g>
   </g>
   <g id="text_9">
    <!-- X [m] -->
    <g transform="translate(443.528833 467.076499) rotate(-341.912962) scale(0.12 -0.12)">
     <defs>
      <path id="DejaVuSans-58" d="M 403 4666 
L 1081 4666 
L 2241 2931 
L 3406 4666 
L 4084 4666 
L 2584 2425 
L 4184 0 
L 3506 0 
L 2194 1984 
L 872 0 
L 191 0 
L 1856 2491 
L 403 4666 
z
" transform="scale(0.015625)"/>
      <path id="DejaVuSans-20" transform="scale(0.015625)"/>
      <path id="DejaVuSans-5b" d="M 550 4863 
L 1875 4863 
L 1875 4416 
L 1125 4416 
L 1125 -397 
L 1875 -397 
L 1875 -844 
L 550 -844 
L 550 4863 
z
" transform="scale(0.015625)"/>
      <path id="DejaVuSans-6d" d="M 3328 2828 
Q 3544 3216 3844 3400 
Q 4144 3584 4550 3584 
Q 5097 3584 5394 3201 
Q 5691 2819 5691 2113 
L 5691 0 
L 5113 0 
L 5113 2094 
Q 5113 2597 4934 2840 
Q 4756 3084 4391 3084 
Q 3944 3084 3684 2787 
Q 3425 2491 3425 1978 
L 3425 0 
L 2847 0 
L 2847 2094 
Q 2847 2600 2669 2842 
Q 2491 3084 2119 3084 
Q 1678 3084 1418 2786 
Q 1159 2488 1159 1978 
L 1159 0 
L 581 0 
L 581 3500 
L 1159 3500 
L 1159 2956 
Q 1356 3278 1631 3431 
Q 1906 3584 2284 3584 
Q 2666 3584 2933 3390 
Q 3200 3197 3328 2828 
z
" transform="scale(0.015625)"/>
      <path id="DejaVuSans-5d" d="M 1947 4863 
L 1947 -844 
L 622 -844 
L 622 -397 
L 1369 -397 
L 1369 4416 
L 622 4416 
L 622 4863 
L 1947 4863 
z
" transform="scale(0.015625)"/>
     </defs>
     <use xlink:href="#DejaVuSans-58"/>
     <use xlink:href="#DejaVuSans-20" x="68.505859"/>
     <use xlink:href="#DejaVuSans-5b" x="100.292969"/>
     <use xlink:href="#DejaVuSans-6d" x="139.306641"/>
     <use xlink:href="#DejaVuSans-5d" x="236.71875"/>
    </g>
   </g>
  </g>
  <g id="axis3d_2">
   <g id="line2d_10">
    <path d="M 751.081927 334.657602 
L 611.424905 477.980063 
" style="fill: none; stroke: #000000; stroke-width: 0.8; stroke-linecap: square"/>
   </g>
   <g id="xtick_9">
    <g id="line2d_11">
     <path d="M 619.33876 466.879173 
L 625.964332 469.025393 
" style="fill: none; stroke: #000000; stroke-width: 0.8; stroke-linecap: square"/>
    </g>
    <g id="text_10">
     <!-- −4 -->
     <g transform="translate(627.048113 488.608276) scale(0.1 -0.1)">
      <use xlink:href="#DejaVuSans-2212"/>
      <use xlink:href="#DejaVuSans-34" x="83.789062"/>
     </g>
    </g>
   </g>
   <g id="xtick_10">
    <g id="line2d_12">
     <path d="M 639.22563 446.506911 
L 645.79519 448.60075 
" style="fill: none; stroke: #000000; stroke-width: 0.8; stroke-linecap: square"/>
    </g>
    <g id="text_11">
     <!-- −2 -->
     <g transform="translate(646.764937 468.046974) scale(0.1 -0.1)">
      <use xlink:href="#DejaVuSans-2212"/>
      <use xlink:href="#DejaVuSans-32" x="83.789062"/>
     </g>
    </g>
   </g>
   <g id="xtick_11">
    <g id="line2d_13">
     <path d="M 658.630362 426.628554 
L 665.144661 428.671906 
" style="fill: none; stroke: #000000; stroke-width: 0.8; stroke-linecap: square"/>
    </g>
    <g id="text_12">
     <!-- 0 -->
     <g transform="translate(670.193231 447.984536) scale(0.1 -0.1)">
      <use xlink:href="#DejaVuSans-30"/>
     </g>
    </g>
   </g>
   <g id="xtick_12">
    <g id="line2d_14">
     <path d="M 677.57028 407.226357 
L 684.030065 409.221026 
" style="fill: none; stroke: #000000; stroke-width: 0.8; stroke-linecap: square"/>
    </g>
    <g id="text_13">
     <!-- 2 -->
     <g transform="translate(688.970507 428.403024) scale(0.1 -0.1)">
      <use xlink:href="#DejaVuSans-32"/>
     </g>
    </g>
   </g>
   <g id="xtick_13">
    <g id="line2d_15">
     <path d="M 696.061887 388.283413 
L 702.467897 390.231118 
" style="fill: none; stroke: #000000; stroke-width: 0.8; stroke-linecap: square"/>
    </g>
    <g id="text_14">
     <!-- 4 -->
     <g transform="translate(707.302996 409.28535) scale(0.1 -0.1)">
      <use xlink:href="#DejaVuSans-34"/>
     </g>
    </g>
   </g>
   <g id="xtick_14">
    <g id="line2d_16">
     <path d="M 714.120914 369.783606 
L 720.473883 371.685988 
" style="fill: none; stroke: #000000; stroke-width: 0.8; stroke-linecap: square"/>
    </g>
    <g id="text_15">
     <!-- 6 -->
     <g transform="translate(725.206315 390.615225) scale(0.1 -0.1)">
      <use xlink:href="#DejaVuSans-36"/>
     </g>
    </g>
   </g>
   <g id="xtick_15">
    <g id="line2d_17">
     <path d="M 731.762366 351.711568 
L 738.063018 353.570189 
" style="fill: none; stroke: #000000; stroke-width: 0.8; stroke-linecap: square"/>
    </g>
    <g id="text_16">
     <!-- 8 -->
     <g transform="translate(742.695363 372.377117) scale(0.1 -0.1)">
      <use xlink:href="#DejaVuSans-38"/>
     </g>
    </g>
   </g>
   <g id="xtick_16">
    <g id="line2d_18">
     <path d="M 749.000559 334.05263 
L 755.249614 335.868984 
" style="fill: none; stroke: #000000; stroke-width: 0.8; stroke-linecap: square"/>
    </g>
    <g id="text_17">
     <!-- 10 -->
     <g transform="translate(756.603102 354.556201) scale(0.1 -0.1)">
      <use xlink:href="#DejaVuSans-31"/>
      <use xlink:href="#DejaVuSans-30" x="63.623047"/>
     </g>
    </g>
   </g>
   <g id="text_18">
    <!-- Y [m] -->
    <g transform="translate(702.473293 444.945975) rotate(-45.742112) scale(0.12 -0.12)">
     <defs>
      <path id="DejaVuSans-59" d="M -13 4666 
L 666 4666 
L 1959 2747 
L 3244 4666 
L 3922 4666 
L 2272 2222 
L 2272 0 
L 1638 0 
L 1638 2222 
L -13 4666 
z
" transform="scale(0.015625)"/>
     </defs>
     <use xlink:href="#DejaVuSans-59"/>
     <use xlink:href="#DejaVuSans-20" x="61.083984"/>
     <use xlink:href="#DejaVuSans-5b" x="92.871094"/>
     <use xlink:href="#DejaVuSans-6d" x="131.884766"/>
     <use xlink:href="#DejaVuSans-5d" x="229.296875"/>
    </g>
   </g>
  </g>
  <g id="axis3d_3">
   <g id="line2d_19">
    <path d="M 751.081927 334.657602 
L 759.932024 141.394109 
" style="fill: none; stroke: #000000; stroke-width: 0.8; stroke-linecap: square"/>
   </g>
   <g id="xtick_17">
    <g id="line2d_20">
     <path d="M 749.841973 315.480062 
L 756.118963 317.282061 
" style="fill: none; stroke: #000000; stroke-width: 0.8; stroke-linecap: square"/>
    </g>
    <g id="text_19">
     <!-- −4 -->
     <g transform="translate(762.910907 321.090953) scale(0.1 -0.1)">
      <use xlink:href="#DejaVuSans-2212"/>
      <use xlink:href="#DejaVuSans-34" x="83.789062"/>
     </g>
    </g>
   </g>
   <g id="xtick_18">
    <g id="line2d_21">
     <path d="M 751.546719 277.851093 
L 757.880336 279.623429 
" style="fill: none; stroke: #000000; stroke-width: 0.8; stroke-linecap: square"/>
    </g>
    <g id="text_20">
     <!-- −2 -->
     <g transform="translate(764.790645 283.494746) scale(0.1 -0.1)">
      <use xlink:href="#DejaVuSans-2212"/>
      <use xlink:href="#DejaVuSans-32" x="83.789062"/>
     </g>
    </g>
   </g>
   <g id="xtick_19">
    <g id="line2d_22">
     <path d="M 753.281332 239.56289 
L 759.672604 241.304239 
" style="fill: none; stroke: #000000; stroke-width: 0.8; stroke-linecap: square"/>
    </g>
    <g id="text_21">
     <!-- 0 -->
     <g transform="translate(770.893116 245.24076) scale(0.1 -0.1)">
      <use xlink:href="#DejaVuSans-30"/>
     </g>
    </g>
   </g>
   <g id="xtick_20">
    <g id="line2d_23">
     <path d="M 755.046602 200.597973 
L 761.496588 202.306959 
" style="fill: none; stroke: #000000; stroke-width: 0.8; stroke-linecap: square"/>
    </g>
    <g id="text_22">
     <!-- 2 -->
     <g transform="translate(772.839501 206.311581) scale(0.1 -0.1)">
      <use xlink:href="#DejaVuSans-32"/>
     </g>
    </g>
   </g>
   <g id="xtick_21">
    <g id="line2d_24">
     <path d="M 756.843351 160.938244 
L 763.353137 162.613429 
" style="fill: none; stroke: #000000; stroke-width: 0.8; stroke-linecap: square"/>
    </g>
    <g id="text_23">
     <!-- 4 -->
     <g transform="translate(774.820546 166.689174) scale(0.1 -0.1)">
      <use xlink:href="#DejaVuSans-34"/>
     </g>
    </g>
   </g>
   <g id="text_24">
    <!-- Z [m] -->
    <g transform="translate(798.452774 251.395287) rotate(-87.378092) scale(0.12 -0.12)">
     <defs>
      <path id="DejaVuSans-5a" d="M 359 4666 
L 4025 4666 
L 4025 4184 
L 1075 531 
L 4097 531 
L 4097 0 
L 288 0 
L 288 481 
L 3238 4134 
L 359 4134 
L 359 4666 
z
" transform="scale(0.015625)"/>
     </defs>
     <use xlink:href="#DejaVuSans-5a"/>
     <use xlink:href="#DejaVuSans-20" x="68.505859"/>
     <use xlink:href="#DejaVuSans-5b" x="100.292969"/>
     <use xlink:href="#DejaVuSans-6d" x="139.306641"/>
     <use xlink:href="#DejaVuSans-5d" x="236.71875"/>
    </g>
   </g>
  </g>
  <g id="axes_1">
   <g id="Line3DCollection_4">
    <path d="M 577.105901 256.734928 
L 484.525378 276.434532 
" clip-path="url(#pc789a11ec8)" style="fill: none; stroke: #bfbf00; stroke-width: 1.5"/>
    <path d="M 577.105901 256.734928 
L 568.263266 261.134663 
" clip-path="url(#pc789a11ec8)" style="fill: none; stroke: #bfbf00; stroke-width: 1.5"/>
    <path d="M 577.105901 256.734928 
L 568.280205 256.091828 
" clip-path="url(#pc789a11ec8)" style="fill: none; stroke: #bfbf00; stroke-width: 1.5"/>
   </g>
   <g id="text_25">
    <!-- a: (3.00, 4.00, 0.00) -->
    <g style="fill: #bfbf00" transform="translate(582.581877 255.569731) scale(0.1 -0.1)">
     <defs>
      <path id="DejaVuSans-61" d="M 2194 1759 
Q 1497 1759 1228 1600 
Q 959 1441 959 1056 
Q 959 750 1161 570 
Q 1363 391 1709 391 
Q 2188 391 2477 730 
Q 2766 1069 2766 1631 
L 2766 1759 
L 2194 1759 
z
M 3341 1997 
L 3341 0 
L 2766 0 
L 2766 531 
Q 2569 213 2275 61 
Q 1981 -91 1556 -91 
Q 1019 -91 701 211 
Q 384 513 384 1019 
Q 384 1609 779 1909 
Q 1175 2209 1959 2209 
L 2766 2209 
L 2766 2266 
Q 2766 2663 2505 2880 
Q 2244 3097 1772 3097 
Q 1472 3097 1187 3025 
Q 903 2953 641 2809 
L 641 3341 
Q 956 3463 1253 3523 
Q 1550 3584 1831 3584 
Q 2591 3584 2966 3190 
Q 3341 2797 3341 1997 
z
" transform="scale(0.015625)"/>
      <path id="DejaVuSans-3a" d="M 750 794 
L 1409 794 
L 1409 0 
L 750 0 
L 750 794 
z
M 750 3309 
L 1409 3309 
L 1409 2516 
L 750 2516 
L 750 3309 
z
" transform="scale(0.015625)"/>
      <path id="DejaVuSans-28" d="M 1984 4856 
Q 1566 4138 1362 3434 
Q 1159 2731 1159 2009 
Q 1159 1288 1364 580 
Q 1569 -128 1984 -844 
L 1484 -844 
Q 1016 -109 783 600 
Q 550 1309 550 2009 
Q 550 2706 781 3412 
Q 1013 4119 1484 4856 
L 1984 4856 
z
" transform="scale(0.015625)"/>
      <path id="DejaVuSans-33" d="M 2597 2516 
Q 3050 2419 3304 2112 
Q 3559 1806 3559 1356 
Q 3559 666 3084 287 
Q 2609 -91 1734 -91 
Q 1441 -91 1130 -33 
Q 819 25 488 141 
L 488 750 
Q 750 597 1062 519 
Q 1375 441 1716 441 
Q 2309 441 2620 675 
Q 2931 909 2931 1356 
Q 2931 1769 2642 2001 
Q 2353 2234 1838 2234 
L 1294 2234 
L 1294 2753 
L 1863 2753 
Q 2328 2753 2575 2939 
Q 2822 3125 2822 3475 
Q 2822 3834 2567 4026 
Q 2313 4219 1838 4219 
Q 1578 4219 1281 4162 
Q 984 4106 628 3988 
L 628 4550 
Q 988 4650 1302 4700 
Q 1616 4750 1894 4750 
Q 2613 4750 3031 4423 
Q 3450 4097 3450 3541 
Q 3450 3153 3228 2886 
Q 3006 2619 2597 2516 
z
" transform="scale(0.015625)"/>
      <path id="DejaVuSans-2e" d="M 684 794 
L 1344 794 
L 1344 0 
L 684 0 
L 684 794 
z
" transform="scale(0.015625)"/>
      <path id="DejaVuSans-2c" d="M 750 794 
L 1409 794 
L 1409 256 
L 897 -744 
L 494 -744 
L 750 256 
L 750 794 
z
" transform="scale(0.015625)"/>
      <path id="DejaVuSans-29" d="M 513 4856 
L 1013 4856 
Q 1481 4119 1714 3412 
Q 1947 2706 1947 2009 
Q 1947 1309 1714 600 
Q 1481 -109 1013 -844 
L 513 -844 
Q 928 -128 1133 580 
Q 1338 1288 1338 2009 
Q 1338 2731 1133 3434 
Q 928 4138 513 4856 
z
" transform="scale(0.015625)"/>
     </defs>
     <use xlink:href="#DejaVuSans-61"/>
     <use xlink:href="#DejaVuSans-3a" x="61.279297"/>
     <use xlink:href="#DejaVuSans-20" x="94.970703"/>
     <use xlink:href="#DejaVuSans-28" x="126.757812"/>
     <use xlink:href="#DejaVuSans-33" x="165.771484"/>
     <use xlink:href="#DejaVuSans-2e" x="229.394531"/>
     <use xlink:href="#DejaVuSans-30" x="261.181641"/>
     <use xlink:href="#DejaVuSans-30" x="324.804688"/>
     <use xlink:href="#DejaVuSans-2c" x="388.427734"/>
     <use xlink:href="#DejaVuSans-20" x="420.214844"/>
     <use xlink:href="#DejaVuSans-34" x="452.001953"/>
     <use xlink:href="#DejaVuSans-2e" x="515.625"/>
     <use xlink:href="#DejaVuSans-30" x="547.412109"/>
     <use xlink:href="#DejaVuSans-30" x="611.035156"/>
     <use xlink:href="#DejaVuSans-2c" x="674.658203"/>
     <use xlink:href="#DejaVuSans-20" x="706.445312"/>
     <use xlink:href="#DejaVuSans-30" x="738.232422"/>
     <use xlink:href="#DejaVuSans-2e" x="801.855469"/>
     <use xlink:href="#DejaVuSans-30" x="833.642578"/>
     <use xlink:href="#DejaVuSans-30" x="897.265625"/>
     <use xlink:href="#DejaVuSans-29" x="960.888672"/>
    </g>
   </g>
   <g id="text_26">
    <!-- F: (7.50, 10.00, 0.00) -->
    <g style="fill: #ff0000" transform="translate(716.677501 227.036401) scale(0.1 -0.1)">
     <defs>
      <path id="DejaVuSans-46" d="M 628 4666 
L 3309 4666 
L 3309 4134 
L 1259 4134 
L 1259 2759 
L 3109 2759 
L 3109 2228 
L 1259 2228 
L 1259 0 
L 628 0 
L 628 4666 
z
" transform="scale(0.015625)"/>
      <path id="DejaVuSans-37" d="M 525 4666 
L 3525 4666 
L 3525 4397 
L 1831 0 
L 1172 0 
L 2766 4134 
L 525 4134 
L 525 4666 
z
" transform="scale(0.015625)"/>
      <path id="DejaVuSans-35" d="M 691 4666 
L 3169 4666 
L 3169 4134 
L 1269 4134 
L 1269 2991 
Q 1406 3038 1543 3061 
Q 1681 3084 1819 3084 
Q 2600 3084 3056 2656 
Q 3513 2228 3513 1497 
Q 3513 744 3044 326 
Q 2575 -91 1722 -91 
Q 1428 -91 1123 -41 
Q 819 9 494 109 
L 494 744 
Q 775 591 1075 516 
Q 1375 441 1709 441 
Q 2250 441 2565 725 
Q 2881 1009 2881 1497 
Q 2881 1984 2565 2268 
Q 2250 2553 1709 2553 
Q 1456 2553 1204 2497 
Q 953 2441 691 2322 
L 691 4666 
z
" transform="scale(0.015625)"/>
     </defs>
     <use xlink:href="#DejaVuSans-46"/>
     <use xlink:href="#DejaVuSans-3a" x="49.769531"/>
     <use xlink:href="#DejaVuSans-20" x="83.460938"/>
     <use xlink:href="#DejaVuSans-28" x="115.248047"/>
     <use xlink:href="#DejaVuSans-37" x="154.261719"/>
     <use xlink:href="#DejaVuSans-2e" x="217.884766"/>
     <use xlink:href="#DejaVuSans-35" x="249.671875"/>
     <use xlink:href="#DejaVuSans-30" x="313.294922"/>
     <use xlink:href="#DejaVuSans-2c" x="376.917969"/>
     <use xlink:href="#DejaVuSans-20" x="408.705078"/>
     <use xlink:href="#DejaVuSans-31" x="440.492188"/>
     <use xlink:href="#DejaVuSans-30" x="504.115234"/>
     <use xlink:href="#DejaVuSans-2e" x="567.738281"/>
     <use xlink:href="#DejaVuSans-30" x="599.525391"/>
     <use xlink:href="#DejaVuSans-30" x="663.148438"/>
     <use xlink:href="#DejaVuSans-2c" x="726.771484"/>
     <use xlink:href="#DejaVuSans-20" x="758.558594"/>
     <use xlink:href="#DejaVuSans-30" x="790.345703"/>
     <use xlink:href="#DejaVuSans-2e" x="853.96875"/>
     <use xlink:href="#DejaVuSans-30" x="885.755859"/>
     <use xlink:href="#DejaVuSans-30" x="949.378906"/>
     <use xlink:href="#DejaVuSans-29" x="1013.001953"/>
    </g>
   </g>
   <g id="text_27">
    <!-- r: (0.50, 0.00, 1.20) -->
    <g style="fill: #008000" transform="translate(494.778215 250.322408) scale(0.1 -0.1)">
     <defs>
      <path id="DejaVuSans-72" d="M 2631 2963 
Q 2534 3019 2420 3045 
Q 2306 3072 2169 3072 
Q 1681 3072 1420 2755 
Q 1159 2438 1159 1844 
L 1159 0 
L 581 0 
L 581 3500 
L 1159 3500 
L 1159 2956 
Q 1341 3275 1631 3429 
Q 1922 3584 2338 3584 
Q 2397 3584 2469 3576 
Q 2541 3569 2628 3553 
L 2631 2963 
z
" transform="scale(0.015625)"/>
     </defs>
     <use xlink:href="#DejaVuSans-72"/>
     <use xlink:href="#DejaVuSans-3a" x="39.363281"/>
     <use xlink:href="#DejaVuSans-20" x="73.054688"/>
     <use xlink:href="#DejaVuSans-28" x="104.841797"/>
     <use xlink:href="#DejaVuSans-30" x="143.855469"/>
     <use xlink:href="#DejaVuSans-2e" x="207.478516"/>
     <use xlink:href="#DejaVuSans-35" x="239.265625"/>
     <use xlink:href="#DejaVuSans-30" x="302.888672"/>
     <use xlink:href="#DejaVuSans-2c" x="366.511719"/>
     <use xlink:href="#DejaVuSans-20" x="398.298828"/>
     <use xlink:href="#DejaVuSans-30" x="430.085938"/>
     <use xlink:href="#DejaVuSans-2e" x="493.708984"/>
     <use xlink:href="#DejaVuSans-30" x="525.496094"/>
     <use xlink:href="#DejaVuSans-30" x="589.119141"/>
     <use xlink:href="#DejaVuSans-2c" x="652.742188"/>
     <use xlink:href="#DejaVuSans-20" x="684.529297"/>
     <use xlink:href="#DejaVuSans-31" x="716.316406"/>
     <use xlink:href="#DejaVuSans-2e" x="779.939453"/>
     <use xlink:href="#DejaVuSans-32" x="811.726562"/>
     <use xlink:href="#DejaVuSans-30" x="875.349609"/>
     <use xlink:href="#DejaVuSans-29" x="938.972656"/>
    </g>
   </g>
   <g id="text_28">
    <!-- M (skaliert um 0.3): (-3.60, 2.70, 1.50) -->
    <g style="fill: #0000ff" transform="translate(448.984106 202.105205) scale(0.1 -0.1)">
     <defs>
      <path id="DejaVuSans-4d" d="M 628 4666 
L 1569 4666 
L 2759 1491 
L 3956 4666 
L 4897 4666 
L 4897 0 
L 4281 0 
L 4281 4097 
L 3078 897 
L 2444 897 
L 1241 4097 
L 1241 0 
L 628 0 
L 628 4666 
z
" transform="scale(0.015625)"/>
      <path id="DejaVuSans-73" d="M 2834 3397 
L 2834 2853 
Q 2591 2978 2328 3040 
Q 2066 3103 1784 3103 
Q 1356 3103 1142 2972 
Q 928 2841 928 2578 
Q 928 2378 1081 2264 
Q 1234 2150 1697 2047 
L 1894 2003 
Q 2506 1872 2764 1633 
Q 3022 1394 3022 966 
Q 3022 478 2636 193 
Q 2250 -91 1575 -91 
Q 1294 -91 989 -36 
Q 684 19 347 128 
L 347 722 
Q 666 556 975 473 
Q 1284 391 1588 391 
Q 1994 391 2212 530 
Q 2431 669 2431 922 
Q 2431 1156 2273 1281 
Q 2116 1406 1581 1522 
L 1381 1569 
Q 847 1681 609 1914 
Q 372 2147 372 2553 
Q 372 3047 722 3315 
Q 1072 3584 1716 3584 
Q 2034 3584 2315 3537 
Q 2597 3491 2834 3397 
z
" transform="scale(0.015625)"/>
      <path id="DejaVuSans-6b" d="M 581 4863 
L 1159 4863 
L 1159 1991 
L 2875 3500 
L 3609 3500 
L 1753 1863 
L 3688 0 
L 2938 0 
L 1159 1709 
L 1159 0 
L 581 0 
L 581 4863 
z
" transform="scale(0.015625)"/>
      <path id="DejaVuSans-6c" d="M 603 4863 
L 1178 4863 
L 1178 0 
L 603 0 
L 603 4863 
z
" transform="scale(0.015625)"/>
      <path id="DejaVuSans-69" d="M 603 3500 
L 1178 3500 
L 1178 0 
L 603 0 
L 603 3500 
z
M 603 4863 
L 1178 4863 
L 1178 4134 
L 603 4134 
L 603 4863 
z
" transform="scale(0.015625)"/>
      <path id="DejaVuSans-65" d="M 3597 1894 
L 3597 1613 
L 953 1613 
Q 991 1019 1311 708 
Q 1631 397 2203 397 
Q 2534 397 2845 478 
Q 3156 559 3463 722 
L 3463 178 
Q 3153 47 2828 -22 
Q 2503 -91 2169 -91 
Q 1331 -91 842 396 
Q 353 884 353 1716 
Q 353 2575 817 3079 
Q 1281 3584 2069 3584 
Q 2775 3584 3186 3129 
Q 3597 2675 3597 1894 
z
M 3022 2063 
Q 3016 2534 2758 2815 
Q 2500 3097 2075 3097 
Q 1594 3097 1305 2825 
Q 1016 2553 972 2059 
L 3022 2063 
z
" transform="scale(0.015625)"/>
      <path id="DejaVuSans-74" d="M 1172 4494 
L 1172 3500 
L 2356 3500 
L 2356 3053 
L 1172 3053 
L 1172 1153 
Q 1172 725 1289 603 
Q 1406 481 1766 481 
L 2356 481 
L 2356 0 
L 1766 0 
Q 1100 0 847 248 
Q 594 497 594 1153 
L 594 3053 
L 172 3053 
L 172 3500 
L 594 3500 
L 594 4494 
L 1172 4494 
z
" transform="scale(0.015625)"/>
      <path id="DejaVuSans-75" d="M 544 1381 
L 544 3500 
L 1119 3500 
L 1119 1403 
Q 1119 906 1312 657 
Q 1506 409 1894 409 
Q 2359 409 2629 706 
Q 2900 1003 2900 1516 
L 2900 3500 
L 3475 3500 
L 3475 0 
L 2900 0 
L 2900 538 
Q 2691 219 2414 64 
Q 2138 -91 1772 -91 
Q 1169 -91 856 284 
Q 544 659 544 1381 
z
M 1991 3584 
L 1991 3584 
z
" transform="scale(0.015625)"/>
      <path id="DejaVuSans-2d" d="M 313 2009 
L 1997 2009 
L 1997 1497 
L 313 1497 
L 313 2009 
z
" transform="scale(0.015625)"/>
     </defs>
     <use xlink:href="#DejaVuSans-4d"/>
     <use xlink:href="#DejaVuSans-20" x="86.279297"/>
     <use xlink:href="#DejaVuSans-28" x="118.066406"/>
     <use xlink:href="#DejaVuSans-73" x="157.080078"/>
     <use xlink:href="#DejaVuSans-6b" x="209.179688"/>
     <use xlink:href="#DejaVuSans-61" x="265.339844"/>
     <use xlink:href="#DejaVuSans-6c" x="326.619141"/>
     <use xlink:href="#DejaVuSans-69" x="354.402344"/>
     <use xlink:href="#DejaVuSans-65" x="382.185547"/>
     <use xlink:href="#DejaVuSans-72" x="443.708984"/>
     <use xlink:href="#DejaVuSans-74" x="484.822266"/>
     <use xlink:href="#DejaVuSans-20" x="524.03125"/>
     <use xlink:href="#DejaVuSans-75" x="555.818359"/>
     <use xlink:href="#DejaVuSans-6d" x="619.197266"/>
     <use xlink:href="#DejaVuSans-20" x="716.609375"/>
     <use xlink:href="#DejaVuSans-30" x="748.396484"/>
     <use xlink:href="#DejaVuSans-2e" x="812.019531"/>
     <use xlink:href="#DejaVuSans-33" x="843.806641"/>
     <use xlink:href="#DejaVuSans-29" x="907.429688"/>
     <use xlink:href="#DejaVuSans-3a" x="946.443359"/>
     <use xlink:href="#DejaVuSans-20" x="980.134766"/>
     <use xlink:href="#DejaVuSans-28" x="1011.921875"/>
     <use xlink:href="#DejaVuSans-2d" x="1050.935547"/>
     <use xlink:href="#DejaVuSans-33" x="1087.019531"/>
     <use xlink:href="#DejaVuSans-2e" x="1150.642578"/>
     <use xlink:href="#DejaVuSans-36" x="1182.429688"/>
     <use xlink:href="#DejaVuSans-30" x="1246.052734"/>
     <use xlink:href="#DejaVuSans-2c" x="1309.675781"/>
     <use xlink:href="#DejaVuSans-20" x="1341.462891"/>
     <use xlink:href="#DejaVuSans-32" x="1373.25"/>
     <use xlink:href="#DejaVuSans-2e" x="1436.873047"/>
     <use xlink:href="#DejaVuSans-37" x="1468.660156"/>
     <use xlink:href="#DejaVuSans-30" x="1532.283203"/>
     <use xlink:href="#DejaVuSans-2c" x="1595.90625"/>
     <use xlink:href="#DejaVuSans-20" x="1627.693359"/>
     <use xlink:href="#DejaVuSans-31" x="1659.480469"/>
     <use xlink:href="#DejaVuSans-2e" x="1723.103516"/>
     <use xlink:href="#DejaVuSans-35" x="1754.890625"/>
     <use xlink:href="#DejaVuSans-30" x="1818.513672"/>
     <use xlink:href="#DejaVuSans-29" x="1882.136719"/>
    </g>
   </g>
   <g id="text_29">
    <!-- m = 2.500 kg -->
    <g transform="translate(484.525378 276.434532) scale(0.1 -0.1)">
     <defs>
      <path id="DejaVuSans-3d" d="M 678 2906 
L 4684 2906 
L 4684 2381 
L 678 2381 
L 678 2906 
z
M 678 1631 
L 4684 1631 
L 4684 1100 
L 678 1100 
L 678 1631 
z
" transform="scale(0.015625)"/>
      <path id="DejaVuSans-67" d="M 2906 1791 
Q 2906 2416 2648 2759 
Q 2391 3103 1925 3103 
Q 1463 3103 1205 2759 
Q 947 2416 947 1791 
Q 947 1169 1205 825 
Q 1463 481 1925 481 
Q 2391 481 2648 825 
Q 2906 1169 2906 1791 
z
M 3481 434 
Q 3481 -459 3084 -895 
Q 2688 -1331 1869 -1331 
Q 1566 -1331 1297 -1286 
Q 1028 -1241 775 -1147 
L 775 -588 
Q 1028 -725 1275 -790 
Q 1522 -856 1778 -856 
Q 2344 -856 2625 -561 
Q 2906 -266 2906 331 
L 2906 616 
Q 2728 306 2450 153 
Q 2172 0 1784 0 
Q 1141 0 747 490 
Q 353 981 353 1791 
Q 353 2603 747 3093 
Q 1141 3584 1784 3584 
Q 2172 3584 2450 3431 
Q 2728 3278 2906 2969 
L 2906 3500 
L 3481 3500 
L 3481 434 
z
" transform="scale(0.015625)"/>
     </defs>
     <use xlink:href="#DejaVuSans-6d"/>
     <use xlink:href="#DejaVuSans-20" x="97.412109"/>
     <use xlink:href="#DejaVuSans-3d" x="129.199219"/>
     <use xlink:href="#DejaVuSans-20" x="212.988281"/>
     <use xlink:href="#DejaVuSans-32" x="244.775391"/>
     <use xlink:href="#DejaVuSans-2e" x="308.398438"/>
     <use xlink:href="#DejaVuSans-35" x="340.185547"/>
     <use xlink:href="#DejaVuSans-30" x="403.808594"/>
     <use xlink:href="#DejaVuSans-30" x="467.431641"/>
     <use xlink:href="#DejaVuSans-20" x="531.054688"/>
     <use xlink:href="#DejaVuSans-6b" x="562.841797"/>
     <use xlink:href="#DejaVuSans-67" x="620.751953"/>
    </g>
   </g>
   <g id="text_30">
    <!-- Kraft $\mathbf{F} = m \cdot \mathbf{a}$ [N] und -->
    <g transform="translate(469.64 17.837813) scale(0.14 -0.14)">
     <defs>
      <path id="DejaVuSans-4b" d="M 628 4666 
L 1259 4666 
L 1259 2694 
L 3353 4666 
L 4166 4666 
L 1850 2491 
L 4331 0 
L 3500 0 
L 1259 2247 
L 1259 0 
L 628 0 
L 628 4666 
z
" transform="scale(0.015625)"/>
      <path id="DejaVuSans-66" d="M 2375 4863 
L 2375 4384 
L 1825 4384 
Q 1516 4384 1395 4259 
Q 1275 4134 1275 3809 
L 1275 3500 
L 2222 3500 
L 2222 3053 
L 1275 3053 
L 1275 0 
L 697 0 
L 697 3053 
L 147 3053 
L 147 3500 
L 697 3500 
L 697 3744 
Q 697 4328 969 4595 
Q 1241 4863 1831 4863 
L 2375 4863 
z
" transform="scale(0.015625)"/>
      <path id="DejaVuSans-Bold-46" d="M 588 4666 
L 3834 4666 
L 3834 3756 
L 1791 3756 
L 1791 2888 
L 3713 2888 
L 3713 1978 
L 1791 1978 
L 1791 0 
L 588 0 
L 588 4666 
z
" transform="scale(0.015625)"/>
      <path id="DejaVuSans-Oblique-6d" d="M 5747 2113 
L 5338 0 
L 4763 0 
L 5166 2094 
Q 5191 2228 5203 2325 
Q 5216 2422 5216 2491 
Q 5216 2772 5059 2928 
Q 4903 3084 4622 3084 
Q 4203 3084 3875 2770 
Q 3547 2456 3450 1953 
L 3066 0 
L 2491 0 
L 2900 2094 
Q 2925 2209 2937 2307 
Q 2950 2406 2950 2484 
Q 2950 2769 2794 2926 
Q 2638 3084 2363 3084 
Q 1938 3084 1609 2770 
Q 1281 2456 1184 1953 
L 800 0 
L 225 0 
L 909 3500 
L 1484 3500 
L 1375 2956 
Q 1609 3263 1923 3423 
Q 2238 3584 2597 3584 
Q 2978 3584 3223 3384 
Q 3469 3184 3519 2828 
Q 3781 3197 4126 3390 
Q 4472 3584 4856 3584 
Q 5306 3584 5551 3325 
Q 5797 3066 5797 2591 
Q 5797 2488 5784 2364 
Q 5772 2241 5747 2113 
z
" transform="scale(0.015625)"/>
      <path id="DejaVuSans-22c5" d="M 684 2619 
L 1344 2619 
L 1344 1825 
L 684 1825 
L 684 2619 
z
" transform="scale(0.015625)"/>
      <path id="DejaVuSans-Bold-61" d="M 2106 1575 
Q 1756 1575 1579 1456 
Q 1403 1338 1403 1106 
Q 1403 894 1545 773 
Q 1688 653 1941 653 
Q 2256 653 2472 879 
Q 2688 1106 2688 1447 
L 2688 1575 
L 2106 1575 
z
M 3816 1997 
L 3816 0 
L 2688 0 
L 2688 519 
Q 2463 200 2181 54 
Q 1900 -91 1497 -91 
Q 953 -91 614 226 
Q 275 544 275 1050 
Q 275 1666 698 1953 
Q 1122 2241 2028 2241 
L 2688 2241 
L 2688 2328 
Q 2688 2594 2478 2717 
Q 2269 2841 1825 2841 
Q 1466 2841 1156 2769 
Q 847 2697 581 2553 
L 581 3406 
Q 941 3494 1303 3539 
Q 1666 3584 2028 3584 
Q 2975 3584 3395 3211 
Q 3816 2838 3816 1997 
z
" transform="scale(0.015625)"/>
      <path id="DejaVuSans-4e" d="M 628 4666 
L 1478 4666 
L 3547 763 
L 3547 4666 
L 4159 4666 
L 4159 0 
L 3309 0 
L 1241 3903 
L 1241 0 
L 628 0 
L 628 4666 
z
" transform="scale(0.015625)"/>
      <path id="DejaVuSans-6e" d="M 3513 2113 
L 3513 0 
L 2938 0 
L 2938 2094 
Q 2938 2591 2744 2837 
Q 2550 3084 2163 3084 
Q 1697 3084 1428 2787 
Q 1159 2491 1159 1978 
L 1159 0 
L 581 0 
L 581 3500 
L 1159 3500 
L 1159 2956 
Q 1366 3272 1645 3428 
Q 1925 3584 2291 3584 
Q 2894 3584 3203 3211 
Q 3513 2838 3513 2113 
z
" transform="scale(0.015625)"/>
      <path id="DejaVuSans-64" d="M 2906 2969 
L 2906 4863 
L 3481 4863 
L 3481 0 
L 2906 0 
L 2906 525 
Q 2725 213 2448 61 
Q 2172 -91 1784 -91 
Q 1150 -91 751 415 
Q 353 922 353 1747 
Q 353 2572 751 3078 
Q 1150 3584 1784 3584 
Q 2172 3584 2448 3432 
Q 2725 3281 2906 2969 
z
M 947 1747 
Q 947 1113 1208 752 
Q 1469 391 1925 391 
Q 2381 391 2643 752 
Q 2906 1113 2906 1747 
Q 2906 2381 2643 2742 
Q 2381 3103 1925 3103 
Q 1469 3103 1208 2742 
Q 947 2381 947 1747 
z
" transform="scale(0.015625)"/>
     </defs>
     <use xlink:href="#DejaVuSans-4b" transform="translate(0 0.015625)"/>
     <use xlink:href="#DejaVuSans-72" transform="translate(65.576172 0.015625)"/>
     <use xlink:href="#DejaVuSans-61" transform="translate(106.689453 0.015625)"/>
     <use xlink:href="#DejaVuSans-66" transform="translate(167.96875 0.015625)"/>
     <use xlink:href="#DejaVuSans-74" transform="translate(203.173828 0.015625)"/>
     <use xlink:href="#DejaVuSans-20" transform="translate(242.382812 0.015625)"/>
     <use xlink:href="#DejaVuSans-Bold-46" transform="translate(274.169922 0.015625)"/>
     <use xlink:href="#DejaVuSans-3d" transform="translate(361.962891 0.015625)"/>
     <use xlink:href="#DejaVuSans-Oblique-6d" transform="translate(465.234375 0.015625)"/>
     <use xlink:href="#DejaVuSans-22c5" transform="translate(582.128906 0.015625)"/>
     <use xlink:href="#DejaVuSans-Bold-61" transform="translate(633.398438 0.015625)"/>
     <use xlink:href="#DejaVuSans-20" transform="translate(700.878906 0.015625)"/>
     <use xlink:href="#DejaVuSans-5b" transform="translate(732.666016 0.015625)"/>
     <use xlink:href="#DejaVuSans-4e" transform="translate(771.679688 0.015625)"/>
     <use xlink:href="#DejaVuSans-5d" transform="translate(846.484375 0.015625)"/>
     <use xlink:href="#DejaVuSans-20" transform="translate(885.498047 0.015625)"/>
     <use xlink:href="#DejaVuSans-75" transform="translate(917.285156 0.015625)"/>
     <use xlink:href="#DejaVuSans-6e" transform="translate(980.664062 0.015625)"/>
     <use xlink:href="#DejaVuSans-64" transform="translate(1044.042969 0.015625)"/>
    </g>
    <!-- Drehmoment $\mathbf{M} = \mathbf{r} \times \mathbf{F}$ [N·m] -->
    <g transform="translate(444.44 33.51475) scale(0.14 -0.14)">
     <defs>
      <path id="DejaVuSans-44" d="M 1259 4147 
L 1259 519 
L 2022 519 
Q 2988 519 3436 956 
Q 3884 1394 3884 2338 
Q 3884 3275 3436 3711 
Q 2988 4147 2022 4147 
L 1259 4147 
z
M 628 4666 
L 1925 4666 
Q 3281 4666 3915 4102 
Q 4550 3538 4550 2338 
Q 4550 1131 3912 565 
Q 3275 0 1925 0 
L 628 0 
L 628 4666 
z
" transform="scale(0.015625)"/>
      <path id="DejaVuSans-68" d="M 3513 2113 
L 3513 0 
L 2938 0 
L 2938 2094 
Q 2938 2591 2744 2837 
Q 2550 3084 2163 3084 
Q 1697 3084 1428 2787 
Q 1159 2491 1159 1978 
L 1159 0 
L 581 0 
L 581 4863 
L 1159 4863 
L 1159 2956 
Q 1366 3272 1645 3428 
Q 1925 3584 2291 3584 
Q 2894 3584 3203 3211 
Q 3513 2838 3513 2113 
z
" transform="scale(0.015625)"/>
      <path id="DejaVuSans-6f" d="M 1959 3097 
Q 1497 3097 1228 2736 
Q 959 2375 959 1747 
Q 959 1119 1226 758 
Q 1494 397 1959 397 
Q 2419 397 2687 759 
Q 2956 1122 2956 1747 
Q 2956 2369 2687 2733 
Q 2419 3097 1959 3097 
z
M 1959 3584 
Q 2709 3584 3137 3096 
Q 3566 2609 3566 1747 
Q 3566 888 3137 398 
Q 2709 -91 1959 -91 
Q 1206 -91 779 398 
Q 353 888 353 1747 
Q 353 2609 779 3096 
Q 1206 3584 1959 3584 
z
" transform="scale(0.015625)"/>
      <path id="DejaVuSans-Bold-4d" d="M 588 4666 
L 2119 4666 
L 3181 2169 
L 4250 4666 
L 5778 4666 
L 5778 0 
L 4641 0 
L 4641 3413 
L 3566 897 
L 2803 897 
L 1728 3413 
L 1728 0 
L 588 0 
L 588 4666 
z
" transform="scale(0.015625)"/>
      <path id="DejaVuSans-Bold-72" d="M 3138 2547 
Q 2991 2616 2845 2648 
Q 2700 2681 2553 2681 
Q 2122 2681 1889 2404 
Q 1656 2128 1656 1613 
L 1656 0 
L 538 0 
L 538 3500 
L 1656 3500 
L 1656 2925 
Q 1872 3269 2151 3426 
Q 2431 3584 2822 3584 
Q 2878 3584 2943 3579 
Q 3009 3575 3134 3559 
L 3138 2547 
z
" transform="scale(0.015625)"/>
      <path id="DejaVuSans-d7" d="M 4488 3438 
L 3059 2003 
L 4488 575 
L 4116 197 
L 2681 1631 
L 1247 197 
L 878 575 
L 2303 2003 
L 878 3438 
L 1247 3816 
L 2681 2381 
L 4116 3816 
L 4488 3438 
z
" transform="scale(0.015625)"/>
      <path id="DejaVuSans-b7" d="M 684 2619 
L 1344 2619 
L 1344 1825 
L 684 1825 
L 684 2619 
z
" transform="scale(0.015625)"/>
     </defs>
     <use xlink:href="#DejaVuSans-44" transform="translate(0 0.015625)"/>
     <use xlink:href="#DejaVuSans-72" transform="translate(77.001953 0.015625)"/>
     <use xlink:href="#DejaVuSans-65" transform="translate(118.115234 0.015625)"/>
     <use xlink:href="#DejaVuSans-68" transform="translate(179.638672 0.015625)"/>
     <use xlink:href="#DejaVuSans-6d" transform="translate(243.017578 0.015625)"/>
     <use xlink:href="#DejaVuSans-6f" transform="translate(340.429688 0.015625)"/>
     <use xlink:href="#DejaVuSans-6d" transform="translate(401.611328 0.015625)"/>
     <use xlink:href="#DejaVuSans-65" transform="translate(499.023438 0.015625)"/>
     <use xlink:href="#DejaVuSans-6e" transform="translate(560.546875 0.015625)"/>
     <use xlink:href="#DejaVuSans-74" transform="translate(623.925781 0.015625)"/>
     <use xlink:href="#DejaVuSans-20" transform="translate(663.134766 0.015625)"/>
     <use xlink:href="#DejaVuSans-Bold-4d" transform="translate(694.921875 0.015625)"/>
     <use xlink:href="#DejaVuSans-3d" transform="translate(813.916016 0.015625)"/>
     <use xlink:href="#DejaVuSans-Bold-72" transform="translate(917.1875 0.015625)"/>
     <use xlink:href="#DejaVuSans-d7" transform="translate(985.986328 0.015625)"/>
     <use xlink:href="#DejaVuSans-Bold-46" transform="translate(1089.257812 0.015625)"/>
     <use xlink:href="#DejaVuSans-20" transform="translate(1157.568359 0.015625)"/>
     <use xlink:href="#DejaVuSans-5b" transform="translate(1189.355469 0.015625)"/>
     <use xlink:href="#DejaVuSans-4e" transform="translate(1228.369141 0.015625)"/>
     <use xlink:href="#DejaVuSans-b7" transform="translate(1299.548828 0.015625)"/>
     <use xlink:href="#DejaVuSans-6d" transform="translate(1331.335938 0.015625)"/>
     <use xlink:href="#DejaVuSans-5d" transform="translate(1428.748047 0.015625)"/>
    </g>
   </g>
   <g id="Line3DCollection_5">
    <path d="M 711.41516 228.15614 
L 484.525378 276.434532 
" clip-path="url(#pc789a11ec8)" style="fill: none; stroke: #ff0000; stroke-width: 1.5"/>
    <path d="M 711.41516 228.15614 
L 689.959304 238.899406 
" clip-path="url(#pc789a11ec8)" style="fill: none; stroke: #ff0000; stroke-width: 1.5"/>
    <path d="M 711.41516 228.15614 
L 690.344643 226.444334 
" clip-path="url(#pc789a11ec8)" style="fill: none; stroke: #ff0000; stroke-width: 1.5"/>
   </g>
   <g id="Line3DCollection_6">
    <path d="M 451.052949 206.431885 
L 484.525378 276.434532 
" clip-path="url(#pc789a11ec8)" style="fill: none; stroke: #0000ff; stroke-width: 1.5"/>
    <path d="M 451.052949 206.431885 
L 453.996473 214.996465 
" clip-path="url(#pc789a11ec8)" style="fill: none; stroke: #0000ff; stroke-width: 1.5"/>
    <path d="M 451.052949 206.431885 
L 454.45078 211.125672 
" clip-path="url(#pc789a11ec8)" style="fill: none; stroke: #0000ff; stroke-width: 1.5"/>
   </g>
   <g id="legend_1">
    <g id="patch_6">
     <path d="M 320.2 106.22725 
L 449.125 106.22725 
Q 451.125 106.22725 451.125 104.22725 
L 451.125 46.51475 
Q 451.125 44.51475 449.125 44.51475 
L 320.2 44.51475 
Q 318.2 44.51475 318.2 46.51475 
L 318.2 104.22725 
Q 318.2 106.22725 320.2 106.22725 
z
" style="fill: #ffffff; opacity: 0.8; stroke: #cccccc; stroke-linejoin: miter"/>
    </g>
    <g id="line2d_25">
     <path d="M 322.2 52.613188 
L 342.2 52.613188 
" style="fill: none; stroke: #bfbf00; stroke-width: 1.5"/>
    </g>
    <g id="text_31">
     <!-- a (Beschleunigung) -->
     <g transform="translate(350.2 56.113188) scale(0.1 -0.1)">
      <defs>
       <path id="DejaVuSans-42" d="M 1259 2228 
L 1259 519 
L 2272 519 
Q 2781 519 3026 730 
Q 3272 941 3272 1375 
Q 3272 1813 3026 2020 
Q 2781 2228 2272 2228 
L 1259 2228 
z
M 1259 4147 
L 1259 2741 
L 2194 2741 
Q 2656 2741 2882 2914 
Q 3109 3088 3109 3444 
Q 3109 3797 2882 3972 
Q 2656 4147 2194 4147 
L 1259 4147 
z
M 628 4666 
L 2241 4666 
Q 2963 4666 3353 4366 
Q 3744 4066 3744 3513 
Q 3744 3084 3544 2831 
Q 3344 2578 2956 2516 
Q 3422 2416 3680 2098 
Q 3938 1781 3938 1306 
Q 3938 681 3513 340 
Q 3088 0 2303 0 
L 628 0 
L 628 4666 
z
" transform="scale(0.015625)"/>
       <path id="DejaVuSans-63" d="M 3122 3366 
L 3122 2828 
Q 2878 2963 2633 3030 
Q 2388 3097 2138 3097 
Q 1578 3097 1268 2742 
Q 959 2388 959 1747 
Q 959 1106 1268 751 
Q 1578 397 2138 397 
Q 2388 397 2633 464 
Q 2878 531 3122 666 
L 3122 134 
Q 2881 22 2623 -34 
Q 2366 -91 2075 -91 
Q 1284 -91 818 406 
Q 353 903 353 1747 
Q 353 2603 823 3093 
Q 1294 3584 2113 3584 
Q 2378 3584 2631 3529 
Q 2884 3475 3122 3366 
z
" transform="scale(0.015625)"/>
      </defs>
      <use xlink:href="#DejaVuSans-61"/>
      <use xlink:href="#DejaVuSans-20" x="61.279297"/>
      <use xlink:href="#DejaVuSans-28" x="93.066406"/>
      <use xlink:href="#DejaVuSans-42" x="132.080078"/>
      <use xlink:href="#DejaVuSans-65" x="200.683594"/>
      <use xlink:href="#DejaVuSans-73" x="262.207031"/>
      <use xlink:href="#DejaVuSans-63" x="314.306641"/>
      <use xlink:href="#DejaVuSans-68" x="369.287109"/>
      <use xlink:href="#DejaVuSans-6c" x="432.666016"/>
      <use xlink:href="#DejaVuSans-65" x="460.449219"/>
      <use xlink:href="#DejaVuSans-75" x="521.972656"/>
      <use xlink:href="#DejaVuSans-6e" x="585.351562"/>
      <use xlink:href="#DejaVuSans-69" x="648.730469"/>
      <use xlink:href="#DejaVuSans-67" x="676.513672"/>
      <use xlink:href="#DejaVuSans-75" x="739.990234"/>
      <use xlink:href="#DejaVuSans-6e" x="803.369141"/>
      <use xlink:href="#DejaVuSans-67" x="866.748047"/>
      <use xlink:href="#DejaVuSans-29" x="930.224609"/>
     </g>
    </g>
    <g id="line2d_26">
     <path d="M 322.2 67.291313 
L 342.2 67.291313 
" style="fill: none; stroke: #ff0000; stroke-width: 1.5"/>
    </g>
    <g id="text_32">
     <!-- F (Kraft) -->
     <g transform="translate(350.2 70.791313) scale(0.1 -0.1)">
      <use xlink:href="#DejaVuSans-46"/>
      <use xlink:href="#DejaVuSans-20" x="57.519531"/>
      <use xlink:href="#DejaVuSans-28" x="89.306641"/>
      <use xlink:href="#DejaVuSans-4b" x="128.320312"/>
      <use xlink:href="#DejaVuSans-72" x="193.896484"/>
      <use xlink:href="#DejaVuSans-61" x="235.009766"/>
      <use xlink:href="#DejaVuSans-66" x="296.289062"/>
      <use xlink:href="#DejaVuSans-74" x="329.744141"/>
      <use xlink:href="#DejaVuSans-29" x="368.953125"/>
     </g>
    </g>
    <g id="line2d_27">
     <path d="M 322.2 81.969438 
L 342.2 81.969438 
" style="fill: none; stroke: #008000; stroke-width: 1.5"/>
    </g>
    <g id="text_33">
     <!-- r (Hebelarm) -->
     <g transform="translate(350.2 85.469438) scale(0.1 -0.1)">
      <defs>
       <path id="DejaVuSans-48" d="M 628 4666 
L 1259 4666 
L 1259 2753 
L 3553 2753 
L 3553 4666 
L 4184 4666 
L 4184 0 
L 3553 0 
L 3553 2222 
L 1259 2222 
L 1259 0 
L 628 0 
L 628 4666 
z
" transform="scale(0.015625)"/>
       <path id="DejaVuSans-62" d="M 3116 1747 
Q 3116 2381 2855 2742 
Q 2594 3103 2138 3103 
Q 1681 3103 1420 2742 
Q 1159 2381 1159 1747 
Q 1159 1113 1420 752 
Q 1681 391 2138 391 
Q 2594 391 2855 752 
Q 3116 1113 3116 1747 
z
M 1159 2969 
Q 1341 3281 1617 3432 
Q 1894 3584 2278 3584 
Q 2916 3584 3314 3078 
Q 3713 2572 3713 1747 
Q 3713 922 3314 415 
Q 2916 -91 2278 -91 
Q 1894 -91 1617 61 
Q 1341 213 1159 525 
L 1159 0 
L 581 0 
L 581 4863 
L 1159 4863 
L 1159 2969 
z
" transform="scale(0.015625)"/>
      </defs>
      <use xlink:href="#DejaVuSans-72"/>
      <use xlink:href="#DejaVuSans-20" x="41.113281"/>
      <use xlink:href="#DejaVuSans-28" x="72.900391"/>
      <use xlink:href="#DejaVuSans-48" x="111.914062"/>
      <use xlink:href="#DejaVuSans-65" x="187.109375"/>
      <use xlink:href="#DejaVuSans-62" x="248.632812"/>
      <use xlink:href="#DejaVuSans-65" x="312.109375"/>
      <use xlink:href="#DejaVuSans-6c" x="373.632812"/>
      <use xlink:href="#DejaVuSans-61" x="401.416016"/>
      <use xlink:href="#DejaVuSans-72" x="462.695312"/>
      <use xlink:href="#DejaVuSans-6d" x="502.058594"/>
      <use xlink:href="#DejaVuSans-29" x="599.470703"/>
     </g>
    </g>
    <g id="line2d_28">
     <path d="M 322.2 96.647563 
L 342.2 96.647563 
" style="fill: none; stroke: #0000ff; stroke-width: 1.5"/>
    </g>
    <g id="text_34">
     <!-- M (Drehmoment) -->
     <g transform="translate(350.2 100.147563) scale(0.1 -0.1)">
      <use xlink:href="#DejaVuSans-4d"/>
      <use xlink:href="#DejaVuSans-20" x="86.279297"/>
      <use xlink:href="#DejaVuSans-28" x="118.066406"/>
      <use xlink:href="#DejaVuSans-44" x="157.080078"/>
      <use xlink:href="#DejaVuSans-72" x="234.082031"/>
      <use xlink:href="#DejaVuSans-65" x="272.945312"/>
      <use xlink:href="#DejaVuSans-68" x="334.46875"/>
      <use xlink:href="#DejaVuSans-6d" x="397.847656"/>
      <use xlink:href="#DejaVuSans-6f" x="495.259766"/>
      <use xlink:href="#DejaVuSans-6d" x="556.441406"/>
      <use xlink:href="#DejaVuSans-65" x="653.853516"/>
      <use xlink:href="#DejaVuSans-6e" x="715.376953"/>
      <use xlink:href="#DejaVuSans-74" x="778.755859"/>
      <use xlink:href="#DejaVuSans-29" x="817.964844"/>
     </g>
    </g>
   </g>
   <g id="Line3DCollection_7">
    <path d="M 492.842022 255.253542 
L 484.525378 276.434532 
" clip-path="url(#pc789a11ec8)" style="fill: none; stroke: #008000; stroke-width: 1.5"/>
    <path d="M 492.842022 255.253542 
L 492.577431 257.726525 
" clip-path="url(#pc789a11ec8)" style="fill: none; stroke: #008000; stroke-width: 1.5"/>
    <path d="M 492.842022 255.253542 
L 491.489613 256.898945 
" clip-path="url(#pc789a11ec8)" style="fill: none; stroke: #008000; stroke-width: 1.5"/>
   </g>
  </g>
  <g id="axes_2">
   <g id="patch_7">
    <path d="M 115.2 667.71475 
L 439.2 667.71475 
L 439.2 656.91475 
L 115.2 656.91475 
z
" clip-path="url(#pf3867af921)" style="fill: #d3d3d3"/>
   </g>
   <g id="patch_8">
    <path d="M 115.2 667.71475 
L 193.745455 667.71475 
L 193.745455 656.91475 
L 115.2 656.91475 
z
" clip-path="url(#pf3867af921)" style="fill: #1f77b4"/>
   </g>
   <g id="line2d_29">
    <path d="M 193.745455 673.11475 
L 193.745455 651.51475 
" clip-path="url(#pa2f083a119)" style="fill: none; stroke: #ff0000; stroke-linecap: square"/>
   </g>
   <g id="line2d_30">
    <defs>
     <path id="mf452e13705" d="M 0 5 
C 1.326016 5 2.597899 4.473168 3.535534 3.535534 
C 4.473168 2.597899 5 1.326016 5 0 
C 5 -1.326016 4.473168 -2.597899 3.535534 -3.535534 
C 2.597899 -4.473168 1.326016 -5 0 -5 
C -1.326016 -5 -2.597899 -4.473168 -3.535534 -3.535534 
C -4.473168 -2.597899 -5 -1.326016 -5 0 
C -5 1.326016 -4.473168 2.597899 -3.535534 3.535534 
C -2.597899 4.473168 -1.326016 5 0 5 
z
" style="stroke: #bfbfbf"/>
    </defs>
    <g>
     <use xlink:href="#mf452e13705" x="193.745455" y="662.31475" style="fill: #ffffff; stroke: #bfbfbf"/>
    </g>
   </g>
   <g id="text_35">
    <!-- Masse [kg] -->
    <g transform="translate(54.271562 665.074125) scale(0.1 -0.1)">
     <use xlink:href="#DejaVuSans-4d"/>
     <use xlink:href="#DejaVuSans-61" x="86.279297"/>
     <use xlink:href="#DejaVuSans-73" x="147.558594"/>
     <use xlink:href="#DejaVuSans-73" x="199.658203"/>
     <use xlink:href="#DejaVuSans-65" x="251.757812"/>
     <use xlink:href="#DejaVuSans-20" x="313.28125"/>
     <use xlink:href="#DejaVuSans-5b" x="345.068359"/>
     <use xlink:href="#DejaVuSans-6b" x="384.082031"/>
     <use xlink:href="#DejaVuSans-67" x="441.992188"/>
     <use xlink:href="#DejaVuSans-5d" x="505.46875"/>
    </g>
   </g>
   <g id="text_36">
    <!-- $\mathdefault{2.5}$ -->
    <g transform="translate(445.68 665.074125) scale(0.1 -0.1)">
     <use xlink:href="#DejaVuSans-32" transform="translate(0 0.78125)"/>
     <use xlink:href="#DejaVuSans-2e" transform="translate(63.623047 0.78125)"/>
     <use xlink:href="#DejaVuSans-35" transform="translate(95.410156 0.78125)"/>
    </g>
   </g>
  </g>
  <g id="axes_3">
   <g id="patch_9">
    <path d="M 115.2 631.71475 
L 439.2 631.71475 
L 439.2 620.91475 
L 115.2 620.91475 
z
" clip-path="url(#p469600f863)" style="fill: #d3d3d3"/>
   </g>
   <g id="patch_10">
    <path d="M 115.2 631.71475 
L 374.4 631.71475 
L 374.4 620.91475 
L 115.2 620.91475 
z
" clip-path="url(#p469600f863)" style="fill: #1f77b4"/>
   </g>
   <g id="line2d_31">
    <path d="M 374.4 637.11475 
L 374.4 615.51475 
" clip-path="url(#p066f8da8fe)" style="fill: none; stroke: #ff0000; stroke-linecap: square"/>
   </g>
   <g id="line2d_32">
    <g>
     <use xlink:href="#mf452e13705" x="374.4" y="626.31475" style="fill: #ffffff; stroke: #bfbfbf"/>
    </g>
   </g>
   <g id="text_37">
    <!-- a_x [m/s²] -->
    <g transform="translate(58.36375 628.935062) scale(0.1 -0.1)">
     <defs>
      <path id="DejaVuSans-5f" d="M 3263 -1063 
L 3263 -1509 
L -63 -1509 
L -63 -1063 
L 3263 -1063 
z
" transform="scale(0.015625)"/>
      <path id="DejaVuSans-78" d="M 3513 3500 
L 2247 1797 
L 3578 0 
L 2900 0 
L 1881 1375 
L 863 0 
L 184 0 
L 1544 1831 
L 300 3500 
L 978 3500 
L 1906 2253 
L 2834 3500 
L 3513 3500 
z
" transform="scale(0.015625)"/>
      <path id="DejaVuSans-2f" d="M 1625 4666 
L 2156 4666 
L 531 -594 
L 0 -594 
L 1625 4666 
z
" transform="scale(0.015625)"/>
      <path id="DejaVuSans-b2" d="M 838 2444 
L 2163 2444 
L 2163 2088 
L 294 2088 
L 294 2431 
Q 400 2528 597 2703 
Q 1672 3656 1672 3950 
Q 1672 4156 1509 4282 
Q 1347 4409 1081 4409 
Q 919 4409 728 4354 
Q 538 4300 313 4191 
L 313 4575 
Q 553 4663 761 4706 
Q 969 4750 1147 4750 
Q 1600 4750 1872 4544 
Q 2144 4338 2144 4000 
Q 2144 3566 1109 2678 
Q 934 2528 838 2444 
z
" transform="scale(0.015625)"/>
     </defs>
     <use xlink:href="#DejaVuSans-61"/>
     <use xlink:href="#DejaVuSans-5f" x="61.279297"/>
     <use xlink:href="#DejaVuSans-78" x="111.279297"/>
     <use xlink:href="#DejaVuSans-20" x="170.458984"/>
     <use xlink:href="#DejaVuSans-5b" x="202.246094"/>
     <use xlink:href="#DejaVuSans-6d" x="241.259766"/>
     <use xlink:href="#DejaVuSans-2f" x="338.671875"/>
     <use xlink:href="#DejaVuSans-73" x="372.363281"/>
     <use xlink:href="#DejaVuSans-b2" x="424.462891"/>
     <use xlink:href="#DejaVuSans-5d" x="464.550781"/>
    </g>
   </g>
   <g id="text_38">
    <!-- $\mathdefault{3}$ -->
    <g transform="translate(445.68 629.074125) scale(0.1 -0.1)">
     <use xlink:href="#DejaVuSans-33" transform="translate(0 0.78125)"/>
    </g>
   </g>
  </g>
  <g id="axes_4">
   <g id="patch_11">
    <path d="M 115.2 595.71475 
L 439.2 595.71475 
L 439.2 584.91475 
L 115.2 584.91475 
z
" clip-path="url(#pd08086c0e0)" style="fill: #d3d3d3"/>
   </g>
   <g id="patch_12">
    <path d="M 115.2 595.71475 
L 406.8 595.71475 
L 406.8 584.91475 
L 115.2 584.91475 
z
" clip-path="url(#pd08086c0e0)" style="fill: #1f77b4"/>
   </g>
   <g id="line2d_33">
    <path d="M 406.8 601.11475 
L 406.8 579.51475 
" clip-path="url(#p21f56431f8)" style="fill: none; stroke: #ff0000; stroke-linecap: square"/>
   </g>
   <g id="line2d_34">
    <g>
     <use xlink:href="#mf452e13705" x="406.8" y="590.31475" style="fill: #ffffff; stroke: #bfbfbf"/>
    </g>
   </g>
   <g id="text_39">
    <!-- a_y [m/s²] -->
    <g transform="translate(58.36375 592.935062) scale(0.1 -0.1)">
     <defs>
      <path id="DejaVuSans-79" d="M 2059 -325 
Q 1816 -950 1584 -1140 
Q 1353 -1331 966 -1331 
L 506 -1331 
L 506 -850 
L 844 -850 
Q 1081 -850 1212 -737 
Q 1344 -625 1503 -206 
L 1606 56 
L 191 3500 
L 800 3500 
L 1894 763 
L 2988 3500 
L 3597 3500 
L 2059 -325 
z
" transform="scale(0.015625)"/>
     </defs>
     <use xlink:href="#DejaVuSans-61"/>
     <use xlink:href="#DejaVuSans-5f" x="61.279297"/>
     <use xlink:href="#DejaVuSans-79" x="111.279297"/>
     <use xlink:href="#DejaVuSans-20" x="170.458984"/>
     <use xlink:href="#DejaVuSans-5b" x="202.246094"/>
     <use xlink:href="#DejaVuSans-6d" x="241.259766"/>
     <use xlink:href="#DejaVuSans-2f" x="338.671875"/>
     <use xlink:href="#DejaVuSans-73" x="372.363281"/>
     <use xlink:href="#DejaVuSans-b2" x="424.462891"/>
     <use xlink:href="#DejaVuSans-5d" x="464.550781"/>
    </g>
   </g>
   <g id="text_40">
    <!-- $\mathdefault{4}$ -->
    <g transform="translate(445.68 593.074125) scale(0.1 -0.1)">
     <use xlink:href="#DejaVuSans-34" transform="translate(0 0.09375)"/>
    </g>
   </g>
  </g>
  <g id="axes_5">
   <g id="patch_13">
    <path d="M 115.2 559.71475 
L 439.2 559.71475 
L 439.2 548.91475 
L 115.2 548.91475 
z
" clip-path="url(#p157cae0ee9)" style="fill: #d3d3d3"/>
   </g>
   <g id="patch_14">
    <path d="M 115.2 559.71475 
L 277.2 559.71475 
L 277.2 548.91475 
L 115.2 548.91475 
z
" clip-path="url(#p157cae0ee9)" style="fill: #1f77b4"/>
   </g>
   <g id="line2d_35">
    <path d="M 277.2 565.11475 
L 277.2 543.51475 
" clip-path="url(#p07d4580aa4)" style="fill: none; stroke: #ff0000; stroke-linecap: square"/>
   </g>
   <g id="line2d_36">
    <g>
     <use xlink:href="#mf452e13705" x="277.2" y="554.31475" style="fill: #ffffff; stroke: #bfbfbf"/>
    </g>
   </g>
   <g id="text_41">
    <!-- a_z [m/s²] -->
    <g transform="translate(59.034062 556.935062) scale(0.1 -0.1)">
     <defs>
      <path id="DejaVuSans-7a" d="M 353 3500 
L 3084 3500 
L 3084 2975 
L 922 459 
L 3084 459 
L 3084 0 
L 275 0 
L 275 525 
L 2438 3041 
L 353 3041 
L 353 3500 
z
" transform="scale(0.015625)"/>
     </defs>
     <use xlink:href="#DejaVuSans-61"/>
     <use xlink:href="#DejaVuSans-5f" x="61.279297"/>
     <use xlink:href="#DejaVuSans-7a" x="111.279297"/>
     <use xlink:href="#DejaVuSans-20" x="163.769531"/>
     <use xlink:href="#DejaVuSans-5b" x="195.556641"/>
     <use xlink:href="#DejaVuSans-6d" x="234.570312"/>
     <use xlink:href="#DejaVuSans-2f" x="331.982422"/>
     <use xlink:href="#DejaVuSans-73" x="365.673828"/>
     <use xlink:href="#DejaVuSans-b2" x="417.773438"/>
     <use xlink:href="#DejaVuSans-5d" x="457.861328"/>
    </g>
   </g>
   <g id="text_42">
    <!-- $\mathdefault{0}$ -->
    <g transform="translate(445.68 557.074125) scale(0.1 -0.1)">
     <use xlink:href="#DejaVuSans-30" transform="translate(0 0.78125)"/>
    </g>
   </g>
  </g>
  <g id="axes_6">
   <g id="patch_15">
    <path d="M 655.2 631.71475 
L 979.2 631.71475 
L 979.2 620.91475 
L 655.2 620.91475 
z
" clip-path="url(#p7f7d6940c0)" style="fill: #d3d3d3"/>
   </g>
   <g id="patch_16">
    <path d="M 655.2 631.71475 
L 857.7 631.71475 
L 857.7 620.91475 
L 655.2 620.91475 
z
" clip-path="url(#p7f7d6940c0)" style="fill: #1f77b4"/>
   </g>
   <g id="line2d_37">
    <path d="M 857.7 637.11475 
L 857.7 615.51475 
" clip-path="url(#p91c8de6591)" style="fill: none; stroke: #ff0000; stroke-linecap: square"/>
   </g>
   <g id="line2d_38">
    <g>
     <use xlink:href="#mf452e13705" x="857.7" y="626.31475" style="fill: #ffffff; stroke: #bfbfbf"/>
    </g>
   </g>
   <g id="text_43">
    <!-- r_x [m] -->
    <g transform="translate(612.968438 628.935062) scale(0.1 -0.1)">
     <use xlink:href="#DejaVuSans-72"/>
     <use xlink:href="#DejaVuSans-5f" x="41.113281"/>
     <use xlink:href="#DejaVuSans-78" x="91.113281"/>
     <use xlink:href="#DejaVuSans-20" x="150.292969"/>
     <use xlink:href="#DejaVuSans-5b" x="182.080078"/>
     <use xlink:href="#DejaVuSans-6d" x="221.09375"/>
     <use xlink:href="#DejaVuSans-5d" x="318.505859"/>
    </g>
   </g>
   <g id="text_44">
    <!-- $\mathdefault{0.5}$ -->
    <g transform="translate(985.68 629.074125) scale(0.1 -0.1)">
     <use xlink:href="#DejaVuSans-30" transform="translate(0 0.78125)"/>
     <use xlink:href="#DejaVuSans-2e" transform="translate(63.623047 0.78125)"/>
     <use xlink:href="#DejaVuSans-35" transform="translate(95.410156 0.78125)"/>
    </g>
   </g>
  </g>
  <g id="axes_7">
   <g id="patch_17">
    <path d="M 655.2 595.71475 
L 979.2 595.71475 
L 979.2 584.91475 
L 655.2 584.91475 
z
" clip-path="url(#p9dd4a9dc1a)" style="fill: #d3d3d3"/>
   </g>
   <g id="patch_18">
    <path d="M 655.2 595.71475 
L 817.2 595.71475 
L 817.2 584.91475 
L 655.2 584.91475 
z
" clip-path="url(#p9dd4a9dc1a)" style="fill: #1f77b4"/>
   </g>
   <g id="line2d_39">
    <path d="M 817.2 601.11475 
L 817.2 579.51475 
" clip-path="url(#p04aed1c16f)" style="fill: none; stroke: #ff0000; stroke-linecap: square"/>
   </g>
   <g id="line2d_40">
    <g>
     <use xlink:href="#mf452e13705" x="817.2" y="590.31475" style="fill: #ffffff; stroke: #bfbfbf"/>
    </g>
   </g>
   <g id="text_45">
    <!-- r_y [m] -->
    <g transform="translate(612.968438 592.935062) scale(0.1 -0.1)">
     <use xlink:href="#DejaVuSans-72"/>
     <use xlink:href="#DejaVuSans-5f" x="41.113281"/>
     <use xlink:href="#DejaVuSans-79" x="91.113281"/>
     <use xlink:href="#DejaVuSans-20" x="150.292969"/>
     <use xlink:href="#DejaVuSans-5b" x="182.080078"/>
     <use xlink:href="#DejaVuSans-6d" x="221.09375"/>
     <use xlink:href="#DejaVuSans-5d" x="318.505859"/>
    </g>
   </g>
   <g id="text_46">
    <!-- $\mathdefault{0}$ -->
    <g transform="translate(985.68 593.074125) scale(0.1 -0.1)">
     <use xlink:href="#DejaVuSans-30" transform="translate(0 0.78125)"/>
    </g>
   </g>
  </g>
  <g id="axes_8">
   <g id="patch_19">
    <path d="M 655.2 559.71475 
L 979.2 559.71475 
L 979.2 548.91475 
L 655.2 548.91475 
z
" clip-path="url(#p92843f8b53)" style="fill: #d3d3d3"/>
   </g>
   <g id="patch_20">
    <path d="M 655.2 559.71475 
L 914.4 559.71475 
L 914.4 548.91475 
L 655.2 548.91475 
z
" clip-path="url(#p92843f8b53)" style="fill: #1f77b4"/>
   </g>
   <g id="line2d_41">
    <path d="M 914.4 565.11475 
L 914.4 543.51475 
" clip-path="url(#p30e877fa1b)" style="fill: none; stroke: #ff0000; stroke-linecap: square"/>
   </g>
   <g id="line2d_42">
    <g>
     <use xlink:href="#mf452e13705" x="914.4" y="554.31475" style="fill: #ffffff; stroke: #bfbfbf"/>
    </g>
   </g>
   <g id="text_47">
    <!-- r_z [m] -->
    <g transform="translate(613.63875 556.935062) scale(0.1 -0.1)">
     <use xlink:href="#DejaVuSans-72"/>
     <use xlink:href="#DejaVuSans-5f" x="41.113281"/>
     <use xlink:href="#DejaVuSans-7a" x="91.113281"/>
     <use xlink:href="#DejaVuSans-20" x="143.603516"/>
     <use xlink:href="#DejaVuSans-5b" x="175.390625"/>
     <use xlink:href="#DejaVuSans-6d" x="214.404297"/>
     <use xlink:href="#DejaVuSans-5d" x="311.816406"/>
    </g>
   </g>
   <g id="text_48">
    <!-- $\mathdefault{1.2}$ -->
    <g transform="translate(985.68 557.074125) scale(0.1 -0.1)">
     <use xlink:href="#DejaVuSans-31" transform="translate(0 0.78125)"/>
     <use xlink:href="#DejaVuSans-2e" transform="translate(63.623047 0.78125)"/>
     <use xlink:href="#DejaVuSans-32" transform="translate(89.910156 0.78125)"/>
    </g>
   </g>
  </g>
  <g id="axes_9">
   <g id="patch_21">
    <path d="M 28.8 327.51475 
L 136.8 327.51475 
L 136.8 255.51475 
L 28.8 255.51475 
z
" style="fill: #fafad2"/>
   </g>
   <g id="PathCollection_1">
    <path d="M 45 282.01475 
C 45.663008 282.01475 46.29895 281.751334 46.767767 281.282517 
C 47.236584 280.8137 47.5 280.177758 47.5 279.51475 
C 47.5 278.851742 47.236584 278.2158 46.767767 277.746983 
C 46.29895 277.278166 45.663008 277.01475 45 277.01475 
C 44.336992 277.01475 43.70105 277.278166 43.232233 277.746983 
C 42.763416 278.2158 42.5 278.851742 42.5 279.51475 
C 42.5 280.177758 42.763416 280.8137 43.232233 281.282517 
C 43.70105 281.751334 44.336992 282.01475 45 282.01475 
z
" clip-path="url(#pf767b33a39)" style="fill: #0000ff; stroke: #000000"/>
    <path d="M 45 306.01475 
C 45.663008 306.01475 46.29895 305.751334 46.767767 305.282517 
C 47.236584 304.8137 47.5 304.177758 47.5 303.51475 
C 47.5 302.851742 47.236584 302.2158 46.767767 301.746983 
C 46.29895 301.278166 45.663008 301.01475 45 301.01475 
C 44.336992 301.01475 43.70105 301.278166 43.232233 301.746983 
C 42.763416 302.2158 42.5 302.851742 42.5 303.51475 
C 42.5 304.177758 42.763416 304.8137 43.232233 305.282517 
C 43.70105 305.751334 44.336992 306.01475 45 306.01475 
L 45 306.01475 
z
" clip-path="url(#pf767b33a39)" style="fill: none; stroke: #000000"/>
   </g>
   <g id="matplotlib.axis_1"/>
   <g id="matplotlib.axis_2"/>
   <g id="patch_22">
    <path d="M 28.8 327.51475 
L 28.8 255.51475 
" style="fill: none; stroke: #000000; stroke-width: 0.8; stroke-linejoin: miter; stroke-linecap: square"/>
   </g>
   <g id="patch_23">
    <path d="M 136.8 327.51475 
L 136.8 255.51475 
" style="fill: none; stroke: #000000; stroke-width: 0.8; stroke-linejoin: miter; stroke-linecap: square"/>
   </g>
   <g id="patch_24">
    <path d="M 28.8 327.51475 
L 136.8 327.51475 
" style="fill: none; stroke: #000000; stroke-width: 0.8; stroke-linejoin: miter; stroke-linecap: square"/>
   </g>
   <g id="patch_25">
    <path d="M 28.8 255.51475 
L 136.8 255.51475 
" style="fill: none; stroke: #000000; stroke-width: 0.8; stroke-linejoin: miter; stroke-linecap: square"/>
   </g>
   <g id="text_49">
    <!-- Pfeile -->
    <g transform="translate(55.8 282.274125) scale(0.1 -0.1)">
     <defs>
      <path id="DejaVuSans-50" d="M 1259 4147 
L 1259 2394 
L 2053 2394 
Q 2494 2394 2734 2622 
Q 2975 2850 2975 3272 
Q 2975 3691 2734 3919 
Q 2494 4147 2053 4147 
L 1259 4147 
z
M 628 4666 
L 2053 4666 
Q 2838 4666 3239 4311 
Q 3641 3956 3641 3272 
Q 3641 2581 3239 2228 
Q 2838 1875 2053 1875 
L 1259 1875 
L 1259 0 
L 628 0 
L 628 4666 
z
" transform="scale(0.015625)"/>
     </defs>
     <use xlink:href="#DejaVuSans-50"/>
     <use xlink:href="#DejaVuSans-66" x="60.302734"/>
     <use xlink:href="#DejaVuSans-65" x="95.507812"/>
     <use xlink:href="#DejaVuSans-69" x="157.03125"/>
     <use xlink:href="#DejaVuSans-6c" x="184.814453"/>
     <use xlink:href="#DejaVuSans-65" x="212.597656"/>
    </g>
   </g>
   <g id="text_50">
    <!-- Linien -->
    <g transform="translate(55.8 306.274125) scale(0.1 -0.1)">
     <defs>
      <path id="DejaVuSans-4c" d="M 628 4666 
L 1259 4666 
L 1259 531 
L 3531 531 
L 3531 0 
L 628 0 
L 628 4666 
z
" transform="scale(0.015625)"/>
     </defs>
     <use xlink:href="#DejaVuSans-4c"/>
     <use xlink:href="#DejaVuSans-69" x="55.712891"/>
     <use xlink:href="#DejaVuSans-6e" x="83.496094"/>
     <use xlink:href="#DejaVuSans-69" x="146.875"/>
     <use xlink:href="#DejaVuSans-65" x="174.658203"/>
     <use xlink:href="#DejaVuSans-6e" x="236.181641"/>
    </g>
   </g>
  </g>
  <g id="axes_10">
   <g id="patch_26">
    <path d="M 871.2 673.11475 
L 979.2 673.11475 
L 979.2 644.31475 
L 871.2 644.31475 
z
" style="fill: #f2f2f2"/>
   </g>
   <g id="matplotlib.axis_3"/>
   <g id="matplotlib.axis_4"/>
   <g id="patch_27">
    <path d="M 871.2 673.11475 
L 871.2 644.31475 
" style="fill: none; stroke: #000000; stroke-width: 0.8; stroke-linejoin: miter; stroke-linecap: square"/>
   </g>
   <g id="patch_28">
    <path d="M 979.2 673.11475 
L 979.2 644.31475 
" style="fill: none; stroke: #000000; stroke-width: 0.8; stroke-linejoin: miter; stroke-linecap: square"/>
   </g>
   <g id="patch_29">
    <path d="M 871.2 673.11475 
L 979.2 673.11475 
" style="fill: none; stroke: #000000; stroke-width: 0.8; stroke-linejoin: miter; stroke-linecap: square"/>
   </g>
   <g id="patch_30">
    <path d="M 871.2 644.31475 
L 979.2 644.31475 
" style="fill: none; stroke: #000000; stroke-width: 0.8; stroke-linejoin: miter; stroke-linecap: square"/>
   </g>
   <g id="text_51">
    <!-- Speichern -->
    <g transform="translate(900.254688 661.474125) scale(0.1 -0.1)">
     <defs>
      <path id="DejaVuSans-53" d="M 3425 4513 
L 3425 3897 
Q 3066 4069 2747 4153 
Q 2428 4238 2131 4238 
Q 1616 4238 1336 4038 
Q 1056 3838 1056 3469 
Q 1056 3159 1242 3001 
Q 1428 2844 1947 2747 
L 2328 2669 
Q 3034 2534 3370 2195 
Q 3706 1856 3706 1288 
Q 3706 609 3251 259 
Q 2797 -91 1919 -91 
Q 1588 -91 1214 -16 
Q 841 59 441 206 
L 441 856 
Q 825 641 1194 531 
Q 1563 422 1919 422 
Q 2459 422 2753 634 
Q 3047 847 3047 1241 
Q 3047 1584 2836 1778 
Q 2625 1972 2144 2069 
L 1759 2144 
Q 1053 2284 737 2584 
Q 422 2884 422 3419 
Q 422 4038 858 4394 
Q 1294 4750 2059 4750 
Q 2388 4750 2728 4690 
Q 3069 4631 3425 4513 
z
" transform="scale(0.015625)"/>
      <path id="DejaVuSans-70" d="M 1159 525 
L 1159 -1331 
L 581 -1331 
L 581 3500 
L 1159 3500 
L 1159 2969 
Q 1341 3281 1617 3432 
Q 1894 3584 2278 3584 
Q 2916 3584 3314 3078 
Q 3713 2572 3713 1747 
Q 3713 922 3314 415 
Q 2916 -91 2278 -91 
Q 1894 -91 1617 61 
Q 1341 213 1159 525 
z
M 3116 1747 
Q 3116 2381 2855 2742 
Q 2594 3103 2138 3103 
Q 1681 3103 1420 2742 
Q 1159 2381 1159 1747 
Q 1159 1113 1420 752 
Q 1681 391 2138 391 
Q 2594 391 2855 752 
Q 3116 1113 3116 1747 
z
" transform="scale(0.015625)"/>
     </defs>
     <use xlink:href="#DejaVuSans-53"/>
     <use xlink:href="#DejaVuSans-70" x="63.476562"/>
     <use xlink:href="#DejaVuSans-65" x="126.953125"/>
     <use xlink:href="#DejaVuSans-69" x="188.476562"/>
     <use xlink:href="#DejaVuSans-63" x="216.259766"/>
     <use xlink:href="#DejaVuSans-68" x="271.240234"/>
     <use xlink:href="#DejaVuSans-65" x="334.619141"/>
     <use xlink:href="#DejaVuSans-72" x="396.142578"/>
     <use xlink:href="#DejaVuSans-6e" x="435.505859"/>
    </g>
   </g>
  </g>
  <g id="patch_31">
   <path d="M 0.1 694.41475 
L 0.5 694.41475 
Q 0.6 694.41475 0.6 694.31475 
L 0.6 694.16475 
Q 0.6 694.06475 0.5 694.06475 
L 0.1 694.06475 
Q 0 694.06475 0 694.16475 
L 0 694.31475 
Q 0 694.41475 0.1 694.41475 
z
" style="fill: #ffffff; opacity: 0.9; stroke: #808080; stroke-linejoin: miter"/>
  </g>
  <g id="text_52">
   <!-- Masse m = 2.500 kg -->
   <g transform="translate(126 421.513187) scale(0.1 -0.1)">
    <use xlink:href="#DejaVuSans-4d"/>
    <use xlink:href="#DejaVuSans-61" x="86.279297"/>
    <use xlink:href="#DejaVuSans-73" x="147.558594"/>
    <use xlink:href="#DejaVuSans-73" x="199.658203"/>
    <use xlink:href="#DejaVuSans-65" x="251.757812"/>
    <use xlink:href="#DejaVuSans-20" x="313.28125"/>
    <use xlink:href="#DejaVuSans-6d" x="345.068359"/>
    <use xlink:href="#DejaVuSans-20" x="442.480469"/>
    <use xlink:href="#DejaVuSans-3d" x="474.267578"/>
    <use xlink:href="#DejaVuSans-20" x="558.056641"/>
    <use xlink:href="#DejaVuSans-32" x="589.84375"/>
    <use xlink:href="#DejaVuSans-2e" x="653.466797"/>
    <use xlink:href="#DejaVuSans-35" x="685.253906"/>
    <use xlink:href="#DejaVuSans-30" x="748.876953"/>
    <use xlink:href="#DejaVuSans-30" x="812.5"/>
    <use xlink:href="#DejaVuSans-20" x="876.123047"/>
    <use xlink:href="#DejaVuSans-6b" x="907.910156"/>
    <use xlink:href="#DejaVuSans-67" x="965.820312"/>
   </g>
   <!-- |a| = 5.000 m/s² -->
   <g transform="translate(126 432.7635) scale(0.1 -0.1)">
    <defs>
     <path id="DejaVuSans-7c" d="M 1344 4891 
L 1344 -1509 
L 813 -1509 
L 813 4891 
L 1344 4891 
z
" transform="scale(0.015625)"/>
    </defs>
    <use xlink:href="#DejaVuSans-7c"/>
    <use xlink:href="#DejaVuSans-61" x="33.691406"/>
    <use xlink:href="#DejaVuSans-7c" x="94.970703"/>
    <use xlink:href="#DejaVuSans-20" x="128.662109"/>
    <use xlink:href="#DejaVuSans-3d" x="160.449219"/>
    <use xlink:href="#DejaVuSans-20" x="244.238281"/>
    <use xlink:href="#DejaVuSans-35" x="276.025391"/>
    <use xlink:href="#DejaVuSans-2e" x="339.648438"/>
    <use xlink:href="#DejaVuSans-30" x="371.435547"/>
    <use xlink:href="#DejaVuSans-30" x="435.058594"/>
    <use xlink:href="#DejaVuSans-30" x="498.681641"/>
    <use xlink:href="#DejaVuSans-20" x="562.304688"/>
    <use xlink:href="#DejaVuSans-6d" x="594.091797"/>
    <use xlink:href="#DejaVuSans-2f" x="691.503906"/>
    <use xlink:href="#DejaVuSans-73" x="725.195312"/>
    <use xlink:href="#DejaVuSans-b2" x="777.294922"/>
   </g>
   <!-- Kraft |F| = m * |a| = 12.500 N -->
   <g transform="translate(126 444.291937) scale(0.1 -0.1)">
    <defs>
     <path id="DejaVuSans-2a" d="M 3009 3897 
L 1888 3291 
L 3009 2681 
L 2828 2375 
L 1778 3009 
L 1778 1831 
L 1422 1831 
L 1422 3009 
L 372 2375 
L 191 2681 
L 1313 3291 
L 191 3897 
L 372 4206 
L 1422 3572 
L 1422 4750 
L 1778 4750 
L 1778 3572 
L 2828 4206 
L 3009 3897 
z
" transform="scale(0.015625)"/>
    </defs>
    <use xlink:href="#DejaVuSans-4b"/>
    <use xlink:href="#DejaVuSans-72" x="65.576172"/>
    <use xlink:href="#DejaVuSans-61" x="106.689453"/>
    <use xlink:href="#DejaVuSans-66" x="167.96875"/>
    <use xlink:href="#DejaVuSans-74" x="201.423828"/>
    <use xlink:href="#DejaVuSans-20" x="240.632812"/>
    <use xlink:href="#DejaVuSans-7c" x="272.419922"/>
    <use xlink:href="#DejaVuSans-46" x="306.111328"/>
    <use xlink:href="#DejaVuSans-7c" x="363.630859"/>
    <use xlink:href="#DejaVuSans-20" x="397.322266"/>
    <use xlink:href="#DejaVuSans-3d" x="429.109375"/>
    <use xlink:href="#DejaVuSans-20" x="512.898438"/>
    <use xlink:href="#DejaVuSans-6d" x="544.685547"/>
    <use xlink:href="#DejaVuSans-20" x="642.097656"/>
    <use xlink:href="#DejaVuSans-2a" x="673.884766"/>
    <use xlink:href="#DejaVuSans-20" x="723.884766"/>
    <use xlink:href="#DejaVuSans-7c" x="755.671875"/>
    <use xlink:href="#DejaVuSans-61" x="789.363281"/>
    <use xlink:href="#DejaVuSans-7c" x="850.642578"/>
    <use xlink:href="#DejaVuSans-20" x="884.333984"/>
    <use xlink:href="#DejaVuSans-3d" x="916.121094"/>
    <use xlink:href="#DejaVuSans-20" x="999.910156"/>
    <use xlink:href="#DejaVuSans-31" x="1031.697266"/>
    <use xlink:href="#DejaVuSans-32" x="1095.320312"/>
    <use xlink:href="#DejaVuSans-2e" x="1158.943359"/>
    <use xlink:href="#DejaVuSans-35" x="1190.730469"/>
    <use xlink:href="#DejaVuSans-30" x="1254.353516"/>
    <use xlink:href="#DejaVuSans-30" x="1317.976562"/>
    <use xlink:href="#DejaVuSans-20" x="1381.599609"/>
    <use xlink:href="#DejaVuSans-4e" x="1413.386719"/>
   </g>
   <!-- Drehmoment |M| = |r × F| = 15.811 N·m -->
   <g transform="translate(126 455.820375) scale(0.1 -0.1)">
    <use xlink:href="#DejaVuSans-44"/>
    <use xlink:href="#DejaVuSans-72" x="77.001953"/>
    <use xlink:href="#DejaVuSans-65" x="115.865234"/>
    <use xlink:href="#DejaVuSans-68" x="177.388672"/>
    <use xlink:href="#DejaVuSans-6d" x="240.767578"/>
    <use xlink:href="#DejaVuSans-6f" x="338.179688"/>
    <use xlink:href="#DejaVuSans-6d" x="399.361328"/>
    <use xlink:href="#DejaVuSans-65" x="496.773438"/>
    <use xlink:href="#DejaVuSans-6e" x="558.296875"/>
    <use xlink:href="#DejaVuSans-74" x="621.675781"/>
    <use xlink:href="#DejaVuSans-20" x="660.884766"/>
    <use xlink:href="#DejaVuSans-7c" x="692.671875"/>
    <use xlink:href="#DejaVuSans-4d" x="726.363281"/>
    <use xlink:href="#DejaVuSans-7c" x="812.642578"/>
    <use xlink:href="#DejaVuSans-20" x="846.333984"/>
    <use xlink:href="#DejaVuSans-3d" x="878.121094"/>
    <use xlink:href="#DejaVuSans-20" x="961.910156"/>
    <use xlink:href="#DejaVuSans-7c" x="993.697266"/>
    <use xlink:href="#DejaVuSans-72" x="1027.388672"/>
    <use xlink:href="#DejaVuSans-20" x="1068.501953"/>
    <use xlink:href="#DejaVuSans-d7" x="1100.289062"/>
    <use xlink:href="#DejaVuSans-20" x="1184.078125"/>
    <use xlink:href="#DejaVuSans-46" x="1215.865234"/>
    <use xlink:href="#DejaVuSans-7c" x="1273.384766"/>
    <use xlink:href="#DejaVuSans-20" x="1307.076172"/>
    <use xlink:href="#DejaVuSans-3d" x="1338.863281"/>
    <use xlink:href="#DejaVuSans-20" x="1422.652344"/>
    <use xlink:href="#DejaVuSans-31" x="1454.439453"/>
    <use xlink:href="#DejaVuSans-35" x="1518.0625"/>
    <use xlink:href="#DejaVuSans-2e" x="1581.685547"/>
    <use xlink:href="#DejaVuSans-38" x="1613.472656"/>
    <use xlink:href="#DejaVuSans-31" x="1677.095703"/>
    <use xlink:href="#DejaVuSans-31" x="1740.71875"/>
    <use xlink:href="#DejaVuSans-20" x="1804.341797"/>
    <use xlink:href="#DejaVuSans-4e" x="1836.128906"/>
    <use xlink:href="#DejaVuSans-b7" x="1910.933594"/>
    <use xlink:href="#DejaVuSans-6d" x="1942.720703"/>
   </g>
  </g>
 </g>
 <defs>
  <clipPath id="pc789a11ec8">
   <rect x="313.2" y="39.51475" width="468" height="468"/>
  </clipPath>
  <clipPath id="pf3867af921">
   <rect x="115.2" y="651.51475" width="324" height="21.6"/>
  </clipPath>
  <clipPath id="pa2f083a119">
   <path d="M 115.2 667.71475 
L 439.2 667.71475 
L 439.2 656.91475 
L 115.2 656.91475 
z
"/>
  </clipPath>
  <clipPath id="p469600f863">
   <rect x="115.2" y="615.51475" width="324" height="21.6"/>
  </clipPath>
  <clipPath id="p066f8da8fe">
   <path d="M 115.2 631.71475 
L 439.2 631.71475 
L 439.2 620.91475 
L 115.2 620.91475 
z
"/>
  </clipPath>
  <clipPath id="pd08086c0e0">
   <rect x="115.2" y="579.51475" width="324" height="21.6"/>
  </clipPath>
  <clipPath id="p21f56431f8">
   <path d="M 115.2 595.71475 
L 439.2 595.71475 
L 439.2 584.91475 
L 115.2 584.91475 
z
"/>
  </clipPath>
  <clipPath id="p157cae0ee9">
   <rect x="115.2" y="543.51475" width="324" height="21.6"/>
  </clipPath>
  <clipPath id="p07d4580aa4">
   <path d="M 115.2 559.71475 
L 439.2 559.71475 
L 439.2 548.91475 
L 115.2 548.91475 
z
"/>
  </clipPath>
  <clipPath id="p7f7d6940c0">
   <rect x="655.2" y="615.51475" width="324" height="21.6"/>
  </clipPath>
  <clipPath id="p91c8de6591">
   <path d="M 655.2 631.71475 
L 979.2 631.71475 
L 979.2 620.91475 
L 655.2 620.91475 
z
"/>
  </clipPath>
  <clipPath id="p9dd4a9dc1a">
   <rect x="655.2" y="579.51475" width="324" height="21.6"/>
  </clipPath>
  <clipPath id="p04aed1c16f">
   <path d="M 655.2 595.71475 
L 979.2 595.71475 
L 979.2 584.91475 
L 655.2 584.91475 
z
"/>
  </clipPath>
  <clipPath id="p92843f8b53">
   <rect x="655.2" y="543.51475" width="324" height="21.6"/>
  </clipPath>
  <clipPath id="p30e877fa1b">
   <path d="M 655.2 559.71475 
L 979.2 559.71475 
L 979.2 548.91475 
L 655.2 548.91475 
z
"/>
  </clipPath>
  <clipPath id="pf767b33a39">
   <rect x="28.8" y="255.51475" width="108" height="72"/>
  </clipPath>
 </defs>
</svg>
