<?xml version="1.0" encoding="utf-8" standalone="no"?>
<!DOCTYPE svg PUBLIC "-//W3C//DTD SVG 1.1//EN"
  "http://www.w3.org/Graphics/SVG/1.1/DTD/svg11.dtd">
<svg xmlns:xlink="http://www.w3.org/1999/xlink" width="791.050687pt" height="686.104687pt" viewBox="0 0 791.050687 686.104687" xmlns="http://www.w3.org/2000/svg" version="1.1">
 <metadata>
  <rdf:RDF xmlns:dc="http://purl.org/dc/elements/1.1/" xmlns:cc="http://creativecommons.org/ns#" xmlns:rdf="http://www.w3.org/1999/02/22-rdf-syntax-ns#">
   <cc:Work>
    <dc:type rdf:resource="http://purl.org/dc/dcmitype/StillImage"/>
    <dc:date>2024-10-27T14:40:55.301449</dc:date>
    <dc:format>image/svg+xml</dc:format>
    <dc:creator>
     <cc:Agent>
      <dc:title>Matplotlib v3.9.2, https://matplotlib.org/</dc:title>
     </cc:Agent>
    </dc:creator>
   </cc:Work>
  </rdf:RDF>
 </metadata>
 <defs>
  <style type="text/css">*{stroke-linejoin: round; stroke-linecap: butt}</style>
 </defs>
 <g id="figure_1">
  <g id="patch_1">
   <path d="M 0 686.104687 
L 791.050687 686.104687 
L 791.050687 0 
L 0 0 
z
" style="fill: #ffffff"/>
  </g>
  <g id="axes_1">
   <g id="patch_2">
    <path d="M 49.450688 173.353846 
L 783.850687 173.353846 
L 783.850687 7.2 
L 49.450688 7.2 
z
" style="fill: #ffffff"/>
   </g>
   <g id="matplotlib.axis_1">
    <g id="xtick_1">
     <g id="line2d_1">
      <path d="M 49.450688 173.353846 
L 49.450688 7.2 
" clip-path="url(#pafcc45a08a)" style="fill: none; stroke: #cccccc; stroke-width: 0.8; stroke-linecap: round"/>
     </g>
     <g id="line2d_2"/>
     <g id="text_1">
      <!-- 0 -->
      <g style="fill: #262626" transform="translate(46.670219 184.011659) scale(0.1 -0.1)">
       <defs>
        <path id="ArialMT-30" d="M 266 2259 
Q 266 3072 433 3567 
Q 600 4063 929 4331 
Q 1259 4600 1759 4600 
Q 2128 4600 2406 4451 
Q 2684 4303 2865 4023 
Q 3047 3744 3150 3342 
Q 3253 2941 3253 2259 
Q 3253 1453 3087 958 
Q 2922 463 2592 192 
Q 2263 -78 1759 -78 
Q 1097 -78 719 397 
Q 266 969 266 2259 
z
M 844 2259 
Q 844 1131 1108 757 
Q 1372 384 1759 384 
Q 2147 384 2411 759 
Q 2675 1134 2675 2259 
Q 2675 3391 2411 3762 
Q 2147 4134 1753 4134 
Q 1366 4134 1134 3806 
Q 844 3388 844 2259 
z
" transform="scale(0.015625)"/>
       </defs>
       <use xlink:href="#ArialMT-30"/>
      </g>
     </g>
    </g>
    <g id="xtick_2">
     <g id="line2d_3">
      <path d="M 174.925546 173.353846 
L 174.925546 7.2 
" clip-path="url(#pafcc45a08a)" style="fill: none; stroke: #cccccc; stroke-width: 0.8; stroke-linecap: round"/>
     </g>
     <g id="line2d_4"/>
     <g id="text_2">
      <!-- 1 -->
      <g style="fill: #262626" transform="translate(172.145077 184.011659) scale(0.1 -0.1)">
       <defs>
        <path id="ArialMT-31" d="M 2384 0 
L 1822 0 
L 1822 3584 
Q 1619 3391 1289 3197 
Q 959 3003 697 2906 
L 697 3450 
Q 1169 3672 1522 3987 
Q 1875 4303 2022 4600 
L 2384 4600 
L 2384 0 
z
" transform="scale(0.015625)"/>
       </defs>
       <use xlink:href="#ArialMT-31"/>
      </g>
     </g>
    </g>
    <g id="xtick_3">
     <g id="line2d_5">
      <path d="M 300.400404 173.353846 
L 300.400404 7.2 
" clip-path="url(#pafcc45a08a)" style="fill: none; stroke: #cccccc; stroke-width: 0.8; stroke-linecap: round"/>
     </g>
     <g id="line2d_6"/>
     <g id="text_3">
      <!-- 2 -->
      <g style="fill: #262626" transform="translate(297.619935 184.011659) scale(0.1 -0.1)">
       <defs>
        <path id="ArialMT-32" d="M 3222 541 
L 3222 0 
L 194 0 
Q 188 203 259 391 
Q 375 700 629 1000 
Q 884 1300 1366 1694 
Q 2113 2306 2375 2664 
Q 2638 3022 2638 3341 
Q 2638 3675 2398 3904 
Q 2159 4134 1775 4134 
Q 1369 4134 1125 3890 
Q 881 3647 878 3216 
L 300 3275 
Q 359 3922 746 4261 
Q 1134 4600 1788 4600 
Q 2447 4600 2831 4234 
Q 3216 3869 3216 3328 
Q 3216 3053 3103 2787 
Q 2991 2522 2730 2228 
Q 2469 1934 1863 1422 
Q 1356 997 1212 845 
Q 1069 694 975 541 
L 3222 541 
z
" transform="scale(0.015625)"/>
       </defs>
       <use xlink:href="#ArialMT-32"/>
      </g>
     </g>
    </g>
    <g id="xtick_4">
     <g id="line2d_7">
      <path d="M 425.875262 173.353846 
L 425.875262 7.2 
" clip-path="url(#pafcc45a08a)" style="fill: none; stroke: #cccccc; stroke-width: 0.8; stroke-linecap: round"/>
     </g>
     <g id="line2d_8"/>
     <g id="text_4">
      <!-- 3 -->
      <g style="fill: #262626" transform="translate(423.094793 184.011659) scale(0.1 -0.1)">
       <defs>
        <path id="ArialMT-33" d="M 269 1209 
L 831 1284 
Q 928 806 1161 595 
Q 1394 384 1728 384 
Q 2125 384 2398 659 
Q 2672 934 2672 1341 
Q 2672 1728 2419 1979 
Q 2166 2231 1775 2231 
Q 1616 2231 1378 2169 
L 1441 2663 
Q 1497 2656 1531 2656 
Q 1891 2656 2178 2843 
Q 2466 3031 2466 3422 
Q 2466 3731 2256 3934 
Q 2047 4138 1716 4138 
Q 1388 4138 1169 3931 
Q 950 3725 888 3313 
L 325 3413 
Q 428 3978 793 4289 
Q 1159 4600 1703 4600 
Q 2078 4600 2393 4439 
Q 2709 4278 2876 4000 
Q 3044 3722 3044 3409 
Q 3044 3113 2884 2869 
Q 2725 2625 2413 2481 
Q 2819 2388 3044 2092 
Q 3269 1797 3269 1353 
Q 3269 753 2831 336 
Q 2394 -81 1725 -81 
Q 1122 -81 723 278 
Q 325 638 269 1209 
z
" transform="scale(0.015625)"/>
       </defs>
       <use xlink:href="#ArialMT-33"/>
      </g>
     </g>
    </g>
    <g id="xtick_5">
     <g id="line2d_9">
      <path d="M 551.35012 173.353846 
L 551.35012 7.2 
" clip-path="url(#pafcc45a08a)" style="fill: none; stroke: #cccccc; stroke-width: 0.8; stroke-linecap: round"/>
     </g>
     <g id="line2d_10"/>
     <g id="text_5">
      <!-- 4 -->
      <g style="fill: #262626" transform="translate(548.569651 184.011659) scale(0.1 -0.1)">
       <defs>
        <path id="ArialMT-34" d="M 2069 0 
L 2069 1097 
L 81 1097 
L 81 1613 
L 2172 4581 
L 2631 4581 
L 2631 1613 
L 3250 1613 
L 3250 1097 
L 2631 1097 
L 2631 0 
L 2069 0 
z
M 2069 1613 
L 2069 3678 
L 634 1613 
L 2069 1613 
z
" transform="scale(0.015625)"/>
       </defs>
       <use xlink:href="#ArialMT-34"/>
      </g>
     </g>
    </g>
    <g id="xtick_6">
     <g id="line2d_11">
      <path d="M 676.824978 173.353846 
L 676.824978 7.2 
" clip-path="url(#pafcc45a08a)" style="fill: none; stroke: #cccccc; stroke-width: 0.8; stroke-linecap: round"/>
     </g>
     <g id="line2d_12"/>
     <g id="text_6">
      <!-- 5 -->
      <g style="fill: #262626" transform="translate(674.044509 184.011659) scale(0.1 -0.1)">
       <defs>
        <path id="ArialMT-35" d="M 266 1200 
L 856 1250 
Q 922 819 1161 601 
Q 1400 384 1738 384 
Q 2144 384 2425 690 
Q 2706 997 2706 1503 
Q 2706 1984 2436 2262 
Q 2166 2541 1728 2541 
Q 1456 2541 1237 2417 
Q 1019 2294 894 2097 
L 366 2166 
L 809 4519 
L 3088 4519 
L 3088 3981 
L 1259 3981 
L 1013 2750 
Q 1425 3038 1878 3038 
Q 2478 3038 2890 2622 
Q 3303 2206 3303 1553 
Q 3303 931 2941 478 
Q 2500 -78 1738 -78 
Q 1113 -78 717 272 
Q 322 622 266 1200 
z
" transform="scale(0.015625)"/>
       </defs>
       <use xlink:href="#ArialMT-35"/>
      </g>
     </g>
    </g>
    <g id="text_7">
     <!-- Zeit (s) -->
     <g style="fill: #262626" transform="translate(401.097562 197.278846) scale(0.1 -0.1)">
      <defs>
       <path id="ArialMT-5a" d="M 128 0 
L 128 563 
L 2475 3497 
Q 2725 3809 2950 4041 
L 394 4041 
L 394 4581 
L 3675 4581 
L 3675 4041 
L 1103 863 
L 825 541 
L 3750 541 
L 3750 0 
L 128 0 
z
" transform="scale(0.015625)"/>
       <path id="ArialMT-65" d="M 2694 1069 
L 3275 997 
Q 3138 488 2766 206 
Q 2394 -75 1816 -75 
Q 1088 -75 661 373 
Q 234 822 234 1631 
Q 234 2469 665 2931 
Q 1097 3394 1784 3394 
Q 2450 3394 2872 2941 
Q 3294 2488 3294 1666 
Q 3294 1616 3291 1516 
L 816 1516 
Q 847 969 1125 678 
Q 1403 388 1819 388 
Q 2128 388 2347 550 
Q 2566 713 2694 1069 
z
M 847 1978 
L 2700 1978 
Q 2663 2397 2488 2606 
Q 2219 2931 1791 2931 
Q 1403 2931 1139 2672 
Q 875 2413 847 1978 
z
" transform="scale(0.015625)"/>
       <path id="ArialMT-69" d="M 425 3934 
L 425 4581 
L 988 4581 
L 988 3934 
L 425 3934 
z
M 425 0 
L 425 3319 
L 988 3319 
L 988 0 
L 425 0 
z
" transform="scale(0.015625)"/>
       <path id="ArialMT-74" d="M 1650 503 
L 1731 6 
Q 1494 -44 1306 -44 
Q 1000 -44 831 53 
Q 663 150 594 308 
Q 525 466 525 972 
L 525 2881 
L 113 2881 
L 113 3319 
L 525 3319 
L 525 4141 
L 1084 4478 
L 1084 3319 
L 1650 3319 
L 1650 2881 
L 1084 2881 
L 1084 941 
Q 1084 700 1114 631 
Q 1144 563 1211 522 
Q 1278 481 1403 481 
Q 1497 481 1650 503 
z
" transform="scale(0.015625)"/>
       <path id="ArialMT-20" transform="scale(0.015625)"/>
       <path id="ArialMT-28" d="M 1497 -1347 
Q 1031 -759 709 28 
Q 388 816 388 1659 
Q 388 2403 628 3084 
Q 909 3875 1497 4659 
L 1900 4659 
Q 1522 4009 1400 3731 
Q 1209 3300 1100 2831 
Q 966 2247 966 1656 
Q 966 153 1900 -1347 
L 1497 -1347 
z
" transform="scale(0.015625)"/>
       <path id="ArialMT-73" d="M 197 991 
L 753 1078 
Q 800 744 1014 566 
Q 1228 388 1613 388 
Q 2000 388 2187 545 
Q 2375 703 2375 916 
Q 2375 1106 2209 1216 
Q 2094 1291 1634 1406 
Q 1016 1563 777 1677 
Q 538 1791 414 1992 
Q 291 2194 291 2438 
Q 291 2659 392 2848 
Q 494 3038 669 3163 
Q 800 3259 1026 3326 
Q 1253 3394 1513 3394 
Q 1903 3394 2198 3281 
Q 2494 3169 2634 2976 
Q 2775 2784 2828 2463 
L 2278 2388 
Q 2241 2644 2061 2787 
Q 1881 2931 1553 2931 
Q 1166 2931 1000 2803 
Q 834 2675 834 2503 
Q 834 2394 903 2306 
Q 972 2216 1119 2156 
Q 1203 2125 1616 2013 
Q 2213 1853 2448 1751 
Q 2684 1650 2818 1456 
Q 2953 1263 2953 975 
Q 2953 694 2789 445 
Q 2625 197 2315 61 
Q 2006 -75 1616 -75 
Q 969 -75 630 194 
Q 291 463 197 991 
z
" transform="scale(0.015625)"/>
       <path id="ArialMT-29" d="M 791 -1347 
L 388 -1347 
Q 1322 153 1322 1656 
Q 1322 2244 1188 2822 
Q 1081 3291 891 3722 
Q 769 4003 388 4659 
L 791 4659 
Q 1378 3875 1659 3084 
Q 1900 2403 1900 1659 
Q 1900 816 1576 28 
Q 1253 -759 791 -1347 
z
" transform="scale(0.015625)"/>
      </defs>
      <use xlink:href="#ArialMT-5a"/>
      <use xlink:href="#ArialMT-65" x="61.083984"/>
      <use xlink:href="#ArialMT-69" x="116.699219"/>
      <use xlink:href="#ArialMT-74" x="138.916016"/>
      <use xlink:href="#ArialMT-20" x="166.699219"/>
      <use xlink:href="#ArialMT-28" x="194.482422"/>
      <use xlink:href="#ArialMT-73" x="227.783203"/>
      <use xlink:href="#ArialMT-29" x="277.783203"/>
     </g>
    </g>
   </g>
   <g id="matplotlib.axis_2">
    <g id="ytick_1">
     <g id="line2d_13">
      <path d="M 49.450688 171.848489 
L 783.850687 171.848489 
" clip-path="url(#pafcc45a08a)" style="fill: none; stroke: #cccccc; stroke-width: 0.8; stroke-linecap: round"/>
     </g>
     <g id="line2d_14"/>
     <g id="text_8">
      <!-- 0 -->
      <g style="fill: #262626" transform="translate(40.38975 175.427395) scale(0.1 -0.1)">
       <use xlink:href="#ArialMT-30"/>
      </g>
     </g>
    </g>
    <g id="ytick_2">
     <g id="line2d_15">
      <path d="M 49.450688 150.940744 
L 783.850687 150.940744 
" clip-path="url(#pafcc45a08a)" style="fill: none; stroke: #cccccc; stroke-width: 0.8; stroke-linecap: round"/>
     </g>
     <g id="line2d_16"/>
     <g id="text_9">
      <!-- 20 -->
      <g style="fill: #262626" transform="translate(34.828813 154.51965) scale(0.1 -0.1)">
       <use xlink:href="#ArialMT-32"/>
       <use xlink:href="#ArialMT-30" x="55.615234"/>
      </g>
     </g>
    </g>
    <g id="ytick_3">
     <g id="line2d_17">
      <path d="M 49.450688 130.032999 
L 783.850687 130.032999 
" clip-path="url(#pafcc45a08a)" style="fill: none; stroke: #cccccc; stroke-width: 0.8; stroke-linecap: round"/>
     </g>
     <g id="line2d_18"/>
     <g id="text_10">
      <!-- 40 -->
      <g style="fill: #262626" transform="translate(34.828813 133.611906) scale(0.1 -0.1)">
       <use xlink:href="#ArialMT-34"/>
       <use xlink:href="#ArialMT-30" x="55.615234"/>
      </g>
     </g>
    </g>
    <g id="ytick_4">
     <g id="line2d_19">
      <path d="M 49.450688 109.125255 
L 783.850687 109.125255 
" clip-path="url(#pafcc45a08a)" style="fill: none; stroke: #cccccc; stroke-width: 0.8; stroke-linecap: round"/>
     </g>
     <g id="line2d_20"/>
     <g id="text_11">
      <!-- 60 -->
      <g style="fill: #262626" transform="translate(34.828813 112.704161) scale(0.1 -0.1)">
       <defs>
        <path id="ArialMT-36" d="M 3184 3459 
L 2625 3416 
Q 2550 3747 2413 3897 
Q 2184 4138 1850 4138 
Q 1581 4138 1378 3988 
Q 1113 3794 959 3422 
Q 806 3050 800 2363 
Q 1003 2672 1297 2822 
Q 1591 2972 1913 2972 
Q 2475 2972 2870 2558 
Q 3266 2144 3266 1488 
Q 3266 1056 3080 686 
Q 2894 316 2569 119 
Q 2244 -78 1831 -78 
Q 1128 -78 684 439 
Q 241 956 241 2144 
Q 241 3472 731 4075 
Q 1159 4600 1884 4600 
Q 2425 4600 2770 4297 
Q 3116 3994 3184 3459 
z
M 888 1484 
Q 888 1194 1011 928 
Q 1134 663 1356 523 
Q 1578 384 1822 384 
Q 2178 384 2434 671 
Q 2691 959 2691 1453 
Q 2691 1928 2437 2201 
Q 2184 2475 1800 2475 
Q 1419 2475 1153 2201 
Q 888 1928 888 1484 
z
" transform="scale(0.015625)"/>
       </defs>
       <use xlink:href="#ArialMT-36"/>
       <use xlink:href="#ArialMT-30" x="55.615234"/>
      </g>
     </g>
    </g>
    <g id="ytick_5">
     <g id="line2d_21">
      <path d="M 49.450688 88.21751 
L 783.850687 88.21751 
" clip-path="url(#pafcc45a08a)" style="fill: none; stroke: #cccccc; stroke-width: 0.8; stroke-linecap: round"/>
     </g>
     <g id="line2d_22"/>
     <g id="text_12">
      <!-- 80 -->
      <g style="fill: #262626" transform="translate(34.828813 91.796416) scale(0.1 -0.1)">
       <defs>
        <path id="ArialMT-38" d="M 1131 2484 
Q 781 2613 612 2850 
Q 444 3088 444 3419 
Q 444 3919 803 4259 
Q 1163 4600 1759 4600 
Q 2359 4600 2725 4251 
Q 3091 3903 3091 3403 
Q 3091 3084 2923 2848 
Q 2756 2613 2416 2484 
Q 2838 2347 3058 2040 
Q 3278 1734 3278 1309 
Q 3278 722 2862 322 
Q 2447 -78 1769 -78 
Q 1091 -78 675 323 
Q 259 725 259 1325 
Q 259 1772 486 2073 
Q 713 2375 1131 2484 
z
M 1019 3438 
Q 1019 3113 1228 2906 
Q 1438 2700 1772 2700 
Q 2097 2700 2305 2904 
Q 2513 3109 2513 3406 
Q 2513 3716 2298 3927 
Q 2084 4138 1766 4138 
Q 1444 4138 1231 3931 
Q 1019 3725 1019 3438 
z
M 838 1322 
Q 838 1081 952 856 
Q 1066 631 1291 507 
Q 1516 384 1775 384 
Q 2178 384 2440 643 
Q 2703 903 2703 1303 
Q 2703 1709 2433 1975 
Q 2163 2241 1756 2241 
Q 1359 2241 1098 1978 
Q 838 1716 838 1322 
z
" transform="scale(0.015625)"/>
       </defs>
       <use xlink:href="#ArialMT-38"/>
       <use xlink:href="#ArialMT-30" x="55.615234"/>
      </g>
     </g>
    </g>
    <g id="ytick_6">
     <g id="line2d_23">
      <path d="M 49.450688 67.309766 
L 783.850687 67.309766 
" clip-path="url(#pafcc45a08a)" style="fill: none; stroke: #cccccc; stroke-width: 0.8; stroke-linecap: round"/>
     </g>
     <g id="line2d_24"/>
     <g id="text_13">
      <!-- 100 -->
      <g style="fill: #262626" transform="translate(29.267875 70.888672) scale(0.1 -0.1)">
       <use xlink:href="#ArialMT-31"/>
       <use xlink:href="#ArialMT-30" x="55.615234"/>
       <use xlink:href="#ArialMT-30" x="111.230469"/>
      </g>
     </g>
    </g>
    <g id="ytick_7">
     <g id="line2d_25">
      <path d="M 49.450688 46.402021 
L 783.850687 46.402021 
" clip-path="url(#pafcc45a08a)" style="fill: none; stroke: #cccccc; stroke-width: 0.8; stroke-linecap: round"/>
     </g>
     <g id="line2d_26"/>
     <g id="text_14">
      <!-- 120 -->
      <g style="fill: #262626" transform="translate(29.267875 49.980927) scale(0.1 -0.1)">
       <use xlink:href="#ArialMT-31"/>
       <use xlink:href="#ArialMT-32" x="55.615234"/>
       <use xlink:href="#ArialMT-30" x="111.230469"/>
      </g>
     </g>
    </g>
    <g id="ytick_8">
     <g id="line2d_27">
      <path d="M 49.450688 25.494277 
L 783.850687 25.494277 
" clip-path="url(#pafcc45a08a)" style="fill: none; stroke: #cccccc; stroke-width: 0.8; stroke-linecap: round"/>
     </g>
     <g id="line2d_28"/>
     <g id="text_15">
      <!-- 140 -->
      <g style="fill: #262626" transform="translate(29.267875 29.073183) scale(0.1 -0.1)">
       <use xlink:href="#ArialMT-31"/>
       <use xlink:href="#ArialMT-34" x="55.615234"/>
       <use xlink:href="#ArialMT-30" x="111.230469"/>
      </g>
     </g>
    </g>
    <g id="text_16">
     <!-- Position (m) -->
     <g style="fill: #262626" transform="translate(23.163188 116.948017) rotate(-90) scale(0.1 -0.1)">
      <defs>
       <path id="ArialMT-50" d="M 494 0 
L 494 4581 
L 2222 4581 
Q 2678 4581 2919 4538 
Q 3256 4481 3484 4323 
Q 3713 4166 3852 3881 
Q 3991 3597 3991 3256 
Q 3991 2672 3619 2267 
Q 3247 1863 2275 1863 
L 1100 1863 
L 1100 0 
L 494 0 
z
M 1100 2403 
L 2284 2403 
Q 2872 2403 3119 2622 
Q 3366 2841 3366 3238 
Q 3366 3525 3220 3729 
Q 3075 3934 2838 4000 
Q 2684 4041 2272 4041 
L 1100 4041 
L 1100 2403 
z
" transform="scale(0.015625)"/>
       <path id="ArialMT-6f" d="M 213 1659 
Q 213 2581 725 3025 
Q 1153 3394 1769 3394 
Q 2453 3394 2887 2945 
Q 3322 2497 3322 1706 
Q 3322 1066 3130 698 
Q 2938 331 2570 128 
Q 2203 -75 1769 -75 
Q 1072 -75 642 372 
Q 213 819 213 1659 
z
M 791 1659 
Q 791 1022 1069 705 
Q 1347 388 1769 388 
Q 2188 388 2466 706 
Q 2744 1025 2744 1678 
Q 2744 2294 2464 2611 
Q 2184 2928 1769 2928 
Q 1347 2928 1069 2612 
Q 791 2297 791 1659 
z
" transform="scale(0.015625)"/>
       <path id="ArialMT-6e" d="M 422 0 
L 422 3319 
L 928 3319 
L 928 2847 
Q 1294 3394 1984 3394 
Q 2284 3394 2536 3286 
Q 2788 3178 2913 3003 
Q 3038 2828 3088 2588 
Q 3119 2431 3119 2041 
L 3119 0 
L 2556 0 
L 2556 2019 
Q 2556 2363 2490 2533 
Q 2425 2703 2258 2804 
Q 2091 2906 1866 2906 
Q 1506 2906 1245 2678 
Q 984 2450 984 1813 
L 984 0 
L 422 0 
z
" transform="scale(0.015625)"/>
       <path id="ArialMT-6d" d="M 422 0 
L 422 3319 
L 925 3319 
L 925 2853 
Q 1081 3097 1340 3245 
Q 1600 3394 1931 3394 
Q 2300 3394 2536 3241 
Q 2772 3088 2869 2813 
Q 3263 3394 3894 3394 
Q 4388 3394 4653 3120 
Q 4919 2847 4919 2278 
L 4919 0 
L 4359 0 
L 4359 2091 
Q 4359 2428 4304 2576 
Q 4250 2725 4106 2815 
Q 3963 2906 3769 2906 
Q 3419 2906 3187 2673 
Q 2956 2441 2956 1928 
L 2956 0 
L 2394 0 
L 2394 2156 
Q 2394 2531 2256 2718 
Q 2119 2906 1806 2906 
Q 1569 2906 1367 2781 
Q 1166 2656 1075 2415 
Q 984 2175 984 1722 
L 984 0 
L 422 0 
z
" transform="scale(0.015625)"/>
      </defs>
      <use xlink:href="#ArialMT-50"/>
      <use xlink:href="#ArialMT-6f" x="66.699219"/>
      <use xlink:href="#ArialMT-73" x="122.314453"/>
      <use xlink:href="#ArialMT-69" x="172.314453"/>
      <use xlink:href="#ArialMT-74" x="194.53125"/>
      <use xlink:href="#ArialMT-69" x="222.314453"/>
      <use xlink:href="#ArialMT-6f" x="244.53125"/>
      <use xlink:href="#ArialMT-6e" x="300.146484"/>
      <use xlink:href="#ArialMT-20" x="355.761719"/>
      <use xlink:href="#ArialMT-28" x="383.544922"/>
      <use xlink:href="#ArialMT-6d" x="416.845703"/>
      <use xlink:href="#ArialMT-29" x="500.146484"/>
     </g>
    </g>
   </g>
   <g id="line2d_29">
    <path d="M 49.450688 15.040404 
L 56.459552 15.056403 
L 63.468416 15.104401 
L 70.47728 15.184397 
L 77.486144 15.296391 
L 84.495008 15.440384 
L 91.503872 15.616375 
L 98.512737 15.824365 
L 105.521601 16.064353 
L 112.530465 16.336339 
L 119.539329 16.640323 
L 126.548193 16.976306 
L 133.557057 17.344288 
L 140.565921 17.744268 
L 147.574786 18.176246 
L 154.58365 18.640222 
L 161.592514 19.136197 
L 168.601378 19.664171 
L 175.610242 20.224143 
L 182.619106 20.816113 
L 189.627971 21.440081 
L 196.636835 22.096048 
L 203.645699 22.784013 
L 210.654563 23.503977 
L 217.663427 24.255939 
L 224.672291 25.039899 
L 231.681155 25.855858 
L 238.69002 26.703815 
L 245.698884 27.583771 
L 252.707748 28.495725 
L 259.716612 29.439677 
L 266.725476 30.415628 
L 273.73434 31.423577 
L 280.743205 32.463525 
L 287.752069 33.535471 
L 294.760933 34.639415 
L 301.769797 35.775358 
L 308.778661 36.943299 
L 315.787525 38.143238 
L 322.796389 39.375176 
L 329.805254 40.639112 
L 336.814118 41.935047 
L 343.822982 43.26298 
L 350.831846 44.622911 
L 357.84071 46.014841 
L 364.849574 47.438769 
L 371.858438 48.894695 
L 378.867303 50.38262 
L 385.876167 51.902543 
L 392.885031 53.454465 
L 399.893895 55.038385 
L 406.902759 56.654304 
L 413.911623 58.30222 
L 420.920488 59.982136 
L 427.929352 61.694049 
L 434.938216 63.437961 
L 441.94708 65.213871 
L 448.955944 67.02178 
L 455.964808 68.861687 
L 462.973672 70.733593 
L 469.982537 72.637497 
L 476.991401 74.573399 
L 484.000265 76.5413 
L 491.009129 78.541199 
L 498.017993 80.573096 
L 505.026857 82.636992 
L 512.035722 84.732886 
L 519.044586 86.860779 
L 526.05345 89.02067 
L 533.062314 91.212559 
L 540.071178 93.436447 
L 547.080042 95.692333 
L 554.088906 97.980217 
L 561.097771 100.3001 
L 568.106635 102.651982 
L 575.115499 105.035861 
L 582.124363 107.451739 
L 589.133227 109.899616 
L 596.142091 112.379491 
L 603.150955 114.891364 
L 610.15982 117.435235 
L 617.168684 120.011105 
L 624.177548 122.618974 
L 631.186412 125.25884 
L 638.195276 127.930706 
L 645.20414 130.634569 
L 652.213005 133.370431 
L 659.221869 136.138291 
L 666.230733 138.93815 
L 673.239597 141.770007 
L 680.248461 144.633862 
L 687.257325 147.529716 
L 694.266189 150.457568 
L 701.275054 153.417419 
L 708.283918 156.409268 
L 715.292782 159.433115 
L 722.301646 162.488961 
L 729.31051 165.576805 
L 736.319374 168.696648 
L 743.328239 171.848489 
L 743.328239 171.848489 
L 743.559531 171.741772 
L 743.790824 171.6307 
L 744.022116 171.515271 
L 744.253409 171.395487 
L 744.484701 171.271348 
L 744.715994 171.142852 
L 744.947286 171.010001 
L 745.178579 170.872794 
L 745.409871 170.731231 
L 745.641164 170.585312 
L 745.872456 170.435038 
L 746.103749 170.280408 
L 746.335041 170.121422 
L 746.566334 169.95808 
L 746.797626 169.790382 
L 747.028919 169.618329 
L 747.260211 169.44192 
L 747.491504 169.261155 
L 747.722796 169.076034 
L 747.954089 168.886558 
L 748.185381 168.692726 
L 748.416674 168.494538 
L 748.647966 168.291994 
L 748.879259 168.085095 
" clip-path="url(#pafcc45a08a)" style="fill: none; stroke: #0000ff; stroke-width: 2; stroke-linecap: round"/>
   </g>
   <g id="patch_3">
    <path d="M 49.450688 173.353846 
L 49.450688 7.2 
" style="fill: none; stroke: #cccccc; stroke-linejoin: miter; stroke-linecap: square"/>
   </g>
   <g id="patch_4">
    <path d="M 783.850687 173.353846 
L 783.850687 7.2 
" style="fill: none; stroke: #cccccc; stroke-linejoin: miter; stroke-linecap: square"/>
   </g>
   <g id="patch_5">
    <path d="M 49.450688 173.353846 
L 783.850687 173.353846 
" style="fill: none; stroke: #cccccc; stroke-linejoin: miter; stroke-linecap: square"/>
   </g>
   <g id="patch_6">
    <path d="M 49.450688 7.2 
L 783.850687 7.2 
" style="fill: none; stroke: #cccccc; stroke-linejoin: miter; stroke-linecap: square"/>
   </g>
   <g id="legend_1">
    <g id="line2d_30">
     <path d="M 696.587687 23.180889 
L 706.587687 23.180889 
L 716.587687 23.180889 
" style="fill: none; stroke: #0000ff; stroke-width: 2; stroke-linecap: round"/>
    </g>
    <g id="text_17">
     <!-- Position -->
     <g style="fill: #262626" transform="translate(724.587687 26.680889) scale(0.1 -0.1)">
      <use xlink:href="#ArialMT-50"/>
      <use xlink:href="#ArialMT-6f" x="66.699219"/>
      <use xlink:href="#ArialMT-73" x="122.314453"/>
      <use xlink:href="#ArialMT-69" x="172.314453"/>
      <use xlink:href="#ArialMT-74" x="194.53125"/>
      <use xlink:href="#ArialMT-69" x="222.314453"/>
      <use xlink:href="#ArialMT-6f" x="244.53125"/>
      <use xlink:href="#ArialMT-6e" x="300.146484"/>
     </g>
    </g>
   </g>
  </g>
  <g id="axes_2">
   <g id="patch_7">
    <path d="M 49.450688 378.276923 
L 783.850687 378.276923 
L 783.850687 212.123077 
L 49.450688 212.123077 
z
" style="fill: #ffffff"/>
   </g>
   <g id="matplotlib.axis_3">
    <g id="xtick_7">
     <g id="line2d_31">
      <path d="M 49.450688 378.276923 
L 49.450688 212.123077 
" clip-path="url(#p9e6e5aaace)" style="fill: none; stroke: #cccccc; stroke-width: 0.8; stroke-linecap: round"/>
     </g>
     <g id="line2d_32"/>
     <g id="text_18">
      <!-- 0 -->
      <g style="fill: #262626" transform="translate(46.670219 388.934736) scale(0.1 -0.1)">
       <use xlink:href="#ArialMT-30"/>
      </g>
     </g>
    </g>
    <g id="xtick_8">
     <g id="line2d_33">
      <path d="M 174.925546 378.276923 
L 174.925546 212.123077 
" clip-path="url(#p9e6e5aaace)" style="fill: none; stroke: #cccccc; stroke-width: 0.8; stroke-linecap: round"/>
     </g>
     <g id="line2d_34"/>
     <g id="text_19">
      <!-- 1 -->
      <g style="fill: #262626" transform="translate(172.145077 388.934736) scale(0.1 -0.1)">
       <use xlink:href="#ArialMT-31"/>
      </g>
     </g>
    </g>
    <g id="xtick_9">
     <g id="line2d_35">
      <path d="M 300.400404 378.276923 
L 300.400404 212.123077 
" clip-path="url(#p9e6e5aaace)" style="fill: none; stroke: #cccccc; stroke-width: 0.8; stroke-linecap: round"/>
     </g>
     <g id="line2d_36"/>
     <g id="text_20">
      <!-- 2 -->
      <g style="fill: #262626" transform="translate(297.619935 388.934736) scale(0.1 -0.1)">
       <use xlink:href="#ArialMT-32"/>
      </g>
     </g>
    </g>
    <g id="xtick_10">
     <g id="line2d_37">
      <path d="M 425.875262 378.276923 
L 425.875262 212.123077 
" clip-path="url(#p9e6e5aaace)" style="fill: none; stroke: #cccccc; stroke-width: 0.8; stroke-linecap: round"/>
     </g>
     <g id="line2d_38"/>
     <g id="text_21">
      <!-- 3 -->
      <g style="fill: #262626" transform="translate(423.094793 388.934736) scale(0.1 -0.1)">
       <use xlink:href="#ArialMT-33"/>
      </g>
     </g>
    </g>
    <g id="xtick_11">
     <g id="line2d_39">
      <path d="M 551.35012 378.276923 
L 551.35012 212.123077 
" clip-path="url(#p9e6e5aaace)" style="fill: none; stroke: #cccccc; stroke-width: 0.8; stroke-linecap: round"/>
     </g>
     <g id="line2d_40"/>
     <g id="text_22">
      <!-- 4 -->
      <g style="fill: #262626" transform="translate(548.569651 388.934736) scale(0.1 -0.1)">
       <use xlink:href="#ArialMT-34"/>
      </g>
     </g>
    </g>
    <g id="xtick_12">
     <g id="line2d_41">
      <path d="M 676.824978 378.276923 
L 676.824978 212.123077 
" clip-path="url(#p9e6e5aaace)" style="fill: none; stroke: #cccccc; stroke-width: 0.8; stroke-linecap: round"/>
     </g>
     <g id="line2d_42"/>
     <g id="text_23">
      <!-- 5 -->
      <g style="fill: #262626" transform="translate(674.044509 388.934736) scale(0.1 -0.1)">
       <use xlink:href="#ArialMT-35"/>
      </g>
     </g>
    </g>
    <g id="text_24">
     <!-- Zeit (s) -->
     <g style="fill: #262626" transform="translate(401.097562 402.201923) scale(0.1 -0.1)">
      <use xlink:href="#ArialMT-5a"/>
      <use xlink:href="#ArialMT-65" x="61.083984"/>
      <use xlink:href="#ArialMT-69" x="116.699219"/>
      <use xlink:href="#ArialMT-74" x="138.916016"/>
      <use xlink:href="#ArialMT-20" x="166.699219"/>
      <use xlink:href="#ArialMT-28" x="194.482422"/>
      <use xlink:href="#ArialMT-73" x="227.783203"/>
      <use xlink:href="#ArialMT-29" x="277.783203"/>
     </g>
    </g>
   </g>
   <g id="matplotlib.axis_4">
    <g id="ytick_9">
     <g id="line2d_43">
      <path d="M 49.450688 364.869179 
L 783.850687 364.869179 
" clip-path="url(#p9e6e5aaace)" style="fill: none; stroke: #cccccc; stroke-width: 0.8; stroke-linecap: round"/>
     </g>
     <g id="line2d_44"/>
     <g id="text_25">
      <!-- 0 -->
      <g style="fill: #262626" transform="translate(40.38975 368.448085) scale(0.1 -0.1)">
       <use xlink:href="#ArialMT-30"/>
      </g>
     </g>
    </g>
    <g id="ytick_10">
     <g id="line2d_45">
      <path d="M 49.450688 338.053691 
L 783.850687 338.053691 
" clip-path="url(#p9e6e5aaace)" style="fill: none; stroke: #cccccc; stroke-width: 0.8; stroke-linecap: round"/>
     </g>
     <g id="line2d_46"/>
     <g id="text_26">
      <!-- 10 -->
      <g style="fill: #262626" transform="translate(34.828813 341.632597) scale(0.1 -0.1)">
       <use xlink:href="#ArialMT-31"/>
       <use xlink:href="#ArialMT-30" x="55.615234"/>
      </g>
     </g>
    </g>
    <g id="ytick_11">
     <g id="line2d_47">
      <path d="M 49.450688 311.238203 
L 783.850687 311.238203 
" clip-path="url(#p9e6e5aaace)" style="fill: none; stroke: #cccccc; stroke-width: 0.8; stroke-linecap: round"/>
     </g>
     <g id="line2d_48"/>
     <g id="text_27">
      <!-- 20 -->
      <g style="fill: #262626" transform="translate(34.828813 314.817109) scale(0.1 -0.1)">
       <use xlink:href="#ArialMT-32"/>
       <use xlink:href="#ArialMT-30" x="55.615234"/>
      </g>
     </g>
    </g>
    <g id="ytick_12">
     <g id="line2d_49">
      <path d="M 49.450688 284.422715 
L 783.850687 284.422715 
" clip-path="url(#p9e6e5aaace)" style="fill: none; stroke: #cccccc; stroke-width: 0.8; stroke-linecap: round"/>
     </g>
     <g id="line2d_50"/>
     <g id="text_28">
      <!-- 30 -->
      <g style="fill: #262626" transform="translate(34.828813 288.001621) scale(0.1 -0.1)">
       <use xlink:href="#ArialMT-33"/>
       <use xlink:href="#ArialMT-30" x="55.615234"/>
      </g>
     </g>
    </g>
    <g id="ytick_13">
     <g id="line2d_51">
      <path d="M 49.450688 257.607227 
L 783.850687 257.607227 
" clip-path="url(#p9e6e5aaace)" style="fill: none; stroke: #cccccc; stroke-width: 0.8; stroke-linecap: round"/>
     </g>
     <g id="line2d_52"/>
     <g id="text_29">
      <!-- 40 -->
      <g style="fill: #262626" transform="translate(34.828813 261.186133) scale(0.1 -0.1)">
       <use xlink:href="#ArialMT-34"/>
       <use xlink:href="#ArialMT-30" x="55.615234"/>
      </g>
     </g>
    </g>
    <g id="ytick_14">
     <g id="line2d_53">
      <path d="M 49.450688 230.791739 
L 783.850687 230.791739 
" clip-path="url(#p9e6e5aaace)" style="fill: none; stroke: #cccccc; stroke-width: 0.8; stroke-linecap: round"/>
     </g>
     <g id="line2d_54"/>
     <g id="text_30">
      <!-- 50 -->
      <g style="fill: #262626" transform="translate(34.828813 234.370645) scale(0.1 -0.1)">
       <use xlink:href="#ArialMT-35"/>
       <use xlink:href="#ArialMT-30" x="55.615234"/>
      </g>
     </g>
    </g>
    <g id="text_31">
     <!-- Geschwindigkeit (m/s) -->
     <g style="fill: #262626" transform="translate(28.724125 344.377344) rotate(-90) scale(0.1 -0.1)">
      <defs>
       <path id="ArialMT-47" d="M 2638 1797 
L 2638 2334 
L 4578 2338 
L 4578 638 
Q 4131 281 3656 101 
Q 3181 -78 2681 -78 
Q 2006 -78 1454 211 
Q 903 500 622 1047 
Q 341 1594 341 2269 
Q 341 2938 620 3517 
Q 900 4097 1425 4378 
Q 1950 4659 2634 4659 
Q 3131 4659 3532 4498 
Q 3934 4338 4162 4050 
Q 4391 3763 4509 3300 
L 3963 3150 
Q 3859 3500 3706 3700 
Q 3553 3900 3268 4020 
Q 2984 4141 2638 4141 
Q 2222 4141 1919 4014 
Q 1616 3888 1430 3681 
Q 1244 3475 1141 3228 
Q 966 2803 966 2306 
Q 966 1694 1177 1281 
Q 1388 869 1791 669 
Q 2194 469 2647 469 
Q 3041 469 3416 620 
Q 3791 772 3984 944 
L 3984 1797 
L 2638 1797 
z
" transform="scale(0.015625)"/>
       <path id="ArialMT-63" d="M 2588 1216 
L 3141 1144 
Q 3050 572 2676 248 
Q 2303 -75 1759 -75 
Q 1078 -75 664 370 
Q 250 816 250 1647 
Q 250 2184 428 2587 
Q 606 2991 970 3192 
Q 1334 3394 1763 3394 
Q 2303 3394 2647 3120 
Q 2991 2847 3088 2344 
L 2541 2259 
Q 2463 2594 2264 2762 
Q 2066 2931 1784 2931 
Q 1359 2931 1093 2626 
Q 828 2322 828 1663 
Q 828 994 1084 691 
Q 1341 388 1753 388 
Q 2084 388 2306 591 
Q 2528 794 2588 1216 
z
" transform="scale(0.015625)"/>
       <path id="ArialMT-68" d="M 422 0 
L 422 4581 
L 984 4581 
L 984 2938 
Q 1378 3394 1978 3394 
Q 2347 3394 2619 3248 
Q 2891 3103 3008 2847 
Q 3125 2591 3125 2103 
L 3125 0 
L 2563 0 
L 2563 2103 
Q 2563 2525 2380 2717 
Q 2197 2909 1863 2909 
Q 1613 2909 1392 2779 
Q 1172 2650 1078 2428 
Q 984 2206 984 1816 
L 984 0 
L 422 0 
z
" transform="scale(0.015625)"/>
       <path id="ArialMT-77" d="M 1034 0 
L 19 3319 
L 600 3319 
L 1128 1403 
L 1325 691 
Q 1338 744 1497 1375 
L 2025 3319 
L 2603 3319 
L 3100 1394 
L 3266 759 
L 3456 1400 
L 4025 3319 
L 4572 3319 
L 3534 0 
L 2950 0 
L 2422 1988 
L 2294 2553 
L 1622 0 
L 1034 0 
z
" transform="scale(0.015625)"/>
       <path id="ArialMT-64" d="M 2575 0 
L 2575 419 
Q 2259 -75 1647 -75 
Q 1250 -75 917 144 
Q 584 363 401 755 
Q 219 1147 219 1656 
Q 219 2153 384 2558 
Q 550 2963 881 3178 
Q 1213 3394 1622 3394 
Q 1922 3394 2156 3267 
Q 2391 3141 2538 2938 
L 2538 4581 
L 3097 4581 
L 3097 0 
L 2575 0 
z
M 797 1656 
Q 797 1019 1065 703 
Q 1334 388 1700 388 
Q 2069 388 2326 689 
Q 2584 991 2584 1609 
Q 2584 2291 2321 2609 
Q 2059 2928 1675 2928 
Q 1300 2928 1048 2622 
Q 797 2316 797 1656 
z
" transform="scale(0.015625)"/>
       <path id="ArialMT-67" d="M 319 -275 
L 866 -356 
Q 900 -609 1056 -725 
Q 1266 -881 1628 -881 
Q 2019 -881 2231 -725 
Q 2444 -569 2519 -288 
Q 2563 -116 2559 434 
Q 2191 0 1641 0 
Q 956 0 581 494 
Q 206 988 206 1678 
Q 206 2153 378 2554 
Q 550 2956 876 3175 
Q 1203 3394 1644 3394 
Q 2231 3394 2613 2919 
L 2613 3319 
L 3131 3319 
L 3131 450 
Q 3131 -325 2973 -648 
Q 2816 -972 2473 -1159 
Q 2131 -1347 1631 -1347 
Q 1038 -1347 672 -1080 
Q 306 -813 319 -275 
z
M 784 1719 
Q 784 1066 1043 766 
Q 1303 466 1694 466 
Q 2081 466 2343 764 
Q 2606 1063 2606 1700 
Q 2606 2309 2336 2618 
Q 2066 2928 1684 2928 
Q 1309 2928 1046 2623 
Q 784 2319 784 1719 
z
" transform="scale(0.015625)"/>
       <path id="ArialMT-6b" d="M 425 0 
L 425 4581 
L 988 4581 
L 988 1969 
L 2319 3319 
L 3047 3319 
L 1778 2088 
L 3175 0 
L 2481 0 
L 1384 1697 
L 988 1316 
L 988 0 
L 425 0 
z
" transform="scale(0.015625)"/>
       <path id="ArialMT-2f" d="M 0 -78 
L 1328 4659 
L 1778 4659 
L 453 -78 
L 0 -78 
z
" transform="scale(0.015625)"/>
      </defs>
      <use xlink:href="#ArialMT-47"/>
      <use xlink:href="#ArialMT-65" x="77.783203"/>
      <use xlink:href="#ArialMT-73" x="133.398438"/>
      <use xlink:href="#ArialMT-63" x="183.398438"/>
      <use xlink:href="#ArialMT-68" x="233.398438"/>
      <use xlink:href="#ArialMT-77" x="289.013672"/>
      <use xlink:href="#ArialMT-69" x="361.230469"/>
      <use xlink:href="#ArialMT-6e" x="383.447266"/>
      <use xlink:href="#ArialMT-64" x="439.0625"/>
      <use xlink:href="#ArialMT-69" x="494.677734"/>
      <use xlink:href="#ArialMT-67" x="516.894531"/>
      <use xlink:href="#ArialMT-6b" x="572.509766"/>
      <use xlink:href="#ArialMT-65" x="622.509766"/>
      <use xlink:href="#ArialMT-69" x="678.125"/>
      <use xlink:href="#ArialMT-74" x="700.341797"/>
      <use xlink:href="#ArialMT-20" x="728.125"/>
      <use xlink:href="#ArialMT-28" x="755.908203"/>
      <use xlink:href="#ArialMT-6d" x="789.208984"/>
      <use xlink:href="#ArialMT-2f" x="872.509766"/>
      <use xlink:href="#ArialMT-73" x="900.292969"/>
      <use xlink:href="#ArialMT-29" x="950.292969"/>
     </g>
    </g>
   </g>
   <g id="line2d_55">
    <path d="M 49.450688 364.869179 
L 56.459552 363.39976 
L 63.468416 361.930341 
L 70.47728 360.460922 
L 77.486144 358.991503 
L 84.495008 357.522084 
L 91.503872 356.052665 
L 98.512737 354.583246 
L 105.521601 353.113827 
L 112.530465 351.644408 
L 119.539329 350.174989 
L 126.548193 348.70557 
L 133.557057 347.236151 
L 140.565921 345.766732 
L 147.574786 344.297313 
L 154.58365 342.827894 
L 161.592514 341.358475 
L 168.601378 339.889057 
L 175.610242 338.419638 
L 182.619106 336.950219 
L 189.627971 335.4808 
L 196.636835 334.011381 
L 203.645699 332.541962 
L 210.654563 331.072543 
L 217.663427 329.603124 
L 224.672291 328.133705 
L 231.681155 326.664286 
L 238.69002 325.194867 
L 245.698884 323.725448 
L 252.707748 322.256029 
L 259.716612 320.78661 
L 266.725476 319.317191 
L 273.73434 317.847772 
L 280.743205 316.378353 
L 287.752069 314.908934 
L 294.760933 313.439515 
L 301.769797 311.970096 
L 308.778661 310.500677 
L 315.787525 309.031258 
L 322.796389 307.561839 
L 329.805254 306.09242 
L 336.814118 304.623001 
L 343.822982 303.153582 
L 350.831846 301.684163 
L 357.84071 300.214744 
L 364.849574 298.745325 
L 371.858438 297.275906 
L 378.867303 295.806487 
L 385.876167 294.337068 
L 392.885031 292.867649 
L 399.893895 291.39823 
L 406.902759 289.928811 
L 413.911623 288.459393 
L 420.920488 286.989974 
L 427.929352 285.520555 
L 434.938216 284.051136 
L 441.94708 282.581717 
L 448.955944 281.112298 
L 455.964808 279.642879 
L 462.973672 278.17346 
L 469.982537 276.704041 
L 476.991401 275.234622 
L 484.000265 273.765203 
L 491.009129 272.295784 
L 498.017993 270.826365 
L 505.026857 269.356946 
L 512.035722 267.887527 
L 519.044586 266.418108 
L 526.05345 264.948689 
L 533.062314 263.47927 
L 540.071178 262.009851 
L 547.080042 260.540432 
L 554.088906 259.071013 
L 561.097771 257.601594 
L 568.106635 256.132175 
L 575.115499 254.662756 
L 582.124363 253.193337 
L 589.133227 251.723918 
L 596.142091 250.254499 
L 603.150955 248.78508 
L 610.15982 247.315661 
L 617.168684 245.846242 
L 624.177548 244.376823 
L 631.186412 242.907404 
L 638.195276 241.437985 
L 645.20414 239.968566 
L 652.213005 238.499147 
L 659.221869 237.029728 
L 666.230733 235.56031 
L 673.239597 234.090891 
L 680.248461 232.621472 
L 687.257325 231.152053 
L 694.266189 229.682634 
L 701.275054 228.213215 
L 708.283918 226.743796 
L 715.292782 225.274377 
L 722.301646 223.804958 
L 729.31051 222.335539 
L 736.319374 220.86612 
L 743.328239 219.396701 
L 743.328239 219.396701 
L 743.559531 225.458054 
L 743.790824 231.519407 
L 744.022116 237.580761 
L 744.253409 243.642114 
L 744.484701 249.703467 
L 744.715994 255.76482 
L 744.947286 261.826174 
L 745.178579 267.887527 
L 745.409871 273.94888 
L 745.641164 280.010233 
L 745.872456 286.071587 
L 746.103749 292.13294 
L 746.335041 298.194293 
L 746.566334 304.255646 
L 746.797626 310.317 
L 747.028919 316.378353 
L 747.260211 322.439706 
L 747.491504 328.501059 
L 747.722796 334.562413 
L 747.954089 340.623766 
L 748.185381 346.685119 
L 748.416674 352.746473 
L 748.647966 358.807826 
L 748.879259 364.869179 
" clip-path="url(#p9e6e5aaace)" style="fill: none; stroke: #008000; stroke-width: 2; stroke-linecap: round"/>
   </g>
   <g id="patch_8">
    <path d="M 49.450688 378.276923 
L 49.450688 212.123077 
" style="fill: none; stroke: #cccccc; stroke-linejoin: miter; stroke-linecap: square"/>
   </g>
   <g id="patch_9">
    <path d="M 783.850687 378.276923 
L 783.850687 212.123077 
" style="fill: none; stroke: #cccccc; stroke-linejoin: miter; stroke-linecap: square"/>
   </g>
   <g id="patch_10">
    <path d="M 49.450688 378.276923 
L 783.850687 378.276923 
" style="fill: none; stroke: #cccccc; stroke-linejoin: miter; stroke-linecap: square"/>
   </g>
   <g id="patch_11">
    <path d="M 49.450688 212.123077 
L 783.850687 212.123077 
" style="fill: none; stroke: #cccccc; stroke-linejoin: miter; stroke-linecap: square"/>
   </g>
   <g id="legend_2">
    <g id="line2d_56">
     <path d="M 659.353312 228.225841 
L 669.353312 228.225841 
L 679.353312 228.225841 
" style="fill: none; stroke: #008000; stroke-width: 2; stroke-linecap: round"/>
    </g>
    <g id="text_32">
     <!-- Geschwindigkeit -->
     <g style="fill: #262626" transform="translate(687.353312 231.725841) scale(0.1 -0.1)">
      <use xlink:href="#ArialMT-47"/>
      <use xlink:href="#ArialMT-65" x="77.783203"/>
      <use xlink:href="#ArialMT-73" x="133.398438"/>
      <use xlink:href="#ArialMT-63" x="183.398438"/>
      <use xlink:href="#ArialMT-68" x="233.398438"/>
      <use xlink:href="#ArialMT-77" x="289.013672"/>
      <use xlink:href="#ArialMT-69" x="361.230469"/>
      <use xlink:href="#ArialMT-6e" x="383.447266"/>
      <use xlink:href="#ArialMT-64" x="439.0625"/>
      <use xlink:href="#ArialMT-69" x="494.677734"/>
      <use xlink:href="#ArialMT-67" x="516.894531"/>
      <use xlink:href="#ArialMT-6b" x="572.509766"/>
      <use xlink:href="#ArialMT-65" x="622.509766"/>
      <use xlink:href="#ArialMT-69" x="678.125"/>
      <use xlink:href="#ArialMT-74" x="700.341797"/>
     </g>
    </g>
   </g>
  </g>
  <g id="axes_3">
   <g id="patch_12">
    <path d="M 92.650688 541.8 
L 697.450687 541.8 
L 697.450687 531 
L 92.650688 531 
z
" clip-path="url(#p61634d358b)" style="fill: #d3d3d3"/>
   </g>
   <g id="patch_13">
    <path d="M 92.650688 541.8 
L 384.623101 541.8 
L 384.623101 531 
L 92.650688 531 
z
" clip-path="url(#p61634d358b)" style="fill: #4169e1; stroke: #4169e1; stroke-linejoin: miter"/>
   </g>
   <g id="line2d_57">
    <path d="M 384.623101 547.2 
L 384.623101 525.6 
" clip-path="url(#p24da6a19db)" style="fill: none; stroke: #ff0000; stroke-linecap: round"/>
   </g>
   <g id="line2d_58">
    <defs>
     <path id="m46e167cf2c" d="M 0 5 
C 1.326016 5 2.597899 4.473168 3.535534 3.535534 
C 4.473168 2.597899 5 1.326016 5 0 
C 5 -1.326016 4.473168 -2.597899 3.535534 -3.535534 
C 2.597899 -4.473168 1.326016 -5 0 -5 
C -1.326016 -5 -2.597899 -4.473168 -3.535534 -3.535534 
C -4.473168 -2.597899 -5 -1.326016 -5 0 
C -5 1.326016 -4.473168 2.597899 -3.535534 3.535534 
C -2.597899 4.473168 -1.326016 5 0 5 
z
" style="stroke: #bfbfbf"/>
    </defs>
    <g>
     <use xlink:href="#m46e167cf2c" x="384.623101" y="536.4" style="fill: #ffffff; stroke: #bfbfbf"/>
    </g>
   </g>
   <g id="text_33">
    <!-- Fallhöhe (m) -->
    <g style="fill: #262626" transform="translate(24.43125 538.9875) scale(0.1 -0.1)">
     <defs>
      <path id="ArialMT-46" d="M 525 0 
L 525 4581 
L 3616 4581 
L 3616 4041 
L 1131 4041 
L 1131 2622 
L 3281 2622 
L 3281 2081 
L 1131 2081 
L 1131 0 
L 525 0 
z
" transform="scale(0.015625)"/>
      <path id="ArialMT-61" d="M 2588 409 
Q 2275 144 1986 34 
Q 1697 -75 1366 -75 
Q 819 -75 525 192 
Q 231 459 231 875 
Q 231 1119 342 1320 
Q 453 1522 633 1644 
Q 813 1766 1038 1828 
Q 1203 1872 1538 1913 
Q 2219 1994 2541 2106 
Q 2544 2222 2544 2253 
Q 2544 2597 2384 2738 
Q 2169 2928 1744 2928 
Q 1347 2928 1158 2789 
Q 969 2650 878 2297 
L 328 2372 
Q 403 2725 575 2942 
Q 747 3159 1072 3276 
Q 1397 3394 1825 3394 
Q 2250 3394 2515 3294 
Q 2781 3194 2906 3042 
Q 3031 2891 3081 2659 
Q 3109 2516 3109 2141 
L 3109 1391 
Q 3109 606 3145 398 
Q 3181 191 3288 0 
L 2700 0 
Q 2613 175 2588 409 
z
M 2541 1666 
Q 2234 1541 1622 1453 
Q 1275 1403 1131 1340 
Q 988 1278 909 1158 
Q 831 1038 831 891 
Q 831 666 1001 516 
Q 1172 366 1500 366 
Q 1825 366 2078 508 
Q 2331 650 2450 897 
Q 2541 1088 2541 1459 
L 2541 1666 
z
" transform="scale(0.015625)"/>
      <path id="ArialMT-6c" d="M 409 0 
L 409 4581 
L 972 4581 
L 972 0 
L 409 0 
z
" transform="scale(0.015625)"/>
      <path id="ArialMT-f6" d="M 213 1659 
Q 213 2581 725 3025 
Q 1153 3394 1769 3394 
Q 2453 3394 2887 2945 
Q 3322 2497 3322 1706 
Q 3322 1066 3130 698 
Q 2938 331 2570 128 
Q 2203 -75 1769 -75 
Q 1072 -75 642 372 
Q 213 819 213 1659 
z
M 791 1659 
Q 791 1022 1069 705 
Q 1347 388 1769 388 
Q 2188 388 2466 706 
Q 2744 1025 2744 1678 
Q 2744 2294 2464 2611 
Q 2184 2928 1769 2928 
Q 1347 2928 1069 2612 
Q 791 2297 791 1659 
z
M 895 3969 
L 895 4609 
L 1482 4609 
L 1482 3969 
L 895 3969 
z
M 2060 3969 
L 2060 4609 
L 2648 4609 
L 2648 3969 
L 2060 3969 
z
" transform="scale(0.015625)"/>
     </defs>
     <use xlink:href="#ArialMT-46"/>
     <use xlink:href="#ArialMT-61" x="61.083984"/>
     <use xlink:href="#ArialMT-6c" x="116.699219"/>
     <use xlink:href="#ArialMT-6c" x="138.916016"/>
     <use xlink:href="#ArialMT-68" x="161.132812"/>
     <use xlink:href="#ArialMT-f6" x="216.748047"/>
     <use xlink:href="#ArialMT-68" x="272.363281"/>
     <use xlink:href="#ArialMT-65" x="327.978516"/>
     <use xlink:href="#ArialMT-20" x="383.59375"/>
     <use xlink:href="#ArialMT-28" x="411.376953"/>
     <use xlink:href="#ArialMT-6d" x="444.677734"/>
     <use xlink:href="#ArialMT-29" x="527.978516"/>
    </g>
   </g>
   <g id="text_34">
    <!-- $\mathdefault{150}$ -->
    <g style="fill: #262626" transform="translate(709.546687 538.985156) scale(0.1 -0.1)">
     <use xlink:href="#ArialMT-31" transform="translate(0 0.125)"/>
     <use xlink:href="#ArialMT-35" transform="translate(55.615234 0.125)"/>
     <use xlink:href="#ArialMT-30" transform="translate(111.230469 0.125)"/>
    </g>
   </g>
  </g>
  <g id="axes_4">
   <g id="patch_14">
    <path d="M 92.650688 613.8 
L 697.450687 613.8 
L 697.450687 603 
L 92.650688 603 
z
" clip-path="url(#p92a65d6bee)" style="fill: #d3d3d3"/>
   </g>
   <g id="patch_15">
    <path d="M 92.650688 613.8 
L 308.650688 613.8 
L 308.650688 603 
L 92.650688 603 
z
" clip-path="url(#p92a65d6bee)" style="fill: #228b22; stroke: #228b22; stroke-linejoin: miter"/>
   </g>
   <g id="line2d_59">
    <path d="M 308.650688 619.2 
L 308.650688 597.6 
" clip-path="url(#p4a6c5f68a5)" style="fill: none; stroke: #ff0000; stroke-linecap: round"/>
   </g>
   <g id="line2d_60">
    <g>
     <use xlink:href="#m46e167cf2c" x="308.650688" y="608.4" style="fill: #ffffff; stroke: #bfbfbf"/>
    </g>
   </g>
   <g id="text_35">
    <!-- Eindringtiefe (m) -->
    <g style="fill: #262626" transform="translate(7.2 610.9875) scale(0.1 -0.1)">
     <defs>
      <path id="ArialMT-45" d="M 506 0 
L 506 4581 
L 3819 4581 
L 3819 4041 
L 1113 4041 
L 1113 2638 
L 3647 2638 
L 3647 2100 
L 1113 2100 
L 1113 541 
L 3925 541 
L 3925 0 
L 506 0 
z
" transform="scale(0.015625)"/>
      <path id="ArialMT-72" d="M 416 0 
L 416 3319 
L 922 3319 
L 922 2816 
Q 1116 3169 1280 3281 
Q 1444 3394 1641 3394 
Q 1925 3394 2219 3213 
L 2025 2691 
Q 1819 2813 1613 2813 
Q 1428 2813 1281 2702 
Q 1134 2591 1072 2394 
Q 978 2094 978 1738 
L 978 0 
L 416 0 
z
" transform="scale(0.015625)"/>
      <path id="ArialMT-66" d="M 556 0 
L 556 2881 
L 59 2881 
L 59 3319 
L 556 3319 
L 556 3672 
Q 556 4006 616 4169 
Q 697 4388 901 4523 
Q 1106 4659 1475 4659 
Q 1713 4659 2000 4603 
L 1916 4113 
Q 1741 4144 1584 4144 
Q 1328 4144 1222 4034 
Q 1116 3925 1116 3625 
L 1116 3319 
L 1763 3319 
L 1763 2881 
L 1116 2881 
L 1116 0 
L 556 0 
z
" transform="scale(0.015625)"/>
     </defs>
     <use xlink:href="#ArialMT-45"/>
     <use xlink:href="#ArialMT-69" x="66.699219"/>
     <use xlink:href="#ArialMT-6e" x="88.916016"/>
     <use xlink:href="#ArialMT-64" x="144.53125"/>
     <use xlink:href="#ArialMT-72" x="200.146484"/>
     <use xlink:href="#ArialMT-69" x="233.447266"/>
     <use xlink:href="#ArialMT-6e" x="255.664062"/>
     <use xlink:href="#ArialMT-67" x="311.279297"/>
     <use xlink:href="#ArialMT-74" x="366.894531"/>
     <use xlink:href="#ArialMT-69" x="394.677734"/>
     <use xlink:href="#ArialMT-65" x="416.894531"/>
     <use xlink:href="#ArialMT-66" x="472.509766"/>
     <use xlink:href="#ArialMT-65" x="500.292969"/>
     <use xlink:href="#ArialMT-20" x="555.908203"/>
     <use xlink:href="#ArialMT-28" x="583.691406"/>
     <use xlink:href="#ArialMT-6d" x="616.992188"/>
     <use xlink:href="#ArialMT-29" x="700.292969"/>
    </g>
   </g>
   <g id="text_36">
    <!-- $\mathdefault{1.2}$ -->
    <g style="fill: #262626" transform="translate(709.546687 610.985156) scale(0.1 -0.1)">
     <defs>
      <path id="ArialMT-2e" d="M 581 0 
L 581 641 
L 1222 641 
L 1222 0 
L 581 0 
z
" transform="scale(0.015625)"/>
     </defs>
     <use xlink:href="#ArialMT-31" transform="translate(0 0.125)"/>
     <use xlink:href="#ArialMT-2e" transform="translate(55.615234 0.125)"/>
     <use xlink:href="#ArialMT-32" transform="translate(83.398438 0.125)"/>
    </g>
   </g>
  </g>
  <g id="text_37">
   <g id="patch_16">
    <path d="M 88.650688 682.904687 
L 248.93975 682.904687 
L 248.93975 622.685937 
L 88.650688 622.685937 
z
" style="fill: #ffffff; opacity: 0.8; stroke: #000000; stroke-linejoin: miter"/>
   </g>
   <!-- Auftreffgeschwindigkeit: 54.25 m/s -->
   <g style="fill: #262626" transform="translate(92.650688 633.965625) scale(0.1 -0.1)">
    <defs>
     <path id="ArialMT-41" d="M -9 0 
L 1750 4581 
L 2403 4581 
L 4278 0 
L 3588 0 
L 3053 1388 
L 1138 1388 
L 634 0 
L -9 0 
z
M 1313 1881 
L 2866 1881 
L 2388 3150 
Q 2169 3728 2063 4100 
Q 1975 3659 1816 3225 
L 1313 1881 
z
" transform="scale(0.015625)"/>
     <path id="ArialMT-75" d="M 2597 0 
L 2597 488 
Q 2209 -75 1544 -75 
Q 1250 -75 995 37 
Q 741 150 617 320 
Q 494 491 444 738 
Q 409 903 409 1263 
L 409 3319 
L 972 3319 
L 972 1478 
Q 972 1038 1006 884 
Q 1059 663 1231 536 
Q 1403 409 1656 409 
Q 1909 409 2131 539 
Q 2353 669 2445 892 
Q 2538 1116 2538 1541 
L 2538 3319 
L 3100 3319 
L 3100 0 
L 2597 0 
z
" transform="scale(0.015625)"/>
     <path id="ArialMT-3a" d="M 578 2678 
L 578 3319 
L 1219 3319 
L 1219 2678 
L 578 2678 
z
M 578 0 
L 578 641 
L 1219 641 
L 1219 0 
L 578 0 
z
" transform="scale(0.015625)"/>
    </defs>
    <use xlink:href="#ArialMT-41"/>
    <use xlink:href="#ArialMT-75" x="66.699219"/>
    <use xlink:href="#ArialMT-66" x="122.314453"/>
    <use xlink:href="#ArialMT-74" x="150.097656"/>
    <use xlink:href="#ArialMT-72" x="177.880859"/>
    <use xlink:href="#ArialMT-65" x="211.181641"/>
    <use xlink:href="#ArialMT-66" x="266.796875"/>
    <use xlink:href="#ArialMT-66" x="292.830078"/>
    <use xlink:href="#ArialMT-67" x="320.613281"/>
    <use xlink:href="#ArialMT-65" x="376.228516"/>
    <use xlink:href="#ArialMT-73" x="431.84375"/>
    <use xlink:href="#ArialMT-63" x="481.84375"/>
    <use xlink:href="#ArialMT-68" x="531.84375"/>
    <use xlink:href="#ArialMT-77" x="587.458984"/>
    <use xlink:href="#ArialMT-69" x="659.675781"/>
    <use xlink:href="#ArialMT-6e" x="681.892578"/>
    <use xlink:href="#ArialMT-64" x="737.507812"/>
    <use xlink:href="#ArialMT-69" x="793.123047"/>
    <use xlink:href="#ArialMT-67" x="815.339844"/>
    <use xlink:href="#ArialMT-6b" x="870.955078"/>
    <use xlink:href="#ArialMT-65" x="920.955078"/>
    <use xlink:href="#ArialMT-69" x="976.570312"/>
    <use xlink:href="#ArialMT-74" x="998.787109"/>
    <use xlink:href="#ArialMT-3a" x="1026.570312"/>
    <use xlink:href="#ArialMT-20" x="1054.353516"/>
    <use xlink:href="#ArialMT-35" x="1082.136719"/>
    <use xlink:href="#ArialMT-34" x="1137.751953"/>
    <use xlink:href="#ArialMT-2e" x="1193.367188"/>
    <use xlink:href="#ArialMT-32" x="1221.150391"/>
    <use xlink:href="#ArialMT-35" x="1276.765625"/>
    <use xlink:href="#ArialMT-20" x="1332.380859"/>
    <use xlink:href="#ArialMT-6d" x="1360.164062"/>
    <use xlink:href="#ArialMT-2f" x="1443.464844"/>
    <use xlink:href="#ArialMT-73" x="1471.248047"/>
   </g>
   <!-- Bremsbeschleunigung: -1226 m/s² -->
   <g style="fill: #262626" transform="translate(92.650688 644.805937) scale(0.1 -0.1)">
    <defs>
     <path id="ArialMT-42" d="M 469 0 
L 469 4581 
L 2188 4581 
Q 2713 4581 3030 4442 
Q 3347 4303 3526 4014 
Q 3706 3725 3706 3409 
Q 3706 3116 3547 2856 
Q 3388 2597 3066 2438 
Q 3481 2316 3704 2022 
Q 3928 1728 3928 1328 
Q 3928 1006 3792 729 
Q 3656 453 3456 303 
Q 3256 153 2954 76 
Q 2653 0 2216 0 
L 469 0 
z
M 1075 2656 
L 2066 2656 
Q 2469 2656 2644 2709 
Q 2875 2778 2992 2937 
Q 3109 3097 3109 3338 
Q 3109 3566 3000 3739 
Q 2891 3913 2687 3977 
Q 2484 4041 1991 4041 
L 1075 4041 
L 1075 2656 
z
M 1075 541 
L 2216 541 
Q 2509 541 2628 563 
Q 2838 600 2978 687 
Q 3119 775 3209 942 
Q 3300 1109 3300 1328 
Q 3300 1584 3169 1773 
Q 3038 1963 2805 2039 
Q 2572 2116 2134 2116 
L 1075 2116 
L 1075 541 
z
" transform="scale(0.015625)"/>
     <path id="ArialMT-62" d="M 941 0 
L 419 0 
L 419 4581 
L 981 4581 
L 981 2947 
Q 1338 3394 1891 3394 
Q 2197 3394 2470 3270 
Q 2744 3147 2920 2923 
Q 3097 2700 3197 2384 
Q 3297 2069 3297 1709 
Q 3297 856 2875 390 
Q 2453 -75 1863 -75 
Q 1275 -75 941 416 
L 941 0 
z
M 934 1684 
Q 934 1088 1097 822 
Q 1363 388 1816 388 
Q 2184 388 2453 708 
Q 2722 1028 2722 1663 
Q 2722 2313 2464 2622 
Q 2206 2931 1841 2931 
Q 1472 2931 1203 2611 
Q 934 2291 934 1684 
z
" transform="scale(0.015625)"/>
     <path id="ArialMT-2d" d="M 203 1375 
L 203 1941 
L 1931 1941 
L 1931 1375 
L 203 1375 
z
" transform="scale(0.015625)"/>
     <path id="ArialMT-b2" d="M 78 2291 
Q 97 2469 225 2647 
Q 422 2916 872 3242 
Q 1322 3569 1406 3663 
Q 1522 3791 1522 3925 
Q 1522 4075 1412 4172 
Q 1303 4269 1091 4269 
Q 884 4269 782 4195 
Q 681 4122 616 3913 
L 144 3963 
Q 234 4309 457 4473 
Q 681 4638 1100 4638 
Q 1572 4638 1792 4453 
Q 2013 4269 2013 4003 
Q 2013 3741 1828 3506 
Q 1688 3331 1188 2972 
Q 928 2781 819 2669 
L 2025 2669 
L 2025 2291 
L 78 2291 
z
" transform="scale(0.015625)"/>
    </defs>
    <use xlink:href="#ArialMT-42"/>
    <use xlink:href="#ArialMT-72" x="66.699219"/>
    <use xlink:href="#ArialMT-65" x="100"/>
    <use xlink:href="#ArialMT-6d" x="155.615234"/>
    <use xlink:href="#ArialMT-73" x="238.916016"/>
    <use xlink:href="#ArialMT-62" x="288.916016"/>
    <use xlink:href="#ArialMT-65" x="344.53125"/>
    <use xlink:href="#ArialMT-73" x="400.146484"/>
    <use xlink:href="#ArialMT-63" x="450.146484"/>
    <use xlink:href="#ArialMT-68" x="500.146484"/>
    <use xlink:href="#ArialMT-6c" x="555.761719"/>
    <use xlink:href="#ArialMT-65" x="577.978516"/>
    <use xlink:href="#ArialMT-75" x="633.59375"/>
    <use xlink:href="#ArialMT-6e" x="689.208984"/>
    <use xlink:href="#ArialMT-69" x="744.824219"/>
    <use xlink:href="#ArialMT-67" x="767.041016"/>
    <use xlink:href="#ArialMT-75" x="822.65625"/>
    <use xlink:href="#ArialMT-6e" x="878.271484"/>
    <use xlink:href="#ArialMT-67" x="933.886719"/>
    <use xlink:href="#ArialMT-3a" x="989.501953"/>
    <use xlink:href="#ArialMT-20" x="1017.285156"/>
    <use xlink:href="#ArialMT-2d" x="1045.068359"/>
    <use xlink:href="#ArialMT-31" x="1078.369141"/>
    <use xlink:href="#ArialMT-32" x="1133.984375"/>
    <use xlink:href="#ArialMT-32" x="1189.599609"/>
    <use xlink:href="#ArialMT-36" x="1245.214844"/>
    <use xlink:href="#ArialMT-20" x="1300.830078"/>
    <use xlink:href="#ArialMT-6d" x="1328.613281"/>
    <use xlink:href="#ArialMT-2f" x="1411.914062"/>
    <use xlink:href="#ArialMT-73" x="1439.697266"/>
    <use xlink:href="#ArialMT-b2" x="1489.697266"/>
   </g>
   <!-- Fallzeit: 5.53 s -->
   <g style="fill: #262626" transform="translate(92.650688 655.5) scale(0.1 -0.1)">
    <defs>
     <path id="ArialMT-7a" d="M 125 0 
L 125 456 
L 2238 2881 
Q 1878 2863 1603 2863 
L 250 2863 
L 250 3319 
L 2963 3319 
L 2963 2947 
L 1166 841 
L 819 456 
Q 1197 484 1528 484 
L 3063 484 
L 3063 0 
L 125 0 
z
" transform="scale(0.015625)"/>
    </defs>
    <use xlink:href="#ArialMT-46"/>
    <use xlink:href="#ArialMT-61" x="61.083984"/>
    <use xlink:href="#ArialMT-6c" x="116.699219"/>
    <use xlink:href="#ArialMT-6c" x="138.916016"/>
    <use xlink:href="#ArialMT-7a" x="161.132812"/>
    <use xlink:href="#ArialMT-65" x="211.132812"/>
    <use xlink:href="#ArialMT-69" x="266.748047"/>
    <use xlink:href="#ArialMT-74" x="288.964844"/>
    <use xlink:href="#ArialMT-3a" x="316.748047"/>
    <use xlink:href="#ArialMT-20" x="344.53125"/>
    <use xlink:href="#ArialMT-35" x="372.314453"/>
    <use xlink:href="#ArialMT-2e" x="427.929688"/>
    <use xlink:href="#ArialMT-35" x="455.712891"/>
    <use xlink:href="#ArialMT-33" x="511.328125"/>
    <use xlink:href="#ArialMT-20" x="566.943359"/>
    <use xlink:href="#ArialMT-73" x="594.726562"/>
   </g>
   <!-- Bremszeit: 0.044 s -->
   <g style="fill: #262626" transform="translate(92.650688 666.076875) scale(0.1 -0.1)">
    <use xlink:href="#ArialMT-42"/>
    <use xlink:href="#ArialMT-72" x="66.699219"/>
    <use xlink:href="#ArialMT-65" x="100"/>
    <use xlink:href="#ArialMT-6d" x="155.615234"/>
    <use xlink:href="#ArialMT-73" x="238.916016"/>
    <use xlink:href="#ArialMT-7a" x="288.916016"/>
    <use xlink:href="#ArialMT-65" x="338.916016"/>
    <use xlink:href="#ArialMT-69" x="394.53125"/>
    <use xlink:href="#ArialMT-74" x="416.748047"/>
    <use xlink:href="#ArialMT-3a" x="444.53125"/>
    <use xlink:href="#ArialMT-20" x="472.314453"/>
    <use xlink:href="#ArialMT-30" x="500.097656"/>
    <use xlink:href="#ArialMT-2e" x="555.712891"/>
    <use xlink:href="#ArialMT-30" x="583.496094"/>
    <use xlink:href="#ArialMT-34" x="639.111328"/>
    <use xlink:href="#ArialMT-34" x="694.726562"/>
    <use xlink:href="#ArialMT-20" x="750.341797"/>
    <use xlink:href="#ArialMT-73" x="778.125"/>
   </g>
   <!-- G-Belastung: 125-fach -->
   <g style="fill: #262626" transform="translate(92.650688 676.8) scale(0.1 -0.1)">
    <use xlink:href="#ArialMT-47"/>
    <use xlink:href="#ArialMT-2d" x="77.783203"/>
    <use xlink:href="#ArialMT-42" x="111.083984"/>
    <use xlink:href="#ArialMT-65" x="177.783203"/>
    <use xlink:href="#ArialMT-6c" x="233.398438"/>
    <use xlink:href="#ArialMT-61" x="255.615234"/>
    <use xlink:href="#ArialMT-73" x="311.230469"/>
    <use xlink:href="#ArialMT-74" x="361.230469"/>
    <use xlink:href="#ArialMT-75" x="389.013672"/>
    <use xlink:href="#ArialMT-6e" x="444.628906"/>
    <use xlink:href="#ArialMT-67" x="500.244141"/>
    <use xlink:href="#ArialMT-3a" x="555.859375"/>
    <use xlink:href="#ArialMT-20" x="583.642578"/>
    <use xlink:href="#ArialMT-31" x="611.425781"/>
    <use xlink:href="#ArialMT-32" x="667.041016"/>
    <use xlink:href="#ArialMT-35" x="722.65625"/>
    <use xlink:href="#ArialMT-2d" x="778.271484"/>
    <use xlink:href="#ArialMT-66" x="811.572266"/>
    <use xlink:href="#ArialMT-61" x="839.355469"/>
    <use xlink:href="#ArialMT-63" x="894.970703"/>
    <use xlink:href="#ArialMT-68" x="944.970703"/>
   </g>
  </g>
 </g>
 <defs>
  <clipPath id="pafcc45a08a">
   <rect x="49.450688" y="7.2" width="734.4" height="166.153846"/>
  </clipPath>
  <clipPath id="p9e6e5aaace">
   <rect x="49.450688" y="212.123077" width="734.4" height="166.153846"/>
  </clipPath>
  <clipPath id="p61634d358b">
   <rect x="92.650688" y="525.6" width="604.8" height="21.6"/>
  </clipPath>
  <clipPath id="p24da6a19db">
   <path d="M 92.650688 541.8 
L 697.450687 541.8 
L 697.450687 531 
L 92.650688 531 
z
"/>
  </clipPath>
  <clipPath id="p92a65d6bee">
   <rect x="92.650688" y="597.6" width="604.8" height="21.6"/>
  </clipPath>
  <clipPath id="p4a6c5f68a5">
   <path d="M 92.650688 613.8 
L 697.450687 613.8 
L 697.450687 603 
L 92.650688 603 
z
"/>
  </clipPath>
 </defs>
</svg>
